<svg xmlns="http://www.w3.org/2000/svg" xmlns:xlink="http://www.w3.org/1999/xlink" width="897.615" height="286.344" viewBox="0 0 897.615 286.344">
  <defs>
    <filter id="Trazado_590481" x="753.498" y="9.861" width="144.117" height="144.117" filterUnits="userSpaceOnUse">
      <feOffset dx="5" dy="5" input="SourceAlpha"/>
      <feGaussianBlur stdDeviation="7.5" result="blur"/>
      <feFlood flood-opacity="0.098"/>
      <feComposite operator="in" in2="blur"/>
      <feComposite in="SourceGraphic"/>
    </filter>
    <filter id="Trazado_149988" x="571.022" y="140.062" width="144.117" height="144.117" filterUnits="userSpaceOnUse">
      <feOffset dx="5" dy="5" input="SourceAlpha"/>
      <feGaussianBlur stdDeviation="7.5" result="blur-2"/>
      <feFlood flood-opacity="0.098"/>
      <feComposite operator="in" in2="blur-2"/>
      <feComposite in="SourceGraphic"/>
    </filter>
    <filter id="Trazado_149990" x="383.171" y="9.86" width="144.117" height="144.116" filterUnits="userSpaceOnUse">
      <feOffset dx="5" dy="5" input="SourceAlpha"/>
      <feGaussianBlur stdDeviation="7.5" result="blur-3"/>
      <feFlood flood-opacity="0.098"/>
      <feComposite operator="in" in2="blur-3"/>
      <feComposite in="SourceGraphic"/>
    </filter>
    <filter id="Trazado_149992" x="196.393" y="141.916" width="144.091" height="144.089" filterUnits="userSpaceOnUse">
      <feOffset dx="5" dy="5" input="SourceAlpha"/>
      <feGaussianBlur stdDeviation="7.5" result="blur-4"/>
      <feFlood flood-opacity="0.098"/>
      <feComposite operator="in" in2="blur-4"/>
      <feComposite in="SourceGraphic"/>
    </filter>
    <filter id="Trazado_149994" x="10.159" y="11.702" width="144.117" height="144.116" filterUnits="userSpaceOnUse">
      <feOffset dx="5" dy="5" input="SourceAlpha"/>
      <feGaussianBlur stdDeviation="7.5" result="blur-5"/>
      <feFlood flood-opacity="0.098"/>
      <feComposite operator="in" in2="blur-5"/>
      <feComposite in="SourceGraphic"/>
    </filter>
  </defs>
  <g id="Grupo_852478" data-name="Grupo 852478" transform="translate(-351.262 -6920.658)">
    <path id="Trazado_590480" data-name="Trazado 590480" d="M663.5,147.632a76.919,76.919,0,1,1-76.919-76.919A76.918,76.918,0,0,1,663.5,147.632" transform="translate(585.233 6849.945)" fill="#ea653c"/>
    <g transform="matrix(1, 0, 0, 1, 351.26, 6920.66)" filter="url(#Trazado_590481)">
      <path id="Trazado_590481-2" data-name="Trazado 590481" d="M594.135,180.439a49.546,49.546,0,1,1,25.258-65.356,49.544,49.544,0,0,1-25.258,65.356" transform="translate(246.47 -58.21)" fill="#fff"/>
    </g>
    <path id="Trazado_590479" data-name="Trazado 590479" d="M548.045,29.512a32.814,32.814,0,0,0-12.859,33.18c.523,4.432-.812,7.789-5.189,11.692-55.26,39.226-84.523,56.241-115.4,44.1a77.37,77.37,0,1,0,45.768,60.951c-.985-27.871,22.515-53.061,75.595-92.487,6.047-3.758,11.578-3.756,15.4-2.2a32.826,32.826,0,1,0-3.314-55.24" transform="translate(606.209 6940.217)" fill="#70c2ce"/>
    <path id="Trazado_597860" data-name="Trazado 597860" d="M10.566,12.836H8.7V17H6.355V5.625h4.227a4.778,4.778,0,0,1,3.109.9,3.1,3.1,0,0,1,1.094,2.539,3.5,3.5,0,0,1-.5,1.941,3.437,3.437,0,0,1-1.527,1.238l2.461,4.648V17H12.7ZM8.7,10.938H10.59a1.936,1.936,0,0,0,1.367-.449,1.606,1.606,0,0,0,.484-1.238,1.719,1.719,0,0,0-.457-1.266,1.9,1.9,0,0,0-1.4-.461H8.7Zm11.609,6.219a4.15,4.15,0,0,1-3.027-1.141,4.054,4.054,0,0,1-1.168-3.039v-.219a5.106,5.106,0,0,1,.492-2.277A3.612,3.612,0,0,1,18,8.934a3.914,3.914,0,0,1,2.059-.543,3.508,3.508,0,0,1,2.73,1.094,4.444,4.444,0,0,1,1,3.1v.922H18.4a2.1,2.1,0,0,0,.66,1.328,2,2,0,0,0,1.395.5,2.437,2.437,0,0,0,2.039-.945l1.109,1.242a3.389,3.389,0,0,1-1.375,1.121A4.511,4.511,0,0,1,20.309,17.156Zm-.258-6.945a1.411,1.411,0,0,0-1.09.455,2.357,2.357,0,0,0-.535,1.3h3.141v-.181a1.681,1.681,0,0,0-.406-1.165A1.456,1.456,0,0,0,20.051,10.211ZM27.449,17H25.184V5h2.266Zm5.75.156a4.15,4.15,0,0,1-3.027-1.141A4.054,4.054,0,0,1,29,12.977v-.219A5.106,5.106,0,0,1,29.5,10.48a3.612,3.612,0,0,1,1.395-1.547,3.914,3.914,0,0,1,2.059-.543,3.508,3.508,0,0,1,2.73,1.094,4.444,4.444,0,0,1,1,3.1v.922H31.293a2.1,2.1,0,0,0,.66,1.328,2,2,0,0,0,1.395.5,2.437,2.437,0,0,0,2.039-.945L36.5,15.633a3.389,3.389,0,0,1-1.375,1.121A4.511,4.511,0,0,1,33.2,17.156Zm-.258-6.945a1.411,1.411,0,0,0-1.09.455,2.357,2.357,0,0,0-.535,1.3h3.141v-.181a1.681,1.681,0,0,0-.406-1.165A1.456,1.456,0,0,0,32.941,10.211Zm8.078,4.031,1.57-5.7h2.359L42.1,17H39.941L37.09,8.547h2.359ZM50.723,17a2.507,2.507,0,0,1-.227-.758,2.732,2.732,0,0,1-2.133.914,3,3,0,0,1-2.059-.719,2.312,2.312,0,0,1-.816-1.812,2.389,2.389,0,0,1,1-2.062,4.915,4.915,0,0,1,2.879-.727H50.4v-.484a1.393,1.393,0,0,0-.3-.937,1.183,1.183,0,0,0-.949-.352,1.345,1.345,0,0,0-.895.273.929.929,0,0,0-.324.75H45.676a2.268,2.268,0,0,1,.453-1.359,3,3,0,0,1,1.281-.98,4.669,4.669,0,0,1,1.859-.355,3.689,3.689,0,0,1,2.48.785,2.747,2.747,0,0,1,.918,2.207v3.664A4.041,4.041,0,0,0,53,16.867V17Zm-1.867-1.57a1.945,1.945,0,0,0,.922-.223,1.462,1.462,0,0,0,.625-.6V13.156h-.844q-1.7,0-1.8,1.172l-.008.133a.9.9,0,0,0,.3.7A1.153,1.153,0,0,0,48.855,15.43ZM56.48,8.547l.07.977a2.951,2.951,0,0,1,2.43-1.133,2.453,2.453,0,0,1,2,.789,3.682,3.682,0,0,1,.672,2.359V17H59.395V11.594a1.465,1.465,0,0,0-.312-1.043,1.4,1.4,0,0,0-1.039-.324,1.553,1.553,0,0,0-1.43.813V17H54.355V8.547Zm10.4,6.789a1.481,1.481,0,0,0,1.016-.344,1.2,1.2,0,0,0,.406-.914h2.117a2.9,2.9,0,0,1-.469,1.574,3.093,3.093,0,0,1-1.262,1.109,3.949,3.949,0,0,1-1.77.395A3.67,3.67,0,0,1,64.059,16a4.56,4.56,0,0,1-1.047-3.184v-.148a4.508,4.508,0,0,1,1.039-3.117A3.627,3.627,0,0,1,66.9,8.391a3.555,3.555,0,0,1,2.543.9,3.2,3.2,0,0,1,.973,2.4H68.3a1.551,1.551,0,0,0-.406-1.072,1.51,1.51,0,0,0-2.223.163,3.333,3.333,0,0,0-.4,1.866v.235a3.375,3.375,0,0,0,.4,1.878A1.377,1.377,0,0,0,66.879,15.336ZM74.09,17H71.824V8.547H74.09Zm-2.4-10.641a1.112,1.112,0,0,1,.34-.836,1.465,1.465,0,0,1,1.848,0,1.105,1.105,0,0,1,.344.836,1.108,1.108,0,0,1-.348.844,1.448,1.448,0,0,1-1.836,0A1.108,1.108,0,0,1,71.691,6.359ZM80.848,17a2.507,2.507,0,0,1-.227-.758,2.732,2.732,0,0,1-2.133.914,3,3,0,0,1-2.059-.719,2.312,2.312,0,0,1-.816-1.812,2.389,2.389,0,0,1,1-2.062,4.915,4.915,0,0,1,2.879-.727h1.039v-.484a1.393,1.393,0,0,0-.3-.937,1.183,1.183,0,0,0-.949-.352,1.345,1.345,0,0,0-.895.273.929.929,0,0,0-.324.75H75.8a2.268,2.268,0,0,1,.453-1.359,3,3,0,0,1,1.281-.98,4.669,4.669,0,0,1,1.859-.355,3.689,3.689,0,0,1,2.48.785,2.747,2.747,0,0,1,.918,2.207v3.664a4.041,4.041,0,0,0,.336,1.82V17ZM78.98,15.43a1.945,1.945,0,0,0,.922-.223,1.462,1.462,0,0,0,.625-.6V13.156h-.844q-1.7,0-1.8,1.172l-.008.133a.9.9,0,0,0,.3.7A1.153,1.153,0,0,0,78.98,15.43Z" transform="translate(378.262 7161.687)" fill="#12263f"/>
    <path id="Trazado_597861" data-name="Trazado 597861" d="M9.688,17H7.344V5.625H9.688Zm4.1-8.453.07.977a2.951,2.951,0,0,1,2.43-1.133,2.453,2.453,0,0,1,2,.789,3.682,3.682,0,0,1,.672,2.359V17H16.7V11.594a1.465,1.465,0,0,0-.312-1.043,1.4,1.4,0,0,0-1.039-.324,1.553,1.553,0,0,0-1.43.813V17H11.664V8.547Zm10.4,6.789a1.481,1.481,0,0,0,1.016-.344,1.2,1.2,0,0,0,.406-.914h2.117a2.9,2.9,0,0,1-.469,1.574A3.093,3.093,0,0,1,26,16.762a3.949,3.949,0,0,1-1.77.395A3.67,3.67,0,0,1,21.367,16,4.56,4.56,0,0,1,20.32,12.82v-.148a4.508,4.508,0,0,1,1.039-3.117,3.627,3.627,0,0,1,2.852-1.164,3.555,3.555,0,0,1,2.543.9,3.2,3.2,0,0,1,.973,2.4H25.609a1.551,1.551,0,0,0-.406-1.072,1.51,1.51,0,0,0-2.223.163,3.333,3.333,0,0,0-.4,1.866v.235a3.375,3.375,0,0,0,.4,1.878A1.377,1.377,0,0,0,24.188,15.336ZM31.4,17H29.133V5H31.4Zm6.922-.859a2.831,2.831,0,0,1-2.312,1.016,2.67,2.67,0,0,1-2.074-.781,3.335,3.335,0,0,1-.73-2.289V8.547h2.258v5.467q0,1.322,1.2,1.322a1.63,1.63,0,0,0,1.578-.8V8.547h2.266V17H38.383Zm8.469-1.477a.727.727,0,0,0-.41-.652,4.659,4.659,0,0,0-1.316-.426q-3.016-.633-3.016-2.562a2.323,2.323,0,0,1,.934-1.879,3.766,3.766,0,0,1,2.441-.754A4.053,4.053,0,0,1,48,9.148a2.388,2.388,0,0,1,.965,1.969H46.7a1.092,1.092,0,0,0-.312-.8A1.322,1.322,0,0,0,45.414,10a1.351,1.351,0,0,0-.883.258.814.814,0,0,0-.312.656.7.7,0,0,0,.355.605,3.657,3.657,0,0,0,1.2.4A9.8,9.8,0,0,1,47.2,12.3a2.336,2.336,0,0,1,1.789,2.273,2.2,2.2,0,0,1-.992,1.871,4.28,4.28,0,0,1-2.562.715,4.47,4.47,0,0,1-1.887-.379,3.166,3.166,0,0,1-1.293-1.039,2.414,2.414,0,0,1-.469-1.426h2.141a1.179,1.179,0,0,0,.445.922,1.766,1.766,0,0,0,1.109.32,1.635,1.635,0,0,0,.98-.246A.766.766,0,0,0,46.789,14.664ZM52.82,17H50.555V8.547H52.82Zm-2.4-10.641a1.112,1.112,0,0,1,.34-.836,1.465,1.465,0,0,1,1.848,0,1.105,1.105,0,0,1,.344.836,1.108,1.108,0,0,1-.348.844,1.448,1.448,0,0,1-1.836,0A1.108,1.108,0,0,1,50.422,6.359ZM54.328,12.7a5.013,5.013,0,0,1,.484-2.242A3.546,3.546,0,0,1,56.207,8.93a4.069,4.069,0,0,1,2.113-.539,3.849,3.849,0,0,1,2.793,1.047,4.2,4.2,0,0,1,1.207,2.844l.016.578A4.418,4.418,0,0,1,61.25,15.98a4.209,4.209,0,0,1-5.832,0,4.5,4.5,0,0,1-1.09-3.187Zm2.258.16a3.16,3.16,0,0,0,.453,1.843,1.628,1.628,0,0,0,2.578.008,3.457,3.457,0,0,0,.461-2.015,3.128,3.128,0,0,0-.461-1.831,1.5,1.5,0,0,0-1.3-.649,1.474,1.474,0,0,0-1.281.646A3.516,3.516,0,0,0,56.586,12.856ZM58.766,5h2.461L59.063,7.422H57.227ZM65.8,8.547l.07.977A2.951,2.951,0,0,1,68.3,8.391a2.453,2.453,0,0,1,2,.789,3.682,3.682,0,0,1,.672,2.359V17H68.719V11.594a1.465,1.465,0,0,0-.312-1.043,1.4,1.4,0,0,0-1.039-.324,1.553,1.553,0,0,0-1.43.813V17H63.68V8.547Z" transform="translate(583.262 6926.687)" fill="#12263f"/>
    <path id="Trazado_597862" data-name="Trazado 597862" d="M10.6,7.523H7.117V17H4.773V7.523H1.336v-1.9H10.6Zm5.43,3.141a6.134,6.134,0,0,0-.812-.062,1.654,1.654,0,0,0-1.68.867V17H11.281V8.547h2.133l.063,1.008a2.092,2.092,0,0,1,1.883-1.164,2.366,2.366,0,0,1,.7.1ZM21.781,17a2.507,2.507,0,0,1-.227-.758,2.732,2.732,0,0,1-2.133.914,3,3,0,0,1-2.059-.719,2.312,2.312,0,0,1-.816-1.812,2.389,2.389,0,0,1,1-2.062,4.915,4.915,0,0,1,2.879-.727h1.039v-.484a1.393,1.393,0,0,0-.3-.937,1.183,1.183,0,0,0-.949-.352,1.345,1.345,0,0,0-.895.273.929.929,0,0,0-.324.75H16.734a2.268,2.268,0,0,1,.453-1.359,3,3,0,0,1,1.281-.98,4.669,4.669,0,0,1,1.859-.355,3.689,3.689,0,0,1,2.48.785,2.747,2.747,0,0,1,.918,2.207v3.664a4.041,4.041,0,0,0,.336,1.82V17Zm-1.867-1.57a1.945,1.945,0,0,0,.922-.223,1.462,1.462,0,0,0,.625-.6V13.156h-.844q-1.7,0-1.8,1.172l-.008.133a.9.9,0,0,0,.3.7A1.153,1.153,0,0,0,19.914,15.43Zm7.625-6.883.07.977a2.951,2.951,0,0,1,2.43-1.133,2.453,2.453,0,0,1,2,.789,3.682,3.682,0,0,1,.672,2.359V17H30.453V11.594a1.465,1.465,0,0,0-.312-1.043,1.4,1.4,0,0,0-1.039-.324,1.553,1.553,0,0,0-1.43.813V17H25.414V8.547ZM39,14.664a.727.727,0,0,0-.41-.652,4.659,4.659,0,0,0-1.316-.426q-3.016-.633-3.016-2.562a2.323,2.323,0,0,1,.934-1.879,3.766,3.766,0,0,1,2.441-.754,4.053,4.053,0,0,1,2.574.758,2.388,2.388,0,0,1,.965,1.969H38.914a1.092,1.092,0,0,0-.312-.8A1.322,1.322,0,0,0,37.625,10a1.351,1.351,0,0,0-.883.258.814.814,0,0,0-.312.656.7.7,0,0,0,.355.605,3.657,3.657,0,0,0,1.2.4,9.8,9.8,0,0,1,1.422.379A2.336,2.336,0,0,1,41.2,14.57a2.2,2.2,0,0,1-.992,1.871,4.28,4.28,0,0,1-2.562.715,4.47,4.47,0,0,1-1.887-.379,3.166,3.166,0,0,1-1.293-1.039,2.414,2.414,0,0,1-.469-1.426h2.141a1.179,1.179,0,0,0,.445.922,1.766,1.766,0,0,0,1.109.32,1.635,1.635,0,0,0,.98-.246A.766.766,0,0,0,39,14.664Zm11.258-1.812a5.07,5.07,0,0,1-.887,3.129,2.843,2.843,0,0,1-2.395,1.176,2.633,2.633,0,0,1-2.07-.891V20.25H42.648V8.547h2.094l.078.828a2.654,2.654,0,0,1,2.141-.984,2.862,2.862,0,0,1,2.43,1.156,5.207,5.207,0,0,1,.867,3.188ZM48,12.688a3.327,3.327,0,0,0-.418-1.82,1.361,1.361,0,0,0-1.215-.641,1.479,1.479,0,0,0-1.461.813V14.5a1.5,1.5,0,0,0,1.477.836Q48,15.336,48,12.688ZM56.555,17a2.507,2.507,0,0,1-.227-.758,2.732,2.732,0,0,1-2.133.914,3,3,0,0,1-2.059-.719,2.312,2.312,0,0,1-.816-1.812,2.389,2.389,0,0,1,1-2.062,4.915,4.915,0,0,1,2.879-.727h1.039v-.484a1.393,1.393,0,0,0-.3-.937,1.183,1.183,0,0,0-.949-.352,1.345,1.345,0,0,0-.895.273.929.929,0,0,0-.324.75H51.508a2.268,2.268,0,0,1,.453-1.359,3,3,0,0,1,1.281-.98A4.669,4.669,0,0,1,55.1,8.391a3.689,3.689,0,0,1,2.48.785,2.747,2.747,0,0,1,.918,2.207v3.664a4.041,4.041,0,0,0,.336,1.82V17Zm-1.867-1.57a1.945,1.945,0,0,0,.922-.223,1.462,1.462,0,0,0,.625-.6V13.156h-.844q-1.7,0-1.8,1.172l-.008.133a.9.9,0,0,0,.3.7A1.153,1.153,0,0,0,54.688,15.43Zm10.3-4.766a6.134,6.134,0,0,0-.812-.062,1.654,1.654,0,0,0-1.68.867V17H60.234V8.547h2.133l.063,1.008a2.092,2.092,0,0,1,1.883-1.164,2.366,2.366,0,0,1,.7.1Zm4.977,6.492a4.15,4.15,0,0,1-3.027-1.141,4.054,4.054,0,0,1-1.168-3.039v-.219a5.106,5.106,0,0,1,.492-2.277,3.612,3.612,0,0,1,1.395-1.547,3.914,3.914,0,0,1,2.059-.543,3.508,3.508,0,0,1,2.73,1.094,4.444,4.444,0,0,1,1,3.1v.922H68.055a2.1,2.1,0,0,0,.66,1.328,2,2,0,0,0,1.395.5,2.437,2.437,0,0,0,2.039-.945l1.109,1.242a3.389,3.389,0,0,1-1.375,1.121A4.511,4.511,0,0,1,69.961,17.156ZM69.7,10.211a1.411,1.411,0,0,0-1.09.455,2.357,2.357,0,0,0-.535,1.3h3.141v-.181a1.681,1.681,0,0,0-.406-1.165A1.456,1.456,0,0,0,69.7,10.211ZM76.8,8.547l.07.977A2.951,2.951,0,0,1,79.3,8.391a2.453,2.453,0,0,1,2,.789,3.682,3.682,0,0,1,.672,2.359V17H79.711V11.594a1.465,1.465,0,0,0-.312-1.043,1.4,1.4,0,0,0-1.039-.324,1.553,1.553,0,0,0-1.43.813V17H74.672V8.547Zm10.4,6.789a1.481,1.481,0,0,0,1.016-.344,1.2,1.2,0,0,0,.406-.914h2.117a2.9,2.9,0,0,1-.469,1.574A3.093,3.093,0,0,1,89,16.762a3.949,3.949,0,0,1-1.77.395A3.67,3.67,0,0,1,84.375,16a4.56,4.56,0,0,1-1.047-3.184v-.148a4.508,4.508,0,0,1,1.039-3.117,3.627,3.627,0,0,1,2.852-1.164,3.555,3.555,0,0,1,2.543.9,3.2,3.2,0,0,1,.973,2.4H88.617a1.551,1.551,0,0,0-.406-1.072,1.51,1.51,0,0,0-2.223.163,3.333,3.333,0,0,0-.4,1.866v.235a3.375,3.375,0,0,0,.4,1.878A1.377,1.377,0,0,0,87.2,15.336ZM94.406,17H92.141V8.547h2.266Zm-2.4-10.641a1.112,1.112,0,0,1,.34-.836,1.465,1.465,0,0,1,1.848,0,1.105,1.105,0,0,1,.344.836,1.108,1.108,0,0,1-.348.844,1.448,1.448,0,0,1-1.836,0A1.108,1.108,0,0,1,92.008,6.359ZM101.164,17a2.507,2.507,0,0,1-.227-.758,2.732,2.732,0,0,1-2.133.914,3,3,0,0,1-2.059-.719,2.312,2.312,0,0,1-.816-1.812,2.389,2.389,0,0,1,1-2.062,4.915,4.915,0,0,1,2.879-.727h1.039v-.484a1.393,1.393,0,0,0-.3-.937,1.183,1.183,0,0,0-.949-.352,1.345,1.345,0,0,0-.895.273.929.929,0,0,0-.324.75H96.117a2.268,2.268,0,0,1,.453-1.359,3,3,0,0,1,1.281-.98,4.669,4.669,0,0,1,1.859-.355,3.689,3.689,0,0,1,2.48.785,2.747,2.747,0,0,1,.918,2.207v3.664a4.041,4.041,0,0,0,.336,1.82V17ZM99.3,15.43a1.945,1.945,0,0,0,.922-.223,1.462,1.462,0,0,0,.625-.6V13.156H100q-1.7,0-1.8,1.172l-.008.133a.9.9,0,0,0,.3.7A1.153,1.153,0,0,0,99.3,15.43Z" transform="translate(931.262 6927.687)" fill="#12263f"/>
    <path id="Trazado_597863" data-name="Trazado 597863" d="M11.77,13.211A4.025,4.025,0,0,1,10.414,16.1a4.76,4.76,0,0,1-3.223,1.055A4.28,4.28,0,0,1,3.75,15.684,6.038,6.038,0,0,1,2.5,11.641v-.7a6.819,6.819,0,0,1,.578-2.891A4.332,4.332,0,0,1,4.727,6.137a4.629,4.629,0,0,1,2.5-.668,4.637,4.637,0,0,1,3.172,1.055,4.326,4.326,0,0,1,1.391,2.961H9.441a2.376,2.376,0,0,0-.613-1.6,2.271,2.271,0,0,0-1.605-.5,1.991,1.991,0,0,0-1.754.84,4.707,4.707,0,0,0-.6,2.605V11.7a5.038,5.038,0,0,0,.559,2.7,1.954,1.954,0,0,0,1.762.852,2.314,2.314,0,0,0,1.621-.5,2.241,2.241,0,0,0,.613-1.535Zm1.039-.516a5.013,5.013,0,0,1,.484-2.242A3.546,3.546,0,0,1,14.688,8.93,4.069,4.069,0,0,1,16.8,8.391a3.849,3.849,0,0,1,2.793,1.047A4.2,4.2,0,0,1,20.8,12.281l.016.578A4.418,4.418,0,0,1,19.73,15.98a3.775,3.775,0,0,1-2.914,1.176A3.793,3.793,0,0,1,13.9,15.984a4.5,4.5,0,0,1-1.09-3.187Zm2.258.16A3.16,3.16,0,0,0,15.52,14.7a1.628,1.628,0,0,0,2.578.008,3.457,3.457,0,0,0,.461-2.015A3.128,3.128,0,0,0,18.1,10.86a1.5,1.5,0,0,0-1.3-.649,1.474,1.474,0,0,0-1.281.646A3.516,3.516,0,0,0,15.066,12.856Zm9.219-4.309.07.977a2.951,2.951,0,0,1,2.43-1.133,2.453,2.453,0,0,1,2,.789,3.682,3.682,0,0,1,.672,2.359V17H27.2V11.594a1.465,1.465,0,0,0-.312-1.043,1.4,1.4,0,0,0-1.039-.324,1.553,1.553,0,0,0-1.43.813V17H22.16V8.547Zm11.461,6.117a.727.727,0,0,0-.41-.652,4.659,4.659,0,0,0-1.316-.426Q31,12.953,31,11.023a2.323,2.323,0,0,1,.934-1.879,3.766,3.766,0,0,1,2.441-.754,4.053,4.053,0,0,1,2.574.758,2.388,2.388,0,0,1,.965,1.969H35.66a1.092,1.092,0,0,0-.312-.8A1.322,1.322,0,0,0,34.371,10a1.351,1.351,0,0,0-.883.258.814.814,0,0,0-.312.656.7.7,0,0,0,.355.605,3.657,3.657,0,0,0,1.2.4,9.8,9.8,0,0,1,1.422.379,2.336,2.336,0,0,1,1.789,2.273,2.2,2.2,0,0,1-.992,1.871,4.28,4.28,0,0,1-2.562.715,4.47,4.47,0,0,1-1.887-.379,3.166,3.166,0,0,1-1.293-1.039,2.414,2.414,0,0,1-.469-1.426h2.141a1.179,1.179,0,0,0,.445.922,1.766,1.766,0,0,0,1.109.32,1.635,1.635,0,0,0,.98-.246A.766.766,0,0,0,35.746,14.664ZM41.777,17H39.512V8.547h2.266Zm-2.4-10.641a1.112,1.112,0,0,1,.34-.836,1.465,1.465,0,0,1,1.848,0,1.105,1.105,0,0,1,.344.836,1.108,1.108,0,0,1-.348.844,1.448,1.448,0,0,1-1.836,0A1.108,1.108,0,0,1,39.379,6.359Zm8.836,8.3a.727.727,0,0,0-.41-.652,4.659,4.659,0,0,0-1.316-.426q-3.016-.633-3.016-2.562a2.323,2.323,0,0,1,.934-1.879,3.766,3.766,0,0,1,2.441-.754,4.053,4.053,0,0,1,2.574.758,2.388,2.388,0,0,1,.965,1.969H48.129a1.092,1.092,0,0,0-.312-.8A1.322,1.322,0,0,0,46.84,10a1.351,1.351,0,0,0-.883.258.814.814,0,0,0-.312.656A.7.7,0,0,0,46,11.52a3.657,3.657,0,0,0,1.2.4,9.8,9.8,0,0,1,1.422.379A2.336,2.336,0,0,1,50.41,14.57a2.2,2.2,0,0,1-.992,1.871,4.28,4.28,0,0,1-2.562.715,4.47,4.47,0,0,1-1.887-.379,3.166,3.166,0,0,1-1.293-1.039,2.414,2.414,0,0,1-.469-1.426h2.141a1.179,1.179,0,0,0,.445.922,1.766,1.766,0,0,0,1.109.32,1.635,1.635,0,0,0,.98-.246A.766.766,0,0,0,48.215,14.664Zm6.352-8.2V8.547h1.445V10.2H54.566v4.219a1.007,1.007,0,0,0,.18.672.9.9,0,0,0,.688.2,3.6,3.6,0,0,0,.664-.055v1.711a4.648,4.648,0,0,1-1.367.2,2.156,2.156,0,0,1-2.422-2.4V10.2H51.074V8.547h1.234V6.469ZM61.16,17.156a4.15,4.15,0,0,1-3.027-1.141,4.054,4.054,0,0,1-1.168-3.039v-.219a5.106,5.106,0,0,1,.492-2.277,3.612,3.612,0,0,1,1.395-1.547,3.914,3.914,0,0,1,2.059-.543,3.508,3.508,0,0,1,2.73,1.094,4.444,4.444,0,0,1,1,3.1v.922H59.254a2.1,2.1,0,0,0,.66,1.328,2,2,0,0,0,1.395.5,2.437,2.437,0,0,0,2.039-.945l1.109,1.242a3.389,3.389,0,0,1-1.375,1.121A4.511,4.511,0,0,1,61.16,17.156ZM60.9,10.211a1.411,1.411,0,0,0-1.09.455,2.357,2.357,0,0,0-.535,1.3h3.141v-.181a1.681,1.681,0,0,0-.406-1.165A1.456,1.456,0,0,0,60.9,10.211ZM68,8.547l.07.977A2.951,2.951,0,0,1,70.5,8.391a2.453,2.453,0,0,1,2,.789,3.682,3.682,0,0,1,.672,2.359V17H70.91V11.594a1.465,1.465,0,0,0-.312-1.043,1.4,1.4,0,0,0-1.039-.324,1.553,1.553,0,0,0-1.43.813V17H65.871V8.547Zm10.4,6.789a1.481,1.481,0,0,0,1.016-.344,1.2,1.2,0,0,0,.406-.914h2.117a2.9,2.9,0,0,1-.469,1.574A3.093,3.093,0,0,1,80.2,16.762a3.949,3.949,0,0,1-1.77.395A3.67,3.67,0,0,1,75.574,16a4.56,4.56,0,0,1-1.047-3.184v-.148a4.508,4.508,0,0,1,1.039-3.117,3.627,3.627,0,0,1,2.852-1.164,3.555,3.555,0,0,1,2.543.9,3.2,3.2,0,0,1,.973,2.4H79.816a1.551,1.551,0,0,0-.406-1.072,1.51,1.51,0,0,0-2.223.163,3.333,3.333,0,0,0-.4,1.866v.235a3.375,3.375,0,0,0,.4,1.878A1.377,1.377,0,0,0,78.395,15.336ZM85.605,17H83.34V8.547h2.266Zm-2.4-10.641a1.112,1.112,0,0,1,.34-.836,1.465,1.465,0,0,1,1.848,0,1.105,1.105,0,0,1,.344.836,1.108,1.108,0,0,1-.348.844,1.448,1.448,0,0,1-1.836,0A1.108,1.108,0,0,1,83.207,6.359ZM92.363,17a2.507,2.507,0,0,1-.227-.758A2.732,2.732,0,0,1,90,17.156a3,3,0,0,1-2.059-.719,2.312,2.312,0,0,1-.816-1.812,2.389,2.389,0,0,1,1-2.062A4.915,4.915,0,0,1,91,11.836h1.039v-.484a1.393,1.393,0,0,0-.3-.937,1.183,1.183,0,0,0-.949-.352,1.345,1.345,0,0,0-.895.273.929.929,0,0,0-.324.75H87.316a2.268,2.268,0,0,1,.453-1.359,3,3,0,0,1,1.281-.98,4.669,4.669,0,0,1,1.859-.355,3.689,3.689,0,0,1,2.48.785,2.747,2.747,0,0,1,.918,2.207v3.664a4.041,4.041,0,0,0,.336,1.82V17ZM90.5,15.43a1.945,1.945,0,0,0,.922-.223,1.462,1.462,0,0,0,.625-.6V13.156H91.2q-1.7,0-1.8,1.172l-.008.133a.9.9,0,0,0,.3.7A1.153,1.153,0,0,0,90.5,15.43Z" transform="translate(754.05 7161.687)" fill="#12263f"/>
    <path id="Trazado_597864" data-name="Trazado 597864" d="M22.816,12.07h-4.5v3.047H23.6V17H15.973V5.625h7.609v1.9H18.316v2.711h4.5Zm5.227-1,1.422-2.523h2.414l-2.406,4.141L31.98,17H29.559l-1.508-2.656L26.551,17h-2.43l2.508-4.312-2.4-4.141h2.422ZM37.863,17a2.507,2.507,0,0,1-.227-.758,2.732,2.732,0,0,1-2.133.914,3,3,0,0,1-2.059-.719,2.312,2.312,0,0,1-.816-1.812,2.389,2.389,0,0,1,1-2.062,4.915,4.915,0,0,1,2.879-.727h1.039v-.484a1.393,1.393,0,0,0-.3-.937,1.183,1.183,0,0,0-.949-.352,1.345,1.345,0,0,0-.895.273.929.929,0,0,0-.324.75H32.816a2.268,2.268,0,0,1,.453-1.359,3,3,0,0,1,1.281-.98,4.669,4.669,0,0,1,1.859-.355,3.689,3.689,0,0,1,2.48.785,2.747,2.747,0,0,1,.918,2.207v3.664a4.041,4.041,0,0,0,.336,1.82V17ZM36,15.43a1.945,1.945,0,0,0,.922-.223,1.462,1.462,0,0,0,.625-.6V13.156H36.7q-1.7,0-1.8,1.172l-.008.133a.9.9,0,0,0,.3.7A1.153,1.153,0,0,0,36,15.43Zm9.063-.094a1.481,1.481,0,0,0,1.016-.344,1.2,1.2,0,0,0,.406-.914H48.6a2.9,2.9,0,0,1-.469,1.574,3.093,3.093,0,0,1-1.262,1.109,3.949,3.949,0,0,1-1.77.395A3.67,3.67,0,0,1,42.238,16a4.56,4.56,0,0,1-1.047-3.184v-.148A4.508,4.508,0,0,1,42.23,9.555a3.627,3.627,0,0,1,2.852-1.164,3.555,3.555,0,0,1,2.543.9,3.2,3.2,0,0,1,.973,2.4H46.48a1.551,1.551,0,0,0-.406-1.072,1.51,1.51,0,0,0-2.223.163,3.333,3.333,0,0,0-.4,1.866v.235a3.375,3.375,0,0,0,.4,1.878A1.377,1.377,0,0,0,45.059,15.336ZM52.59,6.469V8.547h1.445V10.2H52.59v4.219a1.007,1.007,0,0,0,.18.672.9.9,0,0,0,.688.2,3.6,3.6,0,0,0,.664-.055v1.711a4.648,4.648,0,0,1-1.367.2,2.156,2.156,0,0,1-2.422-2.4V10.2H49.1V8.547h1.234V6.469ZM57.676,17H55.41V8.547h2.266Zm-2.4-10.641a1.112,1.112,0,0,1,.34-.836,1.465,1.465,0,0,1,1.848,0,1.105,1.105,0,0,1,.344.836,1.108,1.108,0,0,1-.348.844,1.448,1.448,0,0,1-1.836,0A1.108,1.108,0,0,1,55.277,6.359Zm6.961.109V8.547h1.445V10.2H62.238v4.219a1.007,1.007,0,0,0,.18.672.9.9,0,0,0,.688.2,3.6,3.6,0,0,0,.664-.055v1.711a4.648,4.648,0,0,1-1.367.2,2.156,2.156,0,0,1-2.422-2.4V10.2H58.746V8.547H59.98V6.469ZM70,16.141a2.831,2.831,0,0,1-2.312,1.016,2.67,2.67,0,0,1-2.074-.781,3.335,3.335,0,0,1-.73-2.289V8.547h2.258v5.467q0,1.322,1.2,1.322a1.63,1.63,0,0,0,1.578-.8V8.547h2.266V17H70.066Zm3.539-3.43a5.094,5.094,0,0,1,.887-3.148,2.877,2.877,0,0,1,2.426-1.172,2.589,2.589,0,0,1,2.039.922V5H81.16V17H79.121l-.109-.9a2.657,2.657,0,0,1-2.172,1.055,2.869,2.869,0,0,1-2.395-1.176A5.258,5.258,0,0,1,73.543,12.711Zm2.258.168a3.337,3.337,0,0,0,.414,1.823,1.349,1.349,0,0,0,1.2.634,1.511,1.511,0,0,0,1.477-.884V11.111a1.489,1.489,0,0,0-1.461-.884Q75.8,10.227,75.8,12.879Z" transform="translate(1128.917 7161.687)" fill="#12263f"/>
    <g transform="matrix(1, 0, 0, 1, 351.26, 6920.66)" filter="url(#Trazado_149988)">
      <path id="Trazado_149988-2" data-name="Trazado 149988" d="M594.135,180.439a49.546,49.546,0,1,1,25.258-65.356,49.544,49.544,0,0,1-25.258,65.356" transform="translate(64 71.99)" fill="#fff"/>
    </g>
    <path id="Trazado_149989" data-name="Trazado 149989" d="M690.116,179.755a32.822,32.822,0,0,0-35.566-1.175c-4.008,1.961-7.619,1.812-12.749-1.031-55.284-39.188-81.016-61.187-79.767-94.343a77.369,77.369,0,1,0-42.4,63.338c25.978-10.14,57.519,3.717,112.275,40.784,5.54,4.463,7.369,9.685,7.164,13.809a32.826,32.826,0,1,0,51.041-21.383" transform="translate(316.792 6920.657)" fill="#5bc799"/>
    <g transform="matrix(1, 0, 0, 1, 351.26, 6920.66)" filter="url(#Trazado_149990)">
      <path id="Trazado_149990-2" data-name="Trazado 149990" d="M492.11,109.726a49.545,49.545,0,1,1,25.26-65.357,49.543,49.543,0,0,1-25.26,65.357" transform="translate(-21.83 12.5)" fill="#fff"/>
    </g>
    <path id="Trazado_149991" data-name="Trazado 149991" d="M548.045,29.512a32.814,32.814,0,0,0-12.859,33.18c.523,4.432-.812,7.789-5.189,11.692-55.26,39.226-84.523,56.241-115.4,44.1a77.37,77.37,0,1,0,45.768,60.951c-.985-27.871,22.515-53.061,75.595-92.487,6.047-3.758,11.578-3.756,15.4-2.2a32.826,32.826,0,1,0-3.314-55.24" transform="translate(231.601 6940.217)" fill="#479592"/>
    <g transform="matrix(1, 0, 0, 1, 351.26, 6920.66)" filter="url(#Trazado_149992)">
      <path id="Trazado_149992-2" data-name="Trazado 149992" d="M420.154,136.125A49.546,49.546,0,1,1,370.61,86.58a49.546,49.546,0,0,1,49.545,49.545" transform="translate(-107.17 72.84)" fill="#fff"/>
    </g>
    <path id="Trazado_149993" data-name="Trazado 149993" d="M487.531,180.755a32.818,32.818,0,0,0-35.566-1.173c-4.008,1.959-7.619,1.81-12.749-1.033-55.286-39.188-81.016-61.187-79.765-94.343a77.37,77.37,0,1,0-42.4,63.338c25.98-10.14,57.519,3.717,112.273,40.786,5.542,4.461,7.371,9.683,7.166,13.808a32.826,32.826,0,1,0,51.042-21.383" transform="translate(146.365 6921.499)" fill="#ff997b"/>
    <g transform="matrix(1, 0, 0, 1, 351.26, 6920.66)" filter="url(#Trazado_149994)">
      <path id="Trazado_149994-2" data-name="Trazado 149994" d="M289.526,110.726a49.546,49.546,0,1,1,25.259-65.357,49.546,49.546,0,0,1-25.259,65.357" transform="translate(-192.26 13.34)" fill="#fff"/>
    </g>
    <path id="Trazado_149999" data-name="Trazado 149999" d="M82.33,60.937a27.7,27.7,0,1,1-27.7-27.7,27.7,27.7,0,0,1,27.7,27.7" transform="translate(373.847 6936.64)" fill="#ea653c"/>
    <g id="Grupo_145502" data-name="Grupo 145502" transform="translate(1278.976 8488.509) rotate(180)">
      <path id="Trazado_150881" data-name="Trazado 150881" d="M-2970-10240.482v58.8" transform="translate(3626.933 11700)" fill="none" stroke="#e8e8e8" stroke-width="2" stroke-dasharray="5 5"/>
      <path id="Trazado_150882" data-name="Trazado 150882" d="M-3001.047-10181.678h58.828" transform="translate(3627.933 11700)" fill="none" stroke="#479592" stroke-width="3"/>
    </g>
    <g id="Grupo_145504" data-name="Grupo 145504" transform="translate(142.75 5627.474)">
      <path id="Trazado_150881-2" data-name="Trazado 150881" d="M-2970-10240.482v58.8" transform="translate(3626.933 11700)" fill="none" stroke="#e8e8e8" stroke-width="2" stroke-dasharray="5 5"/>
      <path id="Trazado_150882-2" data-name="Trazado 150882" d="M-3001.047-10181.678h58.828" transform="translate(3627.933 11700)" fill="none" stroke="#5bc799" stroke-width="3"/>
    </g>
    <g id="Grupo_848553" data-name="Grupo 848553" transform="translate(521.327 5627.474)">
      <path id="Trazado_150881-3" data-name="Trazado 150881" d="M-2970-10240.482v58.8" transform="translate(3626.933 11700)" fill="none" stroke="#e8e8e8" stroke-width="2" stroke-dasharray="5 5"/>
      <path id="Trazado_150882-3" data-name="Trazado 150882" d="M-3001.047-10181.678h58.828" transform="translate(3627.933 11700)" fill="none" stroke="#e9643b" stroke-width="3"/>
    </g>
    <g id="Grupo_145503" data-name="Grupo 145503" transform="translate(1640.148 8488.509) rotate(180)">
      <path id="Trazado_150881-4" data-name="Trazado 150881" d="M-2970-10240.482v58.8" transform="translate(3626.933 11700)" fill="none" stroke="#e8e8e8" stroke-width="2" stroke-dasharray="5 5"/>
      <path id="Trazado_150882-4" data-name="Trazado 150882" d="M-3001.047-10181.678h58.828" transform="translate(3627.933 11700)" fill="none" stroke="#ff997b" stroke-width="3"/>
    </g>
    <g id="Grupo_145505" data-name="Grupo 145505" transform="translate(-233.624 5627.474)">
      <path id="Trazado_150881-5" data-name="Trazado 150881" d="M-2970-10240.482v58.8" transform="translate(3626.933 11700)" fill="none" stroke="#e8e8e8" stroke-width="2" stroke-dasharray="5 5"/>
      <path id="Trazado_150882-5" data-name="Trazado 150882" d="M-3001.047-10181.678h58.828" transform="translate(3627.933 11700)" fill="none" stroke="#ff997b" stroke-width="3"/>
    </g>
    <path id="arrows-to-dot-solid" d="M13.4,3.849l.437-.436a1.487,1.487,0,0,1,2.1,2.1L12.96,8.494a1.485,1.485,0,0,1-2.1,0L7.88,5.517a1.487,1.487,0,1,1,2.1-2.1l.4.436V1.489A1.515,1.515,0,0,1,11.867,0,1.5,1.5,0,0,1,13.4,1.489ZM20.4,15.937a1.485,1.485,0,0,1-2.1,0L15.323,12.96a1.485,1.485,0,0,1,0-2.1L18.3,7.88a1.487,1.487,0,0,1,2.1,2.1l-.433.4h2.358a1.514,1.514,0,0,1,1.489,1.489,1.461,1.461,0,0,1-1.489,1.489H19.97l.433.479a1.485,1.485,0,0,1,0,2.1ZM13.4,11.908a1.489,1.489,0,1,1-1.489-1.489A1.487,1.487,0,0,1,13.4,11.908Zm-4.9-1.051a1.485,1.485,0,0,1,0,2.1L5.517,15.937a1.487,1.487,0,0,1-2.1-2.1l.436-.437H1.489a1.489,1.489,0,1,1,0-2.977h2.36l-.436-.437a1.487,1.487,0,0,1,2.1-2.1ZM7.88,20.4a1.485,1.485,0,0,1,0-2.1l2.977-2.977a1.485,1.485,0,0,1,2.1,0L15.937,18.3a1.487,1.487,0,1,1-2.1,2.1L13.4,19.97v2.358a1.489,1.489,0,0,1-2.977,0V19.97l-.437.433a1.485,1.485,0,0,1-2.1,0Z" transform="translate(788.092 6982.817)" fill="#fff"/>
    <path id="crosshairs-solid" d="M10.42,11.908A1.489,1.489,0,1,1,11.908,13.4,1.487,1.487,0,0,1,10.42,11.908ZM11.908,0A1.488,1.488,0,0,1,13.4,1.489V1.97a10.05,10.05,0,0,1,8.448,8.45h.484a1.489,1.489,0,1,1,0,2.977h-.484A10.047,10.047,0,0,1,13.4,21.845v.484a1.489,1.489,0,0,1-2.977,0v-.484A10.05,10.05,0,0,1,1.97,13.4H1.489a1.489,1.489,0,1,1,0-2.977H1.97a10.054,10.054,0,0,1,8.45-8.45V1.489A1.488,1.488,0,0,1,11.908,0ZM10.42,18.821v-.958a1.489,1.489,0,0,1,2.977,0v.958A7.074,7.074,0,0,0,18.821,13.4h-.958a1.489,1.489,0,1,1,0-2.977h.958A7.074,7.074,0,0,0,13.4,5v.958a1.489,1.489,0,0,1-2.977,0V5A7.074,7.074,0,0,0,5,10.42h.958a1.489,1.489,0,1,1,0,2.977H5A7.074,7.074,0,0,0,10.42,18.821Z" transform="translate(1163.183 6983.817)" fill="#12263f"/>
    <path id="magnifying-glass-solid" d="M23.274,20.64l-5.568-5.568a9.676,9.676,0,1,0-2.632,2.635l5.568,5.568a1.862,1.862,0,0,0,2.632-2.635ZM3.681,9.676A5.954,5.954,0,1,1,9.635,15.63,5.961,5.961,0,0,1,3.681,9.676Z" transform="translate(977.676 7113.885)" fill="#fff"/>
    <path id="star-solid" d="M40.707,6.954l6.685.986a1.488,1.488,0,0,1,.828,2.531l-4.847,4.754,1.144,6.819a1.491,1.491,0,0,1-2.168,1.563l-5.973-3.186-5.968,3.186a1.5,1.5,0,0,1-1.572-.107,1.481,1.481,0,0,1-.6-1.456l1.144-6.819-4.848-4.754a1.5,1.5,0,0,1-.367-1.526,1.48,1.48,0,0,1,1.2-1l6.679-.986,3-6.156a1.486,1.486,0,0,1,2.675,0Z" transform="translate(392.944 6984.856)" fill="#fff"/>
    <path id="users-solid" d="M14.881,14.886a4.838,4.838,0,1,0-4.8-4.838A4.8,4.8,0,0,0,14.881,14.886Zm2.326,1.489H12.564a6.415,6.415,0,0,0-6.61,6.2,1.281,1.281,0,0,0,1.321,1.242H22.5a1.281,1.281,0,0,0,1.321-1.242A6.415,6.415,0,0,0,17.207,16.374Zm6.61-8.931A3.721,3.721,0,1,0,20.1,3.721,3.722,3.722,0,0,0,23.817,7.443Zm-15.262,2.6a6.2,6.2,0,0,1,.075-.74,3.369,3.369,0,0,0-1.656-.376H4.1A4.225,4.225,0,0,0,0,13.271a.847.847,0,0,0,.82.87H10.1A6.266,6.266,0,0,1,8.555,10.048Zm-2.6-2.6A3.721,3.721,0,1,0,2.233,3.721,3.722,3.722,0,0,0,5.954,7.443ZM25.673,8.931H22.8a3.879,3.879,0,0,0-1.668.383,6.373,6.373,0,0,1,.074.733,6.271,6.271,0,0,1-1.543,4.094h9.29a.847.847,0,0,0,.822-.87A4.224,4.224,0,0,0,25.673,8.931Z" transform="translate(600.47 7117.664)" fill="#12263f"/>
  </g>
</svg>
