<svg xmlns="http://www.w3.org/2000/svg" xmlns:xlink="http://www.w3.org/1999/xlink" width="48.634" height="48.613" viewBox="0 0 48.634 48.613">
  <defs>
    <clipPath id="clip-path">
      <rect id="Rectángulo_281490" data-name="Rectángulo 281490" width="48.634" height="48.613" fill="#fc5a2a"/>
    </clipPath>
  </defs>
  <g id="Grupo_848474" data-name="Grupo 848474" clip-path="url(#clip-path)">
    <path id="Trazado_590455" data-name="Trazado 590455" d="M22.741,3.22h3.051a16.442,16.442,0,0,1,1.477-1.677,6.25,6.25,0,0,1,9.783,2.093,1.1,1.1,0,0,0,.614.544c.752.373,1.458.839,2.193,1.249a1,1,0,0,0,.586.164,5.493,5.493,0,0,1,6.6,5.622c-.019.514-.316,1.07-.188,1.523.123.435.679.728.963,1.14a4.641,4.641,0,0,1-.58,5.926c-.208.206-.437.39-.615.547a15.07,15.07,0,0,1,.411,2.076,5.54,5.54,0,0,1-5.377,5.8c-.767.027-1.536,0-2.3.012-.638.007-.92.291-.925.935-.006.715,0,1.431,0,2.182h3.922c0,.207,0,.378,0,.549A27.723,27.723,0,0,0,46.47,46.668a.7.7,0,0,0,.731.41c.453-.033.91-.008,1.4-.008v1.542H.02V47.071c.5,0,1,.017,1.5-.01a.539.539,0,0,0,.407-.224,75.3,75.3,0,0,0,3.372-8.5,29.615,29.615,0,0,0,.979-8.583c-.011-.486,0-.973,0-1.5h3.891c.012-.172.03-.312.03-.452q0-1.544,0-3.088c0-.972-.208-1.189-1.17-1.183a4.943,4.943,0,0,1-4.266-2.081A4.639,4.639,0,0,1,3.9,18.772,4.924,4.924,0,0,1,1.247,17.3,4.691,4.691,0,0,1,3.384,9.617a.785.785,0,0,0,.683-.7,6.235,6.235,0,0,1,6.968-4.924c.24.032.374.007.491-.244A6,6,0,0,1,16.865.027a6.037,6.037,0,0,1,5.841,3.146c.025.041.059.076.036.047M39.568,7.557a4.052,4.052,0,0,0-2.982-2.021.723.723,0,0,1-.72-.6,4.687,4.687,0,0,0-8.85-.412c-.1.249-.206.5-.329.8A5.064,5.064,0,0,0,21.924,5.3c-.815-2.394-2.357-3.845-4.908-3.7-2.668.147-4.046,1.84-4.541,4.419a4.824,4.824,0,0,0-5.011.357A4.873,4.873,0,0,0,5.49,10.986a3.775,3.775,0,0,0-2.7.654A3.082,3.082,0,0,0,1.569,14.1,3.034,3.034,0,0,0,2.36,16.2a3.679,3.679,0,0,0,3.366,1.031c-.06.343-.107.627-.159.91a3.1,3.1,0,0,0,2.29,3.681,7.208,7.208,0,0,0,1.554.138,2.364,2.364,0,0,1,2.32,2,7.323,7.323,0,0,1,.031,1.076c0,1.056,0,2.113,0,3.17h4.707c0-.753,0-1.47,0-2.188a2.355,2.355,0,0,1,2.5-2.483c1.291,0,2.582.016,3.872-.007a4.7,4.7,0,0,0,4.487-3.637c.078-.343.111-.7.163-1.039H29.04a6.409,6.409,0,0,1-4.808,6.1,3.519,3.519,0,0,0,2.408,1.6,23.751,23.751,0,0,0,2.882.108,2.391,2.391,0,0,1,2.635,2.645c0,.68,0,1.359,0,2.027h4.707c0-.774-.006-1.509,0-2.244a2.349,2.349,0,0,1,2.409-2.423c.768-.008,1.538.03,2.3-.014a3.943,3.943,0,0,0,3.484-2.18,3.736,3.736,0,0,0-.287-3.991c-.158-.241-.32-.479-.514-.769,1.519-.484,2.647-1.321,2.78-2.979.135-1.674-.834-2.7-2.285-3.369,1.007-1.782,1.092-3.5-.312-5.028a3.9,3.9,0,0,0-4.876-.788M7.368,36.108c-.561,3.907-2.322,7.355-3.816,10.941H24.684c-1.511-3.595-3.264-7.059-3.828-10.941ZM44.9,47.071A29.453,29.453,0,0,1,41.064,36.11H27.976c-.018.1-.034.172-.046.25a29.885,29.885,0,0,1-1.765,6.556,5.563,5.563,0,0,0-.693,1.85,6.446,6.446,0,0,0,.719,1.851.632.632,0,0,0,.718.464q8.7-.021,17.4-.01ZM22.005,28.239A29.029,29.029,0,0,0,24.56,42.706a28.092,28.092,0,0,0,2.108-11.339h3.922c0-.771.006-1.488,0-2.205-.007-.634-.3-.912-.943-.918s-1.275-.006-1.912,0a5.5,5.5,0,0,1-5.1-2.883.523.523,0,0,0-.356-.244c-1.16-.017-2.32-.021-3.48,0a.7.7,0,0,0-.742.7c-.034.794-.01,1.59-.01,2.421ZM7.637,34.491H20.595l-.146-1.51H7.778l-.141,1.51m33.146-1.51H28.241l-.1,1.51H40.886l-.1-1.51M20.369,29.845H7.88v1.51h12.49Z" transform="translate(0 0)" fill="#fc5a2a"/>
    <path id="Trazado_590456" data-name="Trazado 590456" d="M179.918,64.607a17.359,17.359,0,0,1-.136,2.24,3.083,3.083,0,0,1-3.345,2.455,3.144,3.144,0,0,1-2.826-3.056q-.03-1.639,0-3.28a3.133,3.133,0,0,1,6.264-.025c.016.554,0,1.11,0,1.664l.041,0m-1.608.019c0-.523.01-1.046,0-1.568a1.565,1.565,0,1,0-3.131-.016q-.022,1.568,0,3.136a1.565,1.565,0,0,0,3.129.016c.016-.522,0-1.045,0-1.568" transform="translate(-150.86 -52.055)" fill="#fc5a2a"/>
    <path id="Trazado_590457" data-name="Trazado 590457" d="M119.947,63.018h-1.509c-.041-.153-.075-.308-.124-.458a1.569,1.569,0,0,0-1.666-1.083,1.551,1.551,0,0,0-1.379,1.483q-.036,1.64,0,3.281a1.559,1.559,0,0,0,3.058.373c.042-.136.072-.276.11-.423H119.9a2.988,2.988,0,0,1-2.281,3.017,3.134,3.134,0,0,1-3.926-2.983c-.02-1.11-.027-2.221,0-3.33a3.124,3.124,0,0,1,6.246.123" transform="translate(-98.79 -52.055)" fill="#fc5a2a"/>
    <path id="Trazado_590458" data-name="Trazado 590458" d="M235.456,102.114h1.96v1.537h-3.883c0-.572-.019-1.139.013-1.7a.81.81,0,0,1,.267-.432c.824-.838,1.667-1.658,2.482-2.5a1.366,1.366,0,0,0,.359-.663.78.78,0,0,0-.707-.935.791.791,0,0,0-.842.816c-.011.226,0,.454,0,.714h-1.512a2.445,2.445,0,0,1,2.143-3.1A2.362,2.362,0,0,1,238,97.172a2.469,2.469,0,0,1-.389,2.74c-.565.61-1.17,1.184-1.757,1.775-.111.112-.217.23-.4.426" transform="translate(-202.944 -83.287)" fill="#fc5a2a"/>
    <path id="Trazado_590459" data-name="Trazado 590459" d="M57.205,55.68a1.666,1.666,0,0,0-1.57,1.567H54.127a3.032,3.032,0,0,1,3.078-3.072Z" transform="translate(-47.035 -47.075)" fill="#fc5a2a"/>
    <path id="Trazado_590460" data-name="Trazado 590460" d="M242.777,27.355h-1.52a1.681,1.681,0,0,0-1.581-1.576V24.3a3.017,3.017,0,0,1,3.1,3.052" transform="translate(-208.285 -21.1)" fill="#fc5a2a"/>
  </g>
</svg>
