<svg id="Grupo_848749" data-name="Grupo 848749" xmlns="http://www.w3.org/2000/svg" xmlns:xlink="http://www.w3.org/1999/xlink" width="302.626" height="161.5" viewBox="0 0 302.626 161.5">
  <defs>
    <clipPath id="clip-path">
      <rect id="Rect치ngulo_281771" data-name="Rect치ngulo 281771" width="302.626" height="161.5" fill="none"/>
    </clipPath>
  </defs>
  <g id="Grupo_848633" data-name="Grupo 848633" transform="translate(0 0)" clip-path="url(#clip-path)">
    <path id="Trazado_590616" data-name="Trazado 590616" d="M128.366,49.809l.375.138c.451,25.711.668,55.313.72,87.739h-1.632c.468-32.647.89-64.607.537-87.877" transform="translate(56.307 21.94)" fill="#823c3c"/>
    <path id="Trazado_590617" data-name="Trazado 590617" d="M131.486,81.411c-3.029-10.448-9.725-13.376-9.792-13.4l.019-.254c.071.024,6.947,2.119,10.055,12.839Z" transform="translate(53.604 29.846)" fill="#823c3c"/>
    <path id="Trazado_590618" data-name="Trazado 590618" d="M128.64,76.829c2.172-8.35,6.972-10.691,7.021-10.711l-.013-.2c-.05.022-4.981,1.7-7.21,10.263Z" transform="translate(56.575 29.034)" fill="#823c3c"/>
    <path id="Trazado_590619" data-name="Trazado 590619" d="M128.678,64.956c2.172-8.35,6.972-10.691,7.021-10.711l-.013-.2c-.05.022-4.981,1.7-7.21,10.263Z" transform="translate(56.592 23.804)" fill="#823c3c"/>
    <path id="Trazado_590620" data-name="Trazado 590620" d="M129.99,68.158c-1.688-7.414-5.422-9.1-5.459-9.117l.01-.186c.039.014,3.873,1.083,5.606,8.69Z" transform="translate(54.854 25.925)" fill="#823c3c"/>
    <path id="Trazado_590621" data-name="Trazado 590621" d="M81.374,72.974l-.246-.073c-.886,16.005-.3,34.43-.4,54.613h2.19c-1.534-20.088-2.24-40.056-1.546-54.54" transform="translate(35.517 32.112)" fill="#823c3c"/>
    <path id="Trazado_590622" data-name="Trazado 590622" d="M81.063,89.584c2.5-7.845,8.044-10.3,8.1-10.318l-.014-.187C89.09,79.1,83.4,80.946,80.83,89Z" transform="translate(35.604 34.833)" fill="#823c3c"/>
    <path id="Trazado_590623" data-name="Trazado 590623" d="M83.173,86.385a11.59,11.59,0,0,0-7.859-7.594l.013-.109a11.508,11.508,0,0,1,8.036,7.086Z" transform="translate(33.175 34.658)" fill="#823c3c"/>
    <path id="Trazado_590624" data-name="Trazado 590624" d="M81.009,80.432c1.7-5.723,5.436-7.2,5.475-7.215l-.01-.141c-.039.013-3.872,1.026-5.621,6.9Z" transform="translate(35.615 32.188)" fill="#823c3c"/>
    <path id="Trazado_590625" data-name="Trazado 590625" d="M82.688,82.7c5.726-1.7,9.007.617,9.038.641l.114-.085c-.033-.026-2.979-2.682-8.853-.936Z" transform="translate(36.423 35.999)" fill="#823c3c"/>
    <path id="Trazado_590626" data-name="Trazado 590626" d="M82.5,83.138c-1.785-7.527-4.961-9.366-5.349-9.712l.109-.115a14.159,14.159,0,0,1,5.294,8.415Z" transform="translate(33.984 32.292)" fill="#823c3c"/>
    <path id="Trazado_590627" data-name="Trazado 590627" d="M134.891,119.029c-25.708-19.108-24.576-32.47-11.377-39.685-4.506-.133-13.643-7.75,9.846-31.8,0,0-5.431-8.018,11.677-20.845,0,0,7.764,27.124-1.288,33.138,0,0,9.944,13.228,3.554,19.375,9.367-3.608,10.25,11.275-12.411,39.818" transform="translate(50.372 11.76)" fill="#ada62d"/>
    <path id="Trazado_590628" data-name="Trazado 590628" d="M147.3,68.385c4.754-4.572.47-13.058-2.037-17.109C137.159,62.363,126.919,68.421,119,65.818a5.725,5.725,0,0,0,4.513,2.7c-13.2,7.215-14.331,20.577,11.377,39.684,22.663-28.543,21.78-43.426,12.413-39.818" transform="translate(50.372 22.586)" fill="#9e9528"/>
    <path id="Trazado_590629" data-name="Trazado 590629" d="M155.687,23.475c-31.8-2.833-27.4,1.574-27.4,1.574s-19.838-7.558-34.639-7.872S78.85,24.1,78.85,24.1,60.586,8.989,30.67,12.767s-30.86,24.877-.945,33.065S151.908,13.083,232.208,36.7l.629-1.26s-45.346-9.133-77.151-11.966" transform="translate(3.416 5.357)" fill="#906f93"/>
    <path id="Trazado_590630" data-name="Trazado 590630" d="M155.625,20.257c.248,6.595-27.4,1.574-27.4,1.574s-1-.382-2.718-.975a3.862,3.862,0,0,1,.732,2.905c-.982,4.68-13.375,6.043-27.68,3.042-8.1-1.7-15.08-4.435-19.431-7.338a4.166,4.166,0,0,0-.343,1.42s-.447-.369-1.314-.978a7.9,7.9,0,0,1,.909,4.69c-1.258,9.076-20.335,13.934-42.611,10.847C24.621,33.9,14.784,30.66,7.9,26.668c1.252,6.1,8.448,12.3,21.767,15.946C59.579,50.8,151.847,9.865,232.146,33.483l.629-1.26s-45.346-9.133-77.151-11.966" transform="translate(3.478 8.574)" fill="#785c7c"/>
    <path id="Trazado_590631" data-name="Trazado 590631" d="M163.547,54.369l.619-.285c.235,23.183.073,49.872-.373,79.109h-2.341c1.2-29.435,2.228-57.843,2.094-78.823" transform="translate(71.118 23.823)" fill="#823c3c"/>
    <path id="Trazado_590632" data-name="Trazado 590632" d="M158.162,120.617c-9.294-46.47-9.157-94.955,8.232-93.564,5.019.4,11.645,6.224,13.451,27.708,0,0,6.328-3.876,10.441,1.2,6.828,8.433-3.011,57.423-13.451,67.062-8.388,7.741-17.067,5.621-18.673-2.41" transform="translate(66.963 11.904)" fill="#ada62d"/>
    <path id="Trazado_590633" data-name="Trazado 590633" d="M178.514,78.234c-10.441,1.551-21.269-13.11-24.186-32.745a67.382,67.382,0,0,1-.655-6.737c-3.434,17.963-1.307,47.722,4.489,76.7,1.606,8.031,10.285,10.151,18.673,2.408,8.8-8.127,17.179-44.237,15.5-60.414-1.6,11.41-6.7,19.73-13.816,20.788" transform="translate(66.963 17.07)" fill="#9e9528"/>
    <path id="Trazado_590634" data-name="Trazado 590634" d="M61.628,111.922a9.98,9.98,0,1,0-19.8,0Z" transform="translate(18.391 44.367)" fill="#ada62d"/>
    <path id="Trazado_590635" data-name="Trazado 590635" d="M154.2,110.2a4.95,4.95,0,1,0-9.818,0Z" transform="translate(63.579 46.093)" fill="#ada62d"/>
    <path id="Trazado_590636" data-name="Trazado 590636" d="M171.335,112.98a11.135,11.135,0,0,0,.089-1.341,10.981,10.981,0,1,0-21.962,0,10.848,10.848,0,0,0,.091,1.341Z" transform="translate(65.836 44.338)" fill="#ada62d"/>
    <path id="Trazado_590637" data-name="Trazado 590637" d="M181.474,110.693a6.4,6.4,0,1,0-12.691,0Z" transform="translate(74.324 45.596)" fill="#ada62d"/>
    <path id="Trazado_590638" data-name="Trazado 590638" d="M125.024,110.535a6.072,6.072,0,0,0,.049-.729,5.967,5.967,0,0,0-11.934,0,6.072,6.072,0,0,0,.049.729Z" transform="translate(49.836 45.74)" fill="#ada62d"/>
    <path id="Trazado_590639" data-name="Trazado 590639" d="M138.122,110.229a4.974,4.974,0,1,0-9.864,0Z" transform="translate(56.477 46.096)" fill="#c1bd3a"/>
    <path id="Trazado_590640" data-name="Trazado 590640" d="M220.258,115.941a20.621,20.621,0,0,0,.187-2.649c0-11.981-10.265-21.692-22.927-21.692s-22.928,9.712-22.928,21.692a20.626,20.626,0,0,0,.189,2.649Z" transform="translate(76.904 40.348)" fill="#c1bd3a"/>
    <path id="Trazado_590641" data-name="Trazado 590641" d="M215.294,113.292c0-11.979-10.265-21.691-22.928-21.691a24.388,24.388,0,0,0-4.081.349,5.3,5.3,0,0,0-1.858,2.757c-1.573,6.16,10.013,14.435,25.877,18.484q1.5.382,2.967.7c.007-.2.023-.395.023-.595" transform="translate(82.055 40.349)" fill="#d6ce43"/>
    <path id="Trazado_590642" data-name="Trazado 590642" d="M45.21,109.788a3.467,3.467,0,0,0,.033-.46,3.98,3.98,0,0,0-7.947,0,3.467,3.467,0,0,0,.033.46Z" transform="translate(16.428 46.502)" fill="#ada62d"/>
    <path id="Trazado_590643" data-name="Trazado 590643" d="M46.593,112.687A11.585,11.585,0,0,0,46.7,111.2c0-6.741-5.776-12.207-12.9-12.207S20.9,104.454,20.9,111.2A11.584,11.584,0,0,0,21,112.687Z" transform="translate(9.204 43.603)" fill="#c1bd3a"/>
    <path id="Trazado_590644" data-name="Trazado 590644" d="M33.471,98.99a12.939,12.939,0,0,0-11.835,7.352,47.725,47.725,0,0,0,9.941,1.821,41.52,41.52,0,0,0,14.062-.994A12.865,12.865,0,0,0,33.471,98.99" transform="translate(9.53 43.604)" fill="#ddd540"/>
    <path id="Trazado_590645" data-name="Trazado 590645" d="M66.21,110.774a6.551,6.551,0,0,0,.055-.811,6.634,6.634,0,0,0-13.268,0,6.845,6.845,0,0,0,.053.811Z" transform="translate(23.344 45.515)" fill="#9e952a"/>
    <path id="Trazado_590646" data-name="Trazado 590646" d="M61.565,112.023c-14.657,6.826-31.924.2-32.126-11.645S41.688,80.3,41.688,80.3,31.649,68.654,56.747,60.824,81.041,73.674,74.014,79.3A1.173,1.173,0,0,1,75.286,80.5c0,1.271-1.808,2.275-1.808,2.275s4.886,1.406,4.886,4.216a2.857,2.857,0,0,1-.736,2.21s6.752,2.347,5.822,7.763c-2.911,16.966-21.885,15.059-21.885,15.059" transform="translate(12.967 26.022)" fill="#c1bd3a"/>
    <path id="Trazado_590647" data-name="Trazado 590647" d="M51.96,83.006A40.23,40.23,0,0,1,40.021,71.524a9.348,9.348,0,0,0,1.667,3.293S29.239,83.048,29.441,94.894s17.467,18.471,32.124,11.645c0,0,18.974,1.907,21.885-15.057a5.653,5.653,0,0,0-1.429-4.83c-8.368,3.833-19.827,2.793-30.061-3.646" transform="translate(12.967 31.505)" fill="#b2ac3d"/>
    <path id="Trazado_590648" data-name="Trazado 590648" d="M50.8,79.411l-.349-.164c.068,13.326.386,28.667.887,45.472h1.308C51.724,107.8,50.9,91.471,50.8,79.411" transform="translate(22.222 34.907)" fill="#823c3c"/>
    <path id="Trazado_590649" data-name="Trazado 590649" d="M188.557,103.9c-12.95,1.505-16.865-7.429-16.564-15.059s6.124-13.653,6.124-13.653-1.505-5.923,7.028-7.931c0,0-4.82-15.259,7.027-16.162s15.36,18.974,12.449,23.29c0,0,3.212-.2,3.714,2.711s-2.409,6.123-2.409,6.123,3.915-1.806,6.726,2.812c3.4,5.592-4.952,22.855-24.094,17.869" transform="translate(75.753 22.494)" fill="#ada62d"/>
    <path id="Trazado_590650" data-name="Trazado 590650" d="M205.841,80.175a5.585,5.585,0,0,0,.484-3.077c-.5-2.911-3.714-2.71-3.714-2.71,2.911-4.317-.6-24.194-12.449-23.291s-7.027,16.162-7.027,16.162c-4.055.955-5.841,2.792-6.6,4.458,2.015,9.123,8.621,15.815,16.466,15.815,5.117,0,9.7-2.849,12.839-7.358" transform="translate(77.762 22.494)" fill="#c1bd3a"/>
    <path id="Trazado_590651" data-name="Trazado 590651" d="M85.307,109.666c-12.961,1.671-16.813-8.24-16.458-16.7s6.221-15.142,6.221-15.142-1.464-6.57,7.084-8.8c0,0-4.71-16.924,7.142-17.927s15.224,21.044,12.283,25.831a3.475,3.475,0,0,1,3.695,3.008c.481,3.228-2.453,6.79-2.453,6.79s3.928-2,6.705,3.119c3.365,6.2-5.115,25.348-24.22,19.818" transform="translate(30.318 22.494)" fill="#c1bd3a"/>
    <path id="Trazado_590652" data-name="Trazado 590652" d="M87.1,91.991c7.238,0,13.605-4.232,17.306-10.637a5.356,5.356,0,0,0-.007-1.416c-.481-3.23-6.131-1.77-6.131-1.77,2.943-4.788,2.005-28.069-9.847-27.068s-4.813,20.389-4.813,20.389c-10.425-2.606-9.414,6.334-9.414,6.334a28.5,28.5,0,0,0-3.375,5.151c3.791,5.488,9.671,9.017,16.28,9.017" transform="translate(31.194 22.495)" fill="#cec745"/>
    <path id="Trazado_590653" data-name="Trazado 590653" d="M111.717,116.053C97.4,114.944,92.5,103.583,97.595,102.474c0,0-11.619-33.117,10.771-40.322S123.8,82.106,123.8,82.106s2.28-1.247,3.866,3.048-6.5,15.1-6.5,15.1c5.079,1.386,1.684,11.639-9.447,15.8" transform="translate(41.661 26.841)" fill="#c1bd3a"/>
    <path id="Trazado_590654" data-name="Trazado 590654" d="M121.163,93.791s6.5-8.692,6.7-13.584c-3.13,8.107-9.078,13.585-15.9,13.585-8.048,0-14.874-7.613-17.3-18.176-.608,10.269,2.941,20.392,2.941,20.392-5.092,1.109-.194,12.472,14.123,13.579,11.131-4.157,14.526-14.411,9.447-15.8" transform="translate(41.662 33.308)" fill="#b2ac3d"/>
    <path id="Trazado_590655" data-name="Trazado 590655" d="M105.953,79.774l.251.157c.451,13.057.67,28.089.72,44.556H105.6c.468-16.579.7-32.9.35-44.713" transform="translate(46.517 35.139)" fill="#823c3c"/>
    <path id="Trazado_590656" data-name="Trazado 590656" d="M187.908,73.006l-.556-.105c-.886,16.005-.3,34.43-.4,54.613h2.19a469.209,469.209,0,0,1-1.236-54.508" transform="translate(82.307 32.112)" fill="#823c3c"/>
    <path id="Trazado_590657" data-name="Trazado 590657" d="M104.854,59.807c-12.717,1.94-19.007-1.138-19.877-4.417s4.55-6.358,4.55-6.358-5.354.2-7.362-3.08c0,0-6.425,2.008-7.227-6.291S92.984,7.195,124.764,16.673c5.723,1.706,7.228,21.383-3.513,26.1,0,0,1.2.3,1.2,1.305s-1.606,1.909-1.606,1.909a2.562,2.562,0,0,1,.7,2.408c-.6,1.907-4.115,1.808-4.115,1.808,4.718,4.919-1.808,11.845-12.583,9.6" transform="translate(32.998 6.389)" fill="#c1bd3a"/>
    <path id="Trazado_590658" data-name="Trazado 590658" d="M125.409,38.083c-.811.278-1.629.55-2.463.808-19.383,5.984-37.654,3.884-40.81-4.693-1.812-4.922,1.755-10.9,8.778-16.241-10.706,5.9-16.426,15.534-15.976,20.184.8,8.3,7.228,6.292,7.228,6.292,2.008,3.279,7.362,3.078,7.362,3.078s-5.422,3.078-4.552,6.358,7.162,6.357,19.877,4.417c10.776,2.241,17.3-4.684,12.583-9.6,0,0,3.513.1,4.115-1.808a2.562,2.562,0,0,0-.7-2.408s1.606-.9,1.606-1.907-1.206-1.305-1.206-1.305a11.268,11.268,0,0,0,4.159-3.171" transform="translate(32.998 7.91)" fill="#ada62d"/>
    <path id="Trazado_590659" data-name="Trazado 590659" d="M94.172,33.483l.674.318c-.9,28.193.029,77.361,1.487,111.076H92.857c1.747-38.339.612-85.173,1.315-111.394" transform="translate(40.902 14.749)" fill="#823c3c"/>
    <path id="Trazado_590660" data-name="Trazado 590660" d="M153.076,118.695c-21.417-6.157-31.858-30.384-1.874-57.424L149.06,51.9s45.243,32.394,26.1,48.456c5.89,6.023-5.331,18.643-22.086,18.337" transform="translate(58.405 22.862)" fill="#c1bd3a"/>
    <path id="Trazado_590661" data-name="Trazado 590661" d="M148.456,51.9l2.142,9.37c-8.732,7.874-14.03,15.51-16.633,22.531a46.178,46.178,0,0,0,3.814,4.5c12.06,12.522,28.706,16.056,37.18,7.892a15.486,15.486,0,0,0,4.2-7.329c-2.076-16.471-30.7-36.967-30.7-36.967" transform="translate(59.01 22.862)" fill="#cec745"/>
    <path id="Trazado_590662" data-name="Trazado 590662" d="M149.453,74.624l.426-.189c.449,15.357.667,33.038.717,52.4H148.97c.467-19.5.834-38.317.483-52.215" transform="translate(65.619 32.788)" fill="#823c3c"/>
    <path id="Trazado_590663" data-name="Trazado 590663" d="M240.429,16.635a19.1,19.1,0,0,0-17-.472,12.711,12.711,0,0,0-11.573-6.613c-8.5,0-17,7.558-17,7.558s-8.5,0-20.311,5.9-35.9,13.225-54.321,12.518l-.472.707c34.719-1.416,73.772,21.721,111,4.723,10.864-4.96,18.893-19.6,9.683-24.325" transform="translate(52.745 4.206)" fill="#906f93"/>
    <path id="Trazado_590664" data-name="Trazado 590664" d="M217.205,31.6c-2.371-10.076,6.219-17.012,6.219-17.012a9.448,9.448,0,0,0-.916-1.458c-4.687,9.189-25.377,17.643-50.825,20.014a125.9,125.9,0,0,1-31.866-.8,93.952,93.952,0,0,1-19.6,1.613l-.471.709c34.717-1.417,73.77,21.721,111,4.723-6.046-.13-12.235-2.247-13.539-7.786" transform="translate(52.745 5.783)" fill="#785c7c"/>
    <path id="Trazado_590665" data-name="Trazado 590665" d="M77.021,111.564a9.1,9.1,0,0,0,.073-1.092,8.936,8.936,0,0,0-17.872,0,9.1,9.1,0,0,0,.072,1.092Z" transform="translate(26.086 44.726)" fill="#9e952a"/>
    <path id="Trazado_590666" data-name="Trazado 590666" d="M103.6,110.693a6.4,6.4,0,1,0-12.691,0Z" transform="translate(40.023 45.596)" fill="#9e952a"/>
    <path id="Trazado_590667" data-name="Trazado 590667" d="M120.8,112.558a8.8,8.8,0,0,0,.089-1.191c0-5.386-4.916-9.752-10.981-9.752s-10.981,4.366-10.981,9.752a8.8,8.8,0,0,0,.089,1.191Z" transform="translate(43.578 44.76)" fill="#c1bd3a"/>
    <path id="Trazado_590668" data-name="Trazado 590668" d="M109.9,101.615c-5.807,0-10.549,4.006-10.942,9.075a34.719,34.719,0,0,0,8.954-1.361,29.819,29.819,0,0,0,10.052-4.565,11.6,11.6,0,0,0-8.064-3.149" transform="translate(43.59 44.76)" fill="#d6ce43"/>
    <path id="Trazado_590669" data-name="Trazado 590669" d="M104.611,114.721a17.567,17.567,0,0,0,.156-2.215c0-10.016-8.582-18.136-19.17-18.136s-19.17,8.12-19.17,18.136a17.3,17.3,0,0,0,.157,2.215Z" transform="translate(29.26 41.569)" fill="#b5af37"/>
    <path id="Trazado_590670" data-name="Trazado 590670" d="M96.792,97.9A19.818,19.818,0,0,0,85.428,94.37c-9.007,0-16.56,5.879-18.614,13.8,4.519,1.688,11.134,1.353,17.75-1.319A28.28,28.28,0,0,0,96.792,97.9" transform="translate(29.431 41.569)" fill="#d6ce43"/>
    <path id="Trazado_590671" data-name="Trazado 590671" d="M80.54,112.219c1.8-8.065,9.432-12.119,9.514-12.158l-.088-.154c-.085.04-8.051,3.617-9.9,11.769Z" transform="translate(35.267 44.008)" fill="#823c3c"/>
    <path id="Trazado_590672" data-name="Trazado 590672" d="M82.318,112.65a17.179,17.179,0,0,0-7.8-13.371l.086-.209a15.446,15.446,0,0,1,8.253,12.96Z" transform="translate(32.823 43.639)" fill="#823c3c"/>
    <path id="Trazado_590673" data-name="Trazado 590673" d="M83.58,107.966c-4.559-5.194-12.185-3.217-12.261-3.2l-.013-.163c.078-.02,7.731-2.2,12.469,2.725Z" transform="translate(31.409 45.859)" fill="#823c3c"/>
    <path id="Trazado_590674" data-name="Trazado 590674" d="M78.7,105.469a11.479,11.479,0,0,1,6.141-7.359l-.039-.117a10.511,10.511,0,0,0-6.4,7.123Z" transform="translate(34.532 43.164)" fill="#823c3c"/>
    <path id="Trazado_590675" data-name="Trazado 590675" d="M30.352,110.9a12.807,12.807,0,0,0-5.817-7.836l.053-.1a11.833,11.833,0,0,1,6.056,7.586Z" transform="translate(10.807 45.352)" fill="#823c3c"/>
    <path id="Trazado_590676" data-name="Trazado 590676" d="M28.957,111.174a11.108,11.108,0,0,1,4.769-8.617l-.053-.135a9.929,9.929,0,0,0-5.046,8.353Z" transform="translate(12.61 45.115)" fill="#823c3c"/>
    <path id="Trazado_590677" data-name="Trazado 590677" d="M28.957,108.155c2.787-3.348,7.45-2.073,7.5-2.06l.009-.105c-.049-.013-4.728-1.417-7.624,1.757Z" transform="translate(12.702 46.546)" fill="#823c3c"/>
    <path id="Trazado_590678" data-name="Trazado 590678" d="M30.816,106.545a7.265,7.265,0,0,0-3.754-4.744l.023-.075A6.61,6.61,0,0,1,31,106.318Z" transform="translate(11.92 44.809)" fill="#823c3c"/>
    <rect id="Rect치ngulo_281770" data-name="Rect치ngulo 281770" width="272.527" height="6.157" transform="translate(30.099 155.343)" fill="#c1bd3a"/>
    <path id="Trazado_590679" data-name="Trazado 590679" d="M153.741,99.2c-4.346-9.36-13.953-11.985-14.049-12.006l.026-.228c.1.023,9.968,1.9,14.426,11.5Z" transform="translate(61.532 38.308)" fill="#823c3c"/>
    <path id="Trazado_590680" data-name="Trazado 590680" d="M150.054,95.9a17.3,17.3,0,0,1,10.073-9.6l-.019-.182a15.6,15.6,0,0,0-10.344,9.195Z" transform="translate(65.969 37.934)" fill="#823c3c"/>
    <path id="Trazado_590681" data-name="Trazado 590681" d="M151.367,87.482a9.381,9.381,0,0,0-5.87-5.593l.012-.114a8.422,8.422,0,0,1,6.027,5.331Z" transform="translate(64.089 36.021)" fill="#823c3c"/>
    <path id="Trazado_590682" data-name="Trazado 590682" d="M109.021,98.689a16.428,16.428,0,0,0-9.792-8.368l.019-.158A14.985,14.985,0,0,1,109.3,98.181Z" transform="translate(43.709 39.715)" fill="#823c3c"/>
    <path id="Trazado_590683" data-name="Trazado 590683" d="M106.176,96.11a12.057,12.057,0,0,1,7.021-6.688l-.013-.127a10.874,10.874,0,0,0-7.21,6.409Z" transform="translate(46.68 39.333)" fill="#823c3c"/>
    <path id="Trazado_590684" data-name="Trazado 590684" d="M107.248,90.207a6.539,6.539,0,0,0-4.091-3.9l.007-.081a5.874,5.874,0,0,1,4.2,3.716Z" transform="translate(45.439 37.982)" fill="#823c3c"/>
    <path id="Trazado_590685" data-name="Trazado 590685" d="M51.157,100.366C54.3,88.363,62.416,84.236,62.5,84.2l-.036-.279c-.086.037-8.48,3.261-11.7,15.576Z" transform="translate(22.359 36.966)" fill="#823c3c"/>
    <path id="Trazado_590686" data-name="Trazado 590686" d="M54.832,95.02A19.052,19.052,0,0,0,41.278,83.228l.012-.182a18.925,18.925,0,0,1,13.8,10.943Z" transform="translate(18.182 36.581)" fill="#823c3c"/>
    <path id="Trazado_590687" data-name="Trazado 590687" d="M50.776,85.543c2.913-10.969,8.306-12.29,8.368-12.313L59.115,73c-.063.024-6.268,2.017-8.633,11.806Z" transform="translate(22.237 32.155)" fill="#823c3c"/>
    <path id="Trazado_590688" data-name="Trazado 590688" d="M53.269,89.783c8.456-3.011,13.559.219,13.608.254l.163-.137c-.05-.036-4.677-3.8-13.353-.712Z" transform="translate(23.464 38.75)" fill="#823c3c"/>
    <path id="Trazado_590689" data-name="Trazado 590689" d="M53.562,89.594c-2.4-11.4-8.873-14.828-9.539-15.363l.169-.2A23.275,23.275,0,0,1,53.6,87.391Z" transform="translate(19.391 32.61)" fill="#823c3c"/>
    <path id="Trazado_590690" data-name="Trazado 590690" d="M97.569,48.328c-3.054-9.853-11.927-15.3-12.038-15.36l.053-.252c.112.065,9.173,4.866,12.261,14.872Z" transform="translate(37.675 14.411)" fill="#823c3c"/>
    <path id="Trazado_590691" data-name="Trazado 590691" d="M94.2,38.321c2.2-8.647,8.267-10.673,8.33-10.7l-.039-.169a14.732,14.732,0,0,0-8.6,9.847Z" transform="translate(41.359 12.094)" fill="#823c3c"/>
    <path id="Trazado_590692" data-name="Trazado 590692" d="M93.941,42.665c4.869-7.79,12.073-7.648,12.148-7.652l.01-.173A16.233,16.233,0,0,0,93.928,41.6Z" transform="translate(41.374 15.346)" fill="#823c3c"/>
    <path id="Trazado_590693" data-name="Trazado 590693" d="M95.5,36.522c-1.67-5.253-5.435-6.077-5.474-6.085l.01-.108a7.949,7.949,0,0,1,5.693,5.034Z" transform="translate(39.657 13.359)" fill="#823c3c"/>
    <path id="Trazado_590694" data-name="Trazado 590694" d="M95.909,39.894c3.335-4.389,1.841-7.943,1.825-7.979l.094-.053a7.953,7.953,0,0,1-.84,7.552Z" transform="translate(42.246 14.035)" fill="#823c3c"/>
    <path id="Trazado_590695" data-name="Trazado 590695" d="M97.613,36.51a10.16,10.16,0,0,1,6.911.81l.091-.048a9.381,9.381,0,0,0-6.243-1.177Z" transform="translate(42.997 15.851)" fill="#823c3c"/>
    <path id="Trazado_590696" data-name="Trazado 590696" d="M93.295,38.022c-3.75-2.746-8.881-1.688-8.937-1.674l-.092-.12c.058-.014,4.955-1.734,8.879,1.21Z" transform="translate(37.118 15.733)" fill="#823c3c"/>
    <path id="Trazado_590697" data-name="Trazado 590697" d="M190.9,92.2c-3.054-9.853-11.927-15.3-12.038-15.36l.053-.252c.112.065,9.173,4.866,12.261,14.872Z" transform="translate(78.784 33.737)" fill="#823c3c"/>
    <path id="Trazado_590698" data-name="Trazado 590698" d="M187.524,82.195c2.2-8.649,8.267-10.673,8.33-10.7l-.039-.167a14.732,14.732,0,0,0-8.6,9.847Z" transform="translate(82.468 31.419)" fill="#823c3c"/>
    <path id="Trazado_590699" data-name="Trazado 590699" d="M187.267,86.539c4.87-7.79,12.073-7.648,12.148-7.652l.01-.173a16.233,16.233,0,0,0-12.171,6.759Z" transform="translate(82.483 34.672)" fill="#823c3c"/>
    <path id="Trazado_590700" data-name="Trazado 590700" d="M188.831,80.4c-1.67-5.253-5.435-6.077-5.474-6.085l.01-.108a7.949,7.949,0,0,1,5.693,5.034Z" transform="translate(80.766 32.685)" fill="#823c3c"/>
    <path id="Trazado_590701" data-name="Trazado 590701" d="M189.235,83.768c3.335-4.389,1.841-7.943,1.825-7.979l.094-.053a7.953,7.953,0,0,1-.84,7.552Z" transform="translate(83.355 33.361)" fill="#823c3c"/>
    <path id="Trazado_590702" data-name="Trazado 590702" d="M190.939,80.384a10.168,10.168,0,0,1,6.913.81l.091-.048a9.39,9.39,0,0,0-6.245-1.177Z" transform="translate(84.106 35.176)" fill="#823c3c"/>
    <path id="Trazado_590703" data-name="Trazado 590703" d="M186.622,81.9c-3.751-2.746-8.882-1.688-8.938-1.674l-.092-.12c.058-.014,4.957-1.734,8.881,1.21Z" transform="translate(78.227 35.058)" fill="#823c3c"/>
    <path id="Trazado_590704" data-name="Trazado 590704" d="M83.526,68.455s-3.149-4.094-7.243-3.149-5.353,6.613-5.353,6.613-1.574-7.243-7.558-7.558S53.926,71.6,53.926,71.6,49.832,53.97,29.363,51.451s-53.848,18.579-.945,34.01S121,24.683,186.815,28.148l.157-.629c-44.8-3.788-94.785,40.465-103.446,40.937" transform="translate(0 12.02)" fill="#906f93"/>
    <path id="Trazado_590705" data-name="Trazado 590705" d="M83.524,68.455a8.2,8.2,0,0,0-.575-.644c-.935,2.815-3.1,4.787-5.614,4.787a5.974,5.974,0,0,1-5.193-3.757,12.943,12.943,0,0,0-1.214,3.078,10.54,10.54,0,0,0-.3-1.018c-1.616,3.346-4.641,5.6-8.116,5.6-3.51,0-6.564-2.3-8.169-5.707-.277.491-.421.805-.421.805a24.446,24.446,0,0,0-2.377-5.714,10.59,10.59,0,0,1-.614,7.985C46.6,81.807,30.764,81.5,15.57,73.2A52.962,52.962,0,0,1,1.224,61.986C-2.784,68.844,2.3,77.842,28.416,85.46c52.9,15.43,92.583-60.777,158.4-57.313l.157-.629c-44.8-3.788-94.785,40.465-103.446,40.937" transform="translate(0.002 12.02)" fill="#785c7c"/>
    <path id="Trazado_590706" data-name="Trazado 590706" d="M63.723,13.449a4.235,4.235,0,1,0-4.235,4.235,4.235,4.235,0,0,0,4.235-4.235" transform="translate(24.338 4.059)" fill="#906f93"/>
    <path id="Trazado_590707" data-name="Trazado 590707" d="M69.223,12.977A2.443,2.443,0,1,0,66.78,15.42a2.442,2.442,0,0,0,2.443-2.443" transform="translate(28.339 4.64)" fill="#906f93"/>
    <path id="Trazado_590708" data-name="Trazado 590708" d="M16.646,13.111A5.593,5.593,0,1,0,11.054,18.7a5.592,5.592,0,0,0,5.592-5.592" transform="translate(2.405 3.312)" fill="#906f93"/>
    <path id="Trazado_590709" data-name="Trazado 590709" d="M63.5,49.636a4.425,4.425,0,1,0-4.425,4.425A4.424,4.424,0,0,0,63.5,49.636" transform="translate(24.072 19.915)" fill="#785c7c"/>
    <path id="Trazado_590710" data-name="Trazado 590710" d="M44.258,49.353a4.425,4.425,0,1,0-4.425,4.425,4.424,4.424,0,0,0,4.425-4.425" transform="translate(15.597 19.79)" fill="#785c7c"/>
    <path id="Trazado_590711" data-name="Trazado 590711" d="M136.8,35.345a5.21,5.21,0,1,0-5.209,5.209,5.209,5.209,0,0,0,5.209-5.209" transform="translate(55.67 13.274)" fill="#785c7c"/>
    <path id="Trazado_590712" data-name="Trazado 590712" d="M201.6,8.96a5.21,5.21,0,1,0-5.209,5.209A5.209,5.209,0,0,0,201.6,8.96" transform="translate(84.211 1.652)" fill="#906f93"/>
    <path id="Trazado_590713" data-name="Trazado 590713" d="M190.854,30.435a7.028,7.028,0,1,0-7.028,7.028,7.027,7.027,0,0,0,7.028-7.028" transform="translate(77.877 10.31)" fill="#906f93"/>
    <path id="Trazado_590714" data-name="Trazado 590714" d="M194.487,44.691a7.3,7.3,0,1,0-7.3,7.3,7.3,7.3,0,0,0,7.3-7.3" transform="translate(79.238 16.471)" fill="#785c7c"/>
    <path id="Trazado_590715" data-name="Trazado 590715" d="M192.62,3.445a3.445,3.445,0,1,0-3.444,3.444,3.444,3.444,0,0,0,3.444-3.444" transform="translate(81.811 0)" fill="#906f93"/>
    <path id="Trazado_590716" data-name="Trazado 590716" d="M157.3,40.911a3.445,3.445,0,1,0-3.444,3.444,3.444,3.444,0,0,0,3.444-3.444" transform="translate(66.253 16.504)" fill="#ddc5a2"/>
    <path id="Trazado_590717" data-name="Trazado 590717" d="M121.831,29.695a2.658,2.658,0,1,0,3.75.261,2.657,2.657,0,0,0-3.75-.261" transform="translate(53.262 12.792)" fill="#785c7c"/>
  </g>
</svg>
