<svg id="Grupo_848750" data-name="Grupo 848750" xmlns="http://www.w3.org/2000/svg" xmlns:xlink="http://www.w3.org/1999/xlink" width="312.719" height="177.436" viewBox="0 0 312.719 177.436">
  <defs>
    <clipPath id="clip-path">
      <rect id="Rectángulo_281819" data-name="Rectángulo 281819" width="312.719" height="177.436" fill="none"/>
    </clipPath>
    <clipPath id="clip-path-3">
      <rect id="Rectángulo_281773" data-name="Rectángulo 281773" width="36.62" height="36.62" fill="none"/>
    </clipPath>
    <clipPath id="clip-path-4">
      <rect id="Rectángulo_281780" data-name="Rectángulo 281780" width="36.682" height="11.078" fill="none"/>
    </clipPath>
    <clipPath id="clip-path-5">
      <rect id="Rectángulo_281784" data-name="Rectángulo 281784" width="5.171" height="2.2" fill="none"/>
    </clipPath>
    <clipPath id="clip-path-6">
      <rect id="Rectángulo_281787" data-name="Rectángulo 281787" width="5.17" height="2.2" fill="none"/>
    </clipPath>
    <clipPath id="clip-path-7">
      <rect id="Rectángulo_281790" data-name="Rectángulo 281790" width="3.693" height="5.355" fill="none"/>
    </clipPath>
    <clipPath id="clip-path-8">
      <rect id="Rectángulo_281794" data-name="Rectángulo 281794" width="20.643" height="5.562" fill="none"/>
    </clipPath>
    <clipPath id="clip-path-9">
      <rect id="Rectángulo_281795" data-name="Rectángulo 281795" width="18.27" height="22.427" fill="none"/>
    </clipPath>
    <clipPath id="clip-path-10">
      <rect id="Rectángulo_281796" data-name="Rectángulo 281796" width="13.815" height="33.604" fill="none"/>
    </clipPath>
    <clipPath id="clip-path-11">
      <rect id="Rectángulo_281797" data-name="Rectángulo 281797" width="1.833" height="3.978" fill="none"/>
    </clipPath>
  </defs>
  <g id="Grupo_848670" data-name="Grupo 848670" clip-path="url(#clip-path)">
    <g id="Grupo_848669" data-name="Grupo 848669">
      <g id="Grupo_848668" data-name="Grupo 848668" clip-path="url(#clip-path)">
        <path id="Trazado_590718" data-name="Trazado 590718" d="M134.271,4.539A4.54,4.54,0,1,0,138.81,0a4.539,4.539,0,0,0-4.539,4.539" transform="translate(88.5)" fill="#d0d85b"/>
        <path id="Trazado_590719" data-name="Trazado 590719" d="M140.656,13.547A4.54,4.54,0,1,0,145.2,9.008a4.541,4.541,0,0,0-4.539,4.539" transform="translate(92.709 5.937)" fill="#d0d85b"/>
        <path id="Trazado_590720" data-name="Trazado 590720" d="M132.618,20.077a6.337,6.337,0,1,0,6.338-6.338,6.337,6.337,0,0,0-6.338,6.338" transform="translate(87.411 9.056)" fill="#d0d85b"/>
        <path id="Trazado_590721" data-name="Trazado 590721" d="M137.863,26.534a7.094,7.094,0,1,0,7.094-7.094,7.093,7.093,0,0,0-7.094,7.094" transform="translate(90.868 12.813)" fill="#d0d85b"/>
        <path id="Trazado_590722" data-name="Trazado 590722" d="M131.991,36.211A10.215,10.215,0,1,0,142.206,26a10.216,10.216,0,0,0-10.215,10.215" transform="translate(86.998 17.134)" fill="#d0d85b"/>
        <path id="Trazado_590723" data-name="Trazado 590723" d="M88.186,68.481H81.678V28.23A5.738,5.738,0,0,0,75.947,22.5H55.759a5.739,5.739,0,0,0-5.732,5.731V41.4H43.518V28.23A12.253,12.253,0,0,1,55.759,15.992H75.947A12.251,12.251,0,0,1,88.186,28.23Z" transform="translate(28.683 10.541)" fill="#c62b1a"/>
        <path id="Trazado_590724" data-name="Trazado 590724" d="M127.316,55.425h-6.509V15.173a5.737,5.737,0,0,0-5.731-5.731H72.786a5.738,5.738,0,0,0-5.732,5.731v13.17H60.545V15.173A12.254,12.254,0,0,1,72.786,2.934h42.291a12.254,12.254,0,0,1,12.239,12.239Z" transform="translate(39.906 1.934)" fill="#c62b1a"/>
        <path id="Trazado_590725" data-name="Trazado 590725" d="M188.737,56.866H166.8a6.844,6.844,0,0,0-6.844,6.844v.173h35.623V63.71a6.844,6.844,0,0,0-6.844-6.844" transform="translate(105.431 37.481)" fill="#ea3f24"/>
        <path id="Trazado_590726" data-name="Trazado 590726" d="M110.121,15.022h-10.5a6.844,6.844,0,0,0-6.844,6.844v.173h24.188v-.173a6.844,6.844,0,0,0-6.844-6.844" transform="translate(61.151 9.901)" fill="#ea3f24"/>
        <path id="Trazado_590727" data-name="Trazado 590727" d="M55.7,24.927H45.2a6.844,6.844,0,0,0-6.844,6.844v.173H62.545v-.173A6.844,6.844,0,0,0,55.7,24.927" transform="translate(25.282 16.43)" fill="#ea3f24"/>
        <rect id="Rectángulo_281772" data-name="Rectángulo 281772" width="35.739" height="11.755" transform="translate(266.147 162.296)" fill="#443830"/>
        <path id="Trazado_590728" data-name="Trazado 590728" d="M195.642,58.2H162.473a8.9,8.9,0,0,0-8.9,8.9v54.4a8.9,8.9,0,0,0,8.9,8.9h33.169a8.9,8.9,0,0,0,8.9-8.9V67.1a8.9,8.9,0,0,0-8.9-8.9" transform="translate(101.225 38.362)" fill="#eddcc0"/>
        <path id="Trazado_590729" data-name="Trazado 590729" d="M176.473,127.442a3.877,3.877,0,0,1-3.877-3.877V59.124a3.853,3.853,0,0,1,.123-.922H157.454a3.878,3.878,0,0,0-3.877,3.877v64.44a3.879,3.879,0,0,0,3.877,3.877h43.207a3.871,3.871,0,0,0,3.755-2.955Z" transform="translate(101.225 38.362)" fill="#c4b09d"/>
        <g id="Grupo_848637" data-name="Grupo 848637" transform="translate(261.789 116.228)" opacity="0.7" style="mix-blend-mode: multiply;isolation: isolate">
          <g id="Grupo_848636" data-name="Grupo 848636">
            <g id="Grupo_848635" data-name="Grupo 848635" clip-path="url(#clip-path-3)">
              <path id="Trazado_590730" data-name="Trazado 590730" d="M176.1,70.054a18.31,18.31,0,1,0,18.31,18.31,18.309,18.309,0,0,0-18.31-18.31m9.694,4.5-5.978,9.012a6.055,6.055,0,0,0-7.055-.274l-5.331-9.409a16.869,16.869,0,0,1,18.363.67m-5.157,14.39-.01.068a4.864,4.864,0,0,1-.109.536,4.578,4.578,0,0,1-2.694,3.059,4.5,4.5,0,0,1-.831.249c-.022,0-.046.007-.068.012-.121.022-.244.041-.368.055-.149.015-.3.023-.456.023s-.305-.008-.456-.023c-.124-.013-.246-.033-.367-.055-.023,0-.046-.007-.07-.012a4.518,4.518,0,0,1-.83-.249,4.582,4.582,0,0,1-2.809-3.62,4.743,4.743,0,0,1-.046-.619,4.657,4.657,0,0,1,.033-.531c.007-.055.017-.106.025-.159.018-.121.04-.242.068-.36.013-.056.028-.113.043-.169.033-.118.07-.234.111-.347.018-.046.033-.095.051-.139a4.662,4.662,0,0,1,.2-.443l.007-.013a4.536,4.536,0,0,1,.275-.446c.015-.022.032-.041.048-.063q.127-.177.269-.338c.025-.03.051-.058.078-.086.093-.1.191-.2.294-.292.025-.023.05-.046.075-.068a4.769,4.769,0,0,1,.4-.312,4.569,4.569,0,0,1,6.167.9c.025.03.046.061.07.093.071.095.141.191.206.29.028.043.053.088.08.131.055.091.108.184.156.28.027.051.051.1.076.156.042.093.081.186.118.282.022.056.043.113.063.171.032.1.06.2.086.3.015.058.031.114.045.174.023.108.041.219.056.33.008.053.018.1.025.156a4.571,4.571,0,0,1,.028.5,4.417,4.417,0,0,1-.04.576m-21.416-.576c0-.343.013-.682.033-1.02l10.791,1.437a6.072,6.072,0,0,0,3.662,5.168l-4.815,9.679a16.879,16.879,0,0,1-9.671-15.264m24.085,15.264-4.815-9.679a6.077,6.077,0,0,0,3.582-4.5l10.894-.677a16.874,16.874,0,0,1-9.661,14.859" transform="translate(-157.788 -70.054)" fill="#7a5353"/>
            </g>
          </g>
        </g>
        <path id="Trazado_590731" data-name="Trazado 590731" d="M89.489,68.481H82.981V28.23A5.738,5.738,0,0,0,77.25,22.5H57.062A5.739,5.739,0,0,0,51.33,28.23V41.4H44.821V28.23A12.253,12.253,0,0,1,57.062,15.992H77.25A12.251,12.251,0,0,1,89.489,28.23Z" transform="translate(29.542 10.541)" fill="#ea3f24"/>
        <path id="Trazado_590732" data-name="Trazado 590732" d="M128.837,55.425h-6.509V15.173A5.736,5.736,0,0,0,116.6,9.443H74.307a5.738,5.738,0,0,0-5.732,5.731v13.17H62.066V15.173A12.254,12.254,0,0,1,74.307,2.934H116.6a12.253,12.253,0,0,1,12.239,12.239Z" transform="translate(40.909 1.934)" fill="#ea3f24"/>
        <path id="Trazado_590733" data-name="Trazado 590733" d="M126.712,17.582H98.572A18.428,18.428,0,0,0,80.146,36.008V88.891a18.427,18.427,0,0,0,18.426,18.426h28.14a18.425,18.425,0,0,0,18.426-18.426V36.008a18.427,18.427,0,0,0-18.426-18.426" transform="translate(52.826 11.589)" fill="#eddcc0"/>
        <path id="Trazado_590734" data-name="Trazado 590734" d="M105.534,61.773A8.031,8.031,0,0,1,97.5,53.741V17.582H88.178a8.031,8.031,0,0,0-8.032,8.032V99.285a8.031,8.031,0,0,0,8.032,8.032h48.929a8.031,8.031,0,0,0,8.032-8.032V61.773Z" transform="translate(52.826 11.589)" fill="#c4b09d"/>
        <path id="Trazado_590735" data-name="Trazado 590735" d="M65.162,26.707h-17.8A18.428,18.428,0,0,0,28.935,45.133V82.875A18.427,18.427,0,0,0,47.361,101.3h17.8A18.425,18.425,0,0,0,83.588,82.875V45.133A18.427,18.427,0,0,0,65.162,26.707" transform="translate(19.072 17.603)" fill="#eddcc0"/>
        <path id="Trazado_590736" data-name="Trazado 590736" d="M53.707,56.249a8.031,8.031,0,0,1-8.032-8.032V26.707H36.967a8.031,8.031,0,0,0-8.032,8.032v58.53a8.031,8.031,0,0,0,8.032,8.032H75.556a8.031,8.031,0,0,0,8.032-8.032V56.249Z" transform="translate(19.072 17.603)" fill="#c4b09d"/>
        <rect id="Rectángulo_281774" data-name="Rectángulo 281774" width="16.986" height="7.693" transform="translate(222.176 69.668)" fill="#664249"/>
        <rect id="Rectángulo_281775" data-name="Rectángulo 281775" width="7.755" height="7.693" transform="translate(218.113 69.668)" fill="#3f262c"/>
        <rect id="Rectángulo_281776" data-name="Rectángulo 281776" width="16.291" height="4.123" transform="translate(108.895 73.237)" fill="#664249"/>
        <rect id="Rectángulo_281777" data-name="Rectángulo 281777" width="7.438" height="4.123" transform="translate(104.999 73.237)" fill="#3f262c"/>
        <rect id="Rectángulo_281778" data-name="Rectángulo 281778" width="210.859" height="11.078" transform="translate(38.774 76.438)" fill="#ea3f24"/>
        <g id="Grupo_848640" data-name="Grupo 848640" transform="translate(38.774 76.438)" opacity="0.7" style="mix-blend-mode: multiply;isolation: isolate">
          <g id="Grupo_848639" data-name="Grupo 848639">
            <g id="Grupo_848638" data-name="Grupo 848638" clip-path="url(#clip-path-4)">
              <rect id="Rectángulo_281779" data-name="Rectángulo 281779" width="36.681" height="11.078" transform="translate(0.001 -0.001)" fill="#7a5353"/>
            </g>
          </g>
        </g>
        <path id="Trazado_590737" data-name="Trazado 590737" d="M258.268,48.742H14.912v95.275H259.745Z" transform="translate(9.829 32.127)" fill="#ffc043"/>
        <path id="Trazado_590738" data-name="Trazado 590738" d="M56.041,48.742H14.319v95.275H56.295Z" transform="translate(9.438 32.127)" fill="#ff9136"/>
        <path id="Trazado_590739" data-name="Trazado 590739" d="M68.163,57.645H46.63v80.5H68.295Z" transform="translate(30.735 37.995)" fill="#ff9136"/>
        <path id="Trazado_590740" data-name="Trazado 590740" d="M159.984,63.853l-6.91-6.91-9.289,9.291,6.952,6.952Z" transform="translate(94.771 37.532)" fill="#ff9136"/>
        <rect id="Rectángulo_281781" data-name="Rectángulo 281781" width="168.022" height="73.856" transform="translate(81.98 100.81)" fill="#6a5472"/>
        <path id="Trazado_590741" data-name="Trazado 590741" d="M217.25,60.761H49.412v73.856h93.342l74.5-60.881Z" transform="translate(32.568 40.049)" fill="#48344c"/>
        <rect id="Rectángulo_281782" data-name="Rectángulo 281782" width="16.002" height="2.2" transform="translate(208.642 126.798)" fill="#ea3f24"/>
        <g id="Grupo_848643" data-name="Grupo 848643" transform="translate(208.642 126.798)" opacity="0.7" style="mix-blend-mode: multiply;isolation: isolate">
          <g id="Grupo_848642" data-name="Grupo 848642">
            <g id="Grupo_848641" data-name="Grupo 848641" clip-path="url(#clip-path-5)">
              <rect id="Rectángulo_281783" data-name="Rectángulo 281783" width="5.17" height="2.2" transform="translate(0.002 0)" fill="#7a5353"/>
            </g>
          </g>
        </g>
        <rect id="Rectángulo_281785" data-name="Rectángulo 281785" width="16.002" height="2.2" transform="translate(177.486 126.798)" fill="#ea3f24"/>
        <g id="Grupo_848646" data-name="Grupo 848646" transform="translate(177.486 126.798)" opacity="0.7" style="mix-blend-mode: multiply;isolation: isolate">
          <g id="Grupo_848645" data-name="Grupo 848645">
            <g id="Grupo_848644" data-name="Grupo 848644" clip-path="url(#clip-path-6)">
              <rect id="Rectángulo_281786" data-name="Rectángulo 281786" width="5.17" height="2.2" transform="translate(0 0)" fill="#7a5353"/>
            </g>
          </g>
        </g>
        <path id="Trazado_590742" data-name="Trazado 590742" d="M155.808,103.326c-.229-2.7-1.407-4.893-2.631-4.893s-2.029,2.19-1.8,4.893,1.407,4.893,2.631,4.893,2.029-2.19,1.8-4.893" transform="translate(99.749 64.879)" fill="#443830"/>
        <path id="Trazado_590743" data-name="Trazado 590743" d="M130.546,103.326c-.229-2.7-1.407-4.893-2.631-4.893s-2.029,2.19-1.8,4.893,1.407,4.893,2.631,4.893,2.029-2.19,1.8-4.893" transform="translate(83.099 64.879)" fill="#443830"/>
        <path id="Trazado_590744" data-name="Trazado 590744" d="M126.613,103.326c-.229-2.7-1.407-4.893-2.631-4.893s-2.029,2.19-1.8,4.893,1.407,4.893,2.631,4.893,2.029-2.19,1.8-4.893" transform="translate(80.506 64.879)" fill="#443830"/>
        <path id="Trazado_590745" data-name="Trazado 590745" d="M169.887,77.234H106.228c-9.958,0-9.958,33.605,0,33.605h63.659c14.121,0,14.121-33.605,0-33.605" transform="translate(65.094 50.906)" fill="#ffc043"/>
        <path id="Trazado_590746" data-name="Trazado 590746" d="M175.768,78.736c-1.629,4.665-4.7,8.095-9.2,8.095H102.9a4.638,4.638,0,0,1-3.381-1.565c-2.1,9.955.133,24.583,6.7,24.583h63.659c11.768,0,13.726-23.332,5.882-31.113" transform="translate(65.094 51.896)" fill="#ff9136"/>
        <path id="Trazado_590747" data-name="Trazado 590747" d="M148.763,77.234H138.279c-9.96,0-9.96,33.6,0,33.6h10.482c14.121,0,14.121-33.6,0-33.6" transform="translate(86.219 50.906)" fill="#ffc043"/>
        <path id="Trazado_590748" data-name="Trazado 590748" d="M151.216,78.271h-13.2l-6.555,31.7h13.2Z" transform="translate(86.647 51.59)" fill="#ff9136"/>
        <path id="Trazado_590749" data-name="Trazado 590749" d="M152.992,75.748h-3.139l-.616,3.816h4.37Z" transform="translate(98.365 49.927)" fill="#ea3f24"/>
        <path id="Trazado_590750" data-name="Trazado 590750" d="M142.382,75.748h-3.139l-.616,3.816H143Z" transform="translate(91.372 49.927)" fill="#ea3f24"/>
        <path id="Trazado_590751" data-name="Trazado 590751" d="M192.932,110.31c-.048-8.027-1.671-32.373-6.4-32.373H157.976V110.31H102.83v7.877h90.1V110.31Z" transform="translate(67.777 51.37)" fill="#fff5e3"/>
        <path id="Trazado_590752" data-name="Trazado 590752" d="M163.908,99.731H104.054v.977a4.377,4.377,0,0,0,4.377,4.377h55.478Z" transform="translate(68.584 65.734)" fill="#443830"/>
        <path id="Trazado_590753" data-name="Trazado 590753" d="M170.162,110.357h0c-.046-7.8-1.575-30.938-5.974-32.421h-6.21V110.31H139.3v.046H102.83v7.831h67.332Z" transform="translate(67.777 51.369)" fill="#eae4bb"/>
        <path id="Trazado_590754" data-name="Trazado 590754" d="M141.53,79.05c3.3,4,4.531,22.518,4.621,29.75h20.268c0-6.165-1.059-24.246-4.07-29.75Z" transform="translate(93.285 52.103)" fill="#95cbdb"/>
        <rect id="Rectángulo_281788" data-name="Rectángulo 281788" width="26.896" height="5.354" transform="translate(234.123 165.465)" fill="#ea3f24"/>
        <g id="Grupo_848649" data-name="Grupo 848649" transform="translate(234.123 165.373)" opacity="0.7" style="mix-blend-mode: multiply;isolation: isolate">
          <g id="Grupo_848648" data-name="Grupo 848648">
            <g id="Grupo_848647" data-name="Grupo 848647" clip-path="url(#clip-path-7)">
              <rect id="Rectángulo_281789" data-name="Rectángulo 281789" width="3.693" height="5.354" transform="translate(0 0)" fill="#7a5353"/>
            </g>
          </g>
        </g>
        <path id="Trazado_590755" data-name="Trazado 590755" d="M146.495,101.937c0-.9-.483-1.631-1.077-1.631s-1.077.73-1.077,1.631.481,1.631,1.077,1.631,1.077-.73,1.077-1.631" transform="translate(95.138 66.113)" fill="#fff5e3"/>
        <path id="Trazado_590756" data-name="Trazado 590756" d="M157.846,101.937c0-.9-.483-1.631-1.077-1.631s-1.077.73-1.077,1.631.481,1.631,1.077,1.631,1.077-.73,1.077-1.631" transform="translate(102.619 66.113)" fill="#fff5e3"/>
        <rect id="Rectángulo_281791" data-name="Rectángulo 281791" width="9.294" height="3.57" transform="translate(246.125 167.403)" fill="#fff5e3"/>
        <path id="Trazado_590757" data-name="Trazado 590757" d="M150.774,108.139h9.094c0-5.97-1.025-23.475-3.94-28.8h-5.153Z" transform="translate(99.378 52.291)" fill="#aadce8"/>
        <path id="Trazado_590758" data-name="Trazado 590758" d="M136.843,108.773h9.372c0-6.152-1.057-24.192-4.062-29.683h-5.311Z" transform="translate(90.196 52.13)" fill="#78b5c4"/>
        <rect id="Rectángulo_281792" data-name="Rectángulo 281792" width="0.677" height="30.651" transform="translate(232.092 130.66)" fill="#eae4bb"/>
        <rect id="Rectángulo_281793" data-name="Rectángulo 281793" width="0.677" height="29.358" transform="translate(254.988 131.46)" fill="#95cbdb"/>
        <g id="Grupo_848652" data-name="Grupo 848652" transform="translate(236.134 131.711)" opacity="0.31" style="mix-blend-mode: overlay;isolation: isolate">
          <g id="Grupo_848651" data-name="Grupo 848651">
            <g id="Grupo_848650" data-name="Grupo 848650" clip-path="url(#clip-path-8)">
              <path id="Trazado_590759" data-name="Trazado 590759" d="M161.232,79.386H142.325a14.662,14.662,0,0,1,2.077,5.561h18.565a21.4,21.4,0,0,0-1.735-5.561" transform="translate(-142.325 -79.386)" fill="#fff5e3"/>
            </g>
          </g>
        </g>
        <g id="Grupo_848655" data-name="Grupo 848655" transform="translate(185.229 133.48)" opacity="0.7" style="mix-blend-mode: multiply;isolation: isolate">
          <g id="Grupo_848654" data-name="Grupo 848654">
            <g id="Grupo_848653" data-name="Grupo 848653" clip-path="url(#clip-path-9)">
              <path id="Trazado_590760" data-name="Trazado 590760" d="M120.778,80.452c-5.045,0-9.135,5.02-9.135,11.214s4.09,11.212,9.135,11.212,9.135-5.02,9.135-11.212-4.09-11.214-9.135-11.214m4.836,2.754-2.983,5.52a2.675,2.675,0,0,0-1.853-.781,2.628,2.628,0,0,0-1.666.614l-2.66-5.762a7.258,7.258,0,0,1,4.325-1.468,7.372,7.372,0,0,1,4.836,1.878m-2.573,8.812,0,.041c-.013.111-.032.222-.055.329a2.688,2.688,0,0,1-1.344,1.873,2.043,2.043,0,0,1-.415.154l-.035.007c-.06.013-.121.025-.183.033a1.951,1.951,0,0,1-.455,0c-.063-.008-.123-.02-.184-.033l-.035-.007a2.065,2.065,0,0,1-.413-.154,2.779,2.779,0,0,1-1.4-2.217,3.561,3.561,0,0,1-.023-.378c0-.111.007-.219.017-.325,0-.033.008-.065.013-.1.008-.075.02-.148.033-.221.007-.035.015-.068.022-.1.017-.073.035-.143.056-.212l.025-.086c.03-.093.065-.183.1-.27l0-.008a3,3,0,0,1,.136-.274c.008-.013.017-.025.023-.038.043-.071.088-.141.136-.207a.611.611,0,0,1,.038-.053c.046-.061.095-.121.146-.179l.038-.041a2.4,2.4,0,0,1,.2-.191,1.994,1.994,0,0,1,1.3-.5,2.032,2.032,0,0,1,1.44.629,2.66,2.66,0,0,1,.34.421l.035.056c.037.058.07.116.1.178l.04.081c.027.056.053.113.078.171.012.032.025.063.037.1.022.056.041.114.06.173.01.035.022.07.032.1.015.06.03.119.043.181.007.037.015.071.022.108.012.066.022.134.028.2,0,.032.01.063.013.1.008.1.013.2.013.307a3.059,3.059,0,0,1-.02.352m-10.685-.352c0-.211.007-.418.017-.625l5.384.879a3.764,3.764,0,0,0,1.827,3.166l-2.4,5.928c-2.852-1.656-4.826-5.218-4.826-9.347m12.017,9.347-2.4-5.928a3.669,3.669,0,0,0,1.787-2.757l5.435-.415a10.658,10.658,0,0,1-4.82,9.1" transform="translate(-111.643 -80.452)" fill="#7a5353"/>
            </g>
          </g>
        </g>
        <g id="Grupo_848658" data-name="Grupo 848658" transform="translate(168.9 128.14)" opacity="0.7" style="mix-blend-mode: multiply;isolation: isolate">
          <g id="Grupo_848657" data-name="Grupo 848657">
            <g id="Grupo_848656" data-name="Grupo 848656" clip-path="url(#clip-path-10)">
              <path id="Trazado_590761" data-name="Trazado 590761" d="M115.617,77.234h-6.346c-9.96,0-9.96,33.6,0,33.6h6.346c-7.371-4.191-7.371-29.413,0-33.6" transform="translate(-101.801 -77.234)" fill="#7a5353"/>
            </g>
          </g>
        </g>
        <path id="Trazado_590762" data-name="Trazado 590762" d="M135.219,77.867H105.729c-1.757,0-3.176,1.138-4.261,2.975h31.78Z" transform="translate(66.879 51.324)" fill="#eae4bb"/>
        <path id="Trazado_590763" data-name="Trazado 590763" d="M124.877,77.867l-1.971,2.975h9.623a7.692,7.692,0,0,0,6.041-2.975Z" transform="translate(81.009 51.324)" fill="#eae4bb"/>
        <path id="Trazado_590764" data-name="Trazado 590764" d="M143.418,103.326c-.229-2.7-1.407-4.893-2.631-4.893s-2.029,2.19-1.8,4.893,1.407,4.893,2.631,4.893,2.029-2.19,1.8-4.893" transform="translate(91.583 64.879)" fill="#443830"/>
        <g id="Grupo_848661" data-name="Grupo 848661" transform="translate(231.868 166.215)" opacity="0.7" style="mix-blend-mode: multiply;isolation: isolate">
          <g id="Grupo_848660" data-name="Grupo 848660">
            <g id="Grupo_848659" data-name="Grupo 848659" clip-path="url(#clip-path-11)">
              <path id="Trazado_590765" data-name="Trazado 590765" d="M141.571,102.172c-.093-1.1-.572-1.989-1.07-1.989s-.825.891-.732,1.989.572,1.989,1.07,1.989.825-.891.732-1.989" transform="translate(-139.754 -100.182)" fill="#7a5353"/>
            </g>
          </g>
        </g>
        <path id="Trazado_590766" data-name="Trazado 590766" d="M141.183,101.848c-.056-.649-.338-1.173-.632-1.173s-.488.524-.431,1.173.337,1.173.63,1.173.486-.524.433-1.173" transform="translate(92.349 66.357)" fill="#c4b09d"/>
        <path id="Trazado_590767" data-name="Trazado 590767" d="M118.211,103.326c-.229-2.7-1.407-4.893-2.631-4.893s-2.029,2.19-1.8,4.893,1.407,4.893,2.631,4.893,2.029-2.19,1.8-4.893" transform="translate(74.968 64.879)" fill="#443830"/>
        <g id="Grupo_848664" data-name="Grupo 848664" transform="translate(190.047 166.215)" opacity="0.7" style="mix-blend-mode: multiply;isolation: isolate">
          <g id="Grupo_848663" data-name="Grupo 848663">
            <g id="Grupo_848662" data-name="Grupo 848662" clip-path="url(#clip-path-11)">
              <path id="Trazado_590768" data-name="Trazado 590768" d="M116.365,102.172c-.093-1.1-.572-1.989-1.07-1.989s-.825.891-.732,1.989.572,1.989,1.07,1.989.825-.891.732-1.989" transform="translate(-114.547 -100.182)" fill="#7a5353"/>
            </g>
          </g>
        </g>
        <path id="Trazado_590769" data-name="Trazado 590769" d="M115.976,101.848c-.055-.649-.337-1.173-.63-1.173s-.488.524-.433,1.173.338,1.173.632,1.173.486-.524.431-1.173" transform="translate(75.735 66.357)" fill="#c4b09d"/>
        <path id="Trazado_590770" data-name="Trazado 590770" d="M114.233,103.326c-.229-2.7-1.407-4.893-2.631-4.893s-2.029,2.19-1.8,4.893,1.407,4.893,2.631,4.893,2.029-2.19,1.8-4.893" transform="translate(72.346 64.879)" fill="#443830"/>
        <g id="Grupo_848667" data-name="Grupo 848667" transform="translate(183.447 166.215)" opacity="0.7" style="mix-blend-mode: multiply;isolation: isolate">
          <g id="Grupo_848666" data-name="Grupo 848666">
            <g id="Grupo_848665" data-name="Grupo 848665" clip-path="url(#clip-path-11)">
              <path id="Trazado_590771" data-name="Trazado 590771" d="M112.386,102.172c-.093-1.1-.572-1.989-1.07-1.989s-.825.891-.732,1.989.572,1.989,1.07,1.989.825-.891.732-1.989" transform="translate(-110.569 -100.182)" fill="#7a5353"/>
            </g>
          </g>
        </g>
        <path id="Trazado_590772" data-name="Trazado 590772" d="M112,101.848c-.055-.649-.337-1.173-.63-1.173s-.488.524-.431,1.173.337,1.173.63,1.173.486-.524.431-1.173" transform="translate(73.113 66.357)" fill="#c4b09d"/>
        <path id="Trazado_590773" data-name="Trazado 590773" d="M101.99,100.346V80.959H63.467v19.387H53.681V120.01h62.9V100.346Z" transform="translate(35.382 53.362)" fill="#ffc043"/>
        <path id="Trazado_590774" data-name="Trazado 590774" d="M86.041,100.346V80.959H62.9v19.387H57.02V120.01H94.8V100.346Z" transform="translate(37.583 53.362)" fill="#ff9136"/>
        <rect id="Rectángulo_281800" data-name="Rectángulo 281800" width="12.279" height="19.664" transform="translate(118.632 153.707)" fill="#ffc043"/>
        <rect id="Rectángulo_281801" data-name="Rectángulo 281801" width="1.385" height="19.664" transform="translate(141.249 153.707)" fill="#ff9136"/>
        <path id="Trazado_590775" data-name="Trazado 590775" d="M101.99,86.2V80.959H63.467v19.387H53.681V120.01h14.5Z" transform="translate(35.382 53.362)" fill="#ff9136"/>
        <rect id="Rectángulo_281802" data-name="Rectángulo 281802" width="14.771" height="12.871" transform="translate(33.051 159.737)" fill="#ea3f24"/>
        <rect id="Rectángulo_281803" data-name="Rectángulo 281803" width="14.771" height="19.757" transform="translate(6.463 154.356)" fill="#ea3f24"/>
        <rect id="Rectángulo_281804" data-name="Rectángulo 281804" width="16.802" height="26.773" transform="translate(18.464 147.34)" fill="#ea3f24"/>
        <rect id="Rectángulo_281805" data-name="Rectángulo 281805" width="1.385" height="19.664" transform="translate(102.814 153.707)" fill="#c62b1a"/>
        <rect id="Rectángulo_281806" data-name="Rectángulo 281806" width="1.385" height="19.664" transform="translate(111 133.859)" fill="#c62b1a"/>
        <rect id="Rectángulo_281807" data-name="Rectángulo 281807" width="1.385" height="19.664" transform="translate(125.308 133.859)" fill="#c62b1a"/>
        <rect id="Rectángulo_281808" data-name="Rectángulo 281808" width="1.385" height="19.664" transform="translate(116.354 153.707)" fill="#c62b1a"/>
        <rect id="Rectángulo_281809" data-name="Rectángulo 281809" width="64.347" height="1.231" transform="translate(88.258 152.879)" fill="#ea3f24"/>
        <rect id="Rectángulo_281810" data-name="Rectángulo 281810" width="33.143" height="1.231" transform="translate(88.258 152.879)" fill="#c62b1a"/>
        <rect id="Rectángulo_281811" data-name="Rectángulo 281811" width="40.436" height="1.231" transform="translate(97.737 133.368)" fill="#c62b1a"/>
        <rect id="Rectángulo_281812" data-name="Rectángulo 281812" width="165.497" height="12.407" transform="translate(83.243 99.666)" fill="#eae4bb"/>
        <rect id="Rectángulo_281813" data-name="Rectángulo 281813" width="165.497" height="8.715" transform="translate(83.243 97.266)" fill="#c4b09d"/>
        <rect id="Rectángulo_281814" data-name="Rectángulo 281814" width="177.255" height="9.907" transform="translate(77.363 91.826)" fill="#fffbee"/>
        <rect id="Rectángulo_281815" data-name="Rectángulo 281815" width="5.97" height="9.907" transform="translate(77.365 91.826)" fill="#eae4bb"/>
        <path id="Trazado_590776" data-name="Trazado 590776" d="M26.737,60.631c0-4.538-2.273-8.216-5.077-8.216s-5.079,3.678-5.079,8.216,2.273,8.216,5.079,8.216,5.077-3.678,5.077-8.216" transform="translate(10.929 34.548)" fill="#48344c"/>
        <path id="Trazado_590777" data-name="Trazado 590777" d="M23.453,58.839c0-2.046-1.025-3.7-2.29-3.7s-2.29,1.659-2.29,3.7,1.025,3.7,2.29,3.7,2.29-1.659,2.29-3.7" transform="translate(12.44 36.34)" fill="#ff9136"/>
        <path id="Trazado_590778" data-name="Trazado 590778" d="M34.6,60.631c0-4.538-2.273-8.216-5.079-8.216s-5.077,3.678-5.077,8.216,2.273,8.216,5.077,8.216S34.6,65.169,34.6,60.631" transform="translate(16.113 34.548)" fill="#48344c"/>
        <path id="Trazado_590779" data-name="Trazado 590779" d="M31.318,58.839c0-2.046-1.025-3.7-2.29-3.7s-2.29,1.659-2.29,3.7,1.025,3.7,2.29,3.7,2.29-1.659,2.29-3.7" transform="translate(17.624 36.34)" fill="#ff9136"/>
        <path id="Trazado_590780" data-name="Trazado 590780" d="M64.011,28.627H44.231v3.6A6.766,6.766,0,0,0,51,39h19.78v-3.6a6.766,6.766,0,0,0-6.766-6.766" transform="translate(29.153 18.869)" fill="#fffbee"/>
        <path id="Trazado_590781" data-name="Trazado 590781" d="M120.842,19.131h-19.78v3.6a6.766,6.766,0,0,0,6.766,6.766h19.78V25.9a6.766,6.766,0,0,0-6.766-6.766" transform="translate(66.612 12.61)" fill="#fffbee"/>
        <rect id="Rectángulo_281816" data-name="Rectángulo 281816" width="312.657" height="4.432" transform="translate(0.061 173.005)" fill="#95cbdb"/>
        <rect id="Rectángulo_281817" data-name="Rectángulo 281817" width="57.238" height="4.432" transform="translate(0 173.004)" fill="#6d94a0"/>
      </g>
    </g>
  </g>
</svg>
