<svg id="Grupo_848742" data-name="Grupo 848742" xmlns="http://www.w3.org/2000/svg" xmlns:xlink="http://www.w3.org/1999/xlink" width="312.719" height="242.414" viewBox="0 0 312.719 242.414">
  <defs>
    <clipPath id="clip-path">
      <rect id="Rectángulo_281663" data-name="Rectángulo 281663" width="312.719" height="242.414" fill="none"/>
    </clipPath>
    <clipPath id="clip-path-3">
      <rect id="Rectángulo_281578" data-name="Rectángulo 281578" width="19.1" height="233.497" fill="none"/>
    </clipPath>
    <clipPath id="clip-path-4">
      <rect id="Rectángulo_281579" data-name="Rectángulo 281579" width="9.126" height="3.941" fill="none"/>
    </clipPath>
    <clipPath id="clip-path-5">
      <rect id="Rectángulo_281580" data-name="Rectángulo 281580" width="11.243" height="146.164" fill="none"/>
    </clipPath>
    <clipPath id="clip-path-6">
      <rect id="Rectángulo_281581" data-name="Rectángulo 281581" width="39.016" height="36.064" fill="none"/>
    </clipPath>
    <clipPath id="clip-path-7">
      <rect id="Rectángulo_281588" data-name="Rectángulo 281588" width="29.99" height="53.79" fill="none"/>
    </clipPath>
    <clipPath id="clip-path-8">
      <rect id="Rectángulo_281589" data-name="Rectángulo 281589" width="13.102" height="214.005" fill="none"/>
    </clipPath>
    <clipPath id="clip-path-9">
      <rect id="Rectángulo_281605" data-name="Rectángulo 281605" width="13.14" height="1.914" fill="none"/>
    </clipPath>
    <clipPath id="clip-path-10">
      <rect id="Rectángulo_281627" data-name="Rectángulo 281627" width="13.072" height="5.644" fill="none"/>
    </clipPath>
    <clipPath id="clip-path-11">
      <rect id="Rectángulo_281628" data-name="Rectángulo 281628" width="9.087" height="5.644" fill="none"/>
    </clipPath>
    <clipPath id="clip-path-12">
      <rect id="Rectángulo_281658" data-name="Rectángulo 281658" width="29.99" height="53.324" fill="none"/>
    </clipPath>
  </defs>
  <g id="Grupo_848592" data-name="Grupo 848592" clip-path="url(#clip-path)">
    <path id="Trazado_590482" data-name="Trazado 590482" d="M77.207,1.319h-16.6l-.873,230.892H78.08Z" transform="translate(26.787 0.591)" fill="#ff5050"/>
    <path id="Trazado_590483" data-name="Trazado 590483" d="M76.99,6.825H60.333l-.045,11.938H77.035Z" transform="translate(27.034 3.061)" fill="#fff5e3"/>
    <path id="Trazado_590484" data-name="Trazado 590484" d="M77.073,18.92H60.284l-.033,8.693H77.106Z" transform="translate(27.017 8.484)" fill="#fff5e3"/>
    <g id="Grupo_848591" data-name="Grupo 848591">
      <g id="Grupo_848590" data-name="Grupo 848590" clip-path="url(#clip-path)">
        <g id="Grupo_848562" data-name="Grupo 848562" transform="translate(86.524 1.91)" opacity="0.7" style="mix-blend-mode: multiply;isolation: isolate">
          <g id="Grupo_848561" data-name="Grupo 848561">
            <g id="Grupo_848560" data-name="Grupo 848560" clip-path="url(#clip-path-3)">
              <path id="Trazado_590485" data-name="Trazado 590485" d="M67.131,132.306,67.609,1.319h-7l-.873,230.892h5.671v2.606h13.43L77.733,130.1Z" transform="translate(-59.737 -1.319)" fill="#7a5353"/>
            </g>
          </g>
        </g>
        <path id="Trazado_590486" data-name="Trazado 590486" d="M79.657,0H59.675a1.627,1.627,0,0,0-1.628,1.627v.687a1.628,1.628,0,0,0,1.628,1.628H79.657a1.627,1.627,0,0,0,1.627-1.628V1.627A1.627,1.627,0,0,0,79.657,0" transform="translate(26.029)" fill="#ff5050"/>
        <g id="Grupo_848565" data-name="Grupo 848565" transform="translate(84.077)" opacity="0.7" style="mix-blend-mode: multiply;isolation: isolate">
          <g id="Grupo_848564" data-name="Grupo 848564">
            <g id="Grupo_848563" data-name="Grupo 848563" clip-path="url(#clip-path-4)">
              <path id="Trazado_590487" data-name="Trazado 590487" d="M65.626,2.394V1.548A1.547,1.547,0,0,1,67.173,0H59.595a1.547,1.547,0,0,0-1.547,1.547v.846a1.547,1.547,0,0,0,1.547,1.547h7.578a1.547,1.547,0,0,1-1.547-1.547" transform="translate(-58.048 0)" fill="#7a5353"/>
            </g>
          </g>
        </g>
        <path id="Trazado_590488" data-name="Trazado 590488" d="M148.745,38.91H121.612l-1.428,146.164h29.989Z" transform="translate(53.892 17.448)" fill="#ff5050"/>
        <path id="Trazado_590489" data-name="Trazado 590489" d="M120.993,61.278h27.644L148.5,47.3H121.129Z" transform="translate(54.255 21.211)" fill="#fff5e3"/>
        <g id="Grupo_848568" data-name="Grupo 848568" transform="translate(174.075 56.358)" opacity="0.7" style="mix-blend-mode: multiply;isolation: isolate">
          <g id="Grupo_848567" data-name="Grupo 848567">
            <g id="Grupo_848566" data-name="Grupo 848566" clip-path="url(#clip-path-5)">
              <path id="Trazado_590490" data-name="Trazado 590490" d="M131.426,38.91h-9.814l-1.428,146.164h9.91Z" transform="translate(-120.183 -38.91)" fill="#7a5353"/>
            </g>
          </g>
        </g>
        <path id="Trazado_590491" data-name="Trazado 590491" d="M60.548,149.725H56.681V123.082c0-2.914-2.144-5.633-4.78-5.633H30.179c-2.636,0-4.78,2.719-4.78,5.633v19.8H21.532v-19.8c0-5.272,3.879-9.562,8.647-9.562H51.9c4.768,0,8.647,4.29,8.647,9.562Z" transform="translate(9.655 50.904)" fill="#ff5050"/>
        <g id="Grupo_848571" data-name="Grupo 848571" transform="translate(31.187 164.565)" opacity="0.7" style="mix-blend-mode: multiply;isolation: isolate">
          <g id="Grupo_848570" data-name="Grupo 848570">
            <g id="Grupo_848569" data-name="Grupo 848569" clip-path="url(#clip-path-6)">
              <path id="Trazado_590492" data-name="Trazado 590492" d="M23.671,115.789a10.108,10.108,0,0,0-2.139,6.276v19.8H25.4v-19.8a6.217,6.217,0,0,1,1.2-3.643Z" transform="translate(-21.532 -112.644)" fill="#7a5353"/>
              <path id="Trazado_590493" data-name="Trazado 590493" d="M44.536,113.617l-3.408,3.789h1.984c2.636,0,4.781,2.717,4.781,5.633v26.642h3.866V123.039c0-4.736-3.133-8.667-7.225-9.422" transform="translate(-12.745 -113.618)" fill="#7a5353"/>
            </g>
          </g>
        </g>
        <path id="Trazado_590494" data-name="Trazado 590494" d="M27.022,118.263H21.776a2.254,2.254,0,0,0-2.254,2.254v.952a2.254,2.254,0,0,0,2.254,2.254h5.246a2.254,2.254,0,0,0,2.254-2.254v-.952a2.254,2.254,0,0,0-2.254-2.254" transform="translate(8.754 53.031)" fill="#ff5050"/>
        <path id="Trazado_590495" data-name="Trazado 590495" d="M51.145,118.263H45.9a2.253,2.253,0,0,0-2.254,2.254v.952a2.253,2.253,0,0,0,2.254,2.254h5.246a2.254,2.254,0,0,0,2.254-2.254v-.952a2.254,2.254,0,0,0-2.254-2.254" transform="translate(19.571 53.031)" fill="#ff5050"/>
        <rect id="Rectángulo_281582" data-name="Rectángulo 281582" width="3.672" height="41.381" transform="translate(20.111 190.984)" fill="#492e34"/>
        <rect id="Rectángulo_281583" data-name="Rectángulo 281583" width="3.672" height="41.383" transform="translate(42.523 190.984)" fill="#492e34"/>
        <path id="Trazado_590496" data-name="Trazado 590496" d="M42.526,125.316c0-7.43-29.989-7.43-29.989,0v43.479c0,6.493,29.989,6.493,29.989,0Z" transform="translate(5.622 53.695)" fill="#fff5e3"/>
        <rect id="Rectángulo_281584" data-name="Rectángulo 281584" width="3.772" height="41.383" transform="translate(54.697 190.984)" fill="#492e34"/>
        <rect id="Rectángulo_281585" data-name="Rectángulo 281585" width="3.772" height="41.383" transform="translate(77.716 190.984)" fill="#664249"/>
        <path id="Trazado_590497" data-name="Trazado 590497" d="M66.648,125.316c0-7.43-29.989-7.43-29.989,0v43.479c0,6.493,29.989,6.493,29.989,0Z" transform="translate(16.438 53.695)" fill="#fff5e3"/>
        <rect id="Rectángulo_281586" data-name="Rectángulo 281586" width="29.989" height="10.122" transform="translate(53.097 189.876)" fill="#906f93"/>
        <rect id="Rectángulo_281587" data-name="Rectángulo 281587" width="29.989" height="6.487" transform="translate(53.097 202.464)" fill="#906f93"/>
        <g id="Grupo_848574" data-name="Grupo 848574" transform="translate(53.097 173.57)" opacity="0.7" style="mix-blend-mode: multiply;isolation: isolate">
          <g id="Grupo_848573" data-name="Grupo 848573">
            <g id="Grupo_848572" data-name="Grupo 848572" clip-path="url(#clip-path-7)">
              <path id="Trazado_590498" data-name="Trazado 590498" d="M55.063,119.834l-18.4,21.712v27.208c0,6.493,29.989,6.493,29.989,0V125.276c0-3.147-5.382-4.961-11.586-5.442" transform="translate(-36.659 -119.835)" fill="#7a5353"/>
            </g>
          </g>
        </g>
        <path id="Trazado_590499" data-name="Trazado 590499" d="M172.665,12.978H160.81l-.623,214h13.1Z" transform="translate(71.83 5.82)" fill="#ff5050"/>
        <path id="Trazado_590500" data-name="Trazado 590500" d="M160.555,39.153H172.59l-.046-15.6H160.6Z" transform="translate(71.995 10.563)" fill="#fff5e3"/>
        <path id="Trazado_590501" data-name="Trazado 590501" d="M160.508,51.332h12.171l-.007-2.766H160.517Z" transform="translate(71.974 21.777)" fill="#fff5e3"/>
        <g id="Grupo_848577" data-name="Grupo 848577" transform="translate(232.017 18.798)" opacity="0.7" style="mix-blend-mode: multiply;isolation: isolate">
          <g id="Grupo_848576" data-name="Grupo 848576">
            <g id="Grupo_848575" data-name="Grupo 848575" clip-path="url(#clip-path-8)">
              <path id="Trazado_590502" data-name="Trazado 590502" d="M165.637,214.721l.588-201.743h-5.414l-.624,214h13.1l-.035-12.262Z" transform="translate(-160.187 -12.978)" fill="#7a5353"/>
            </g>
          </g>
        </g>
        <rect id="Rectángulo_281590" data-name="Rectángulo 281590" width="16.596" height="18.198" transform="translate(230.271 141.814)" fill="#664249"/>
        <path id="Trazado_590503" data-name="Trazado 590503" d="M164.79,107.349V97.91h-5.81v18.2h16.6v-8.759Z" transform="translate(71.289 43.904)" fill="#3f262c"/>
        <rect id="Rectángulo_281591" data-name="Rectángulo 281591" width="20.382" height="18.198" transform="translate(228.376 154.626)" fill="#eddcc0"/>
        <rect id="Rectángulo_281592" data-name="Rectángulo 281592" width="20.382" height="6.925" transform="translate(228.376 166.685)" fill="#c4b09d"/>
        <rect id="Rectángulo_281593" data-name="Rectángulo 281593" width="8.692" height="18.198" transform="translate(228.377 154.626)" fill="#c4b09d"/>
        <rect id="Rectángulo_281594" data-name="Rectángulo 281594" width="52.046" height="62.892" transform="translate(213.818 169.911)" fill="#c4b09d"/>
        <rect id="Rectángulo_281595" data-name="Rectángulo 281595" width="52.976" height="1.913" transform="translate(212.888 170.494)" fill="#c4b09d"/>
        <rect id="Rectángulo_281596" data-name="Rectángulo 281596" width="6.521" height="10.915" transform="translate(230.337 175.312)" fill="#6a5472"/>
        <rect id="Rectángulo_281597" data-name="Rectángulo 281597" width="6.521" height="10.915" transform="translate(242.795 175.312)" fill="#6a5472"/>
        <rect id="Rectángulo_281598" data-name="Rectángulo 281598" width="6.521" height="10.915" transform="translate(255.251 175.312)" fill="#6a5472"/>
        <path id="Trazado_590504" data-name="Trazado 590504" d="M158.263,160.226V117.308h-10.64V180.2h52.046V160.226Z" transform="translate(66.196 52.603)" fill="#664249"/>
        <rect id="Rectángulo_281599" data-name="Rectángulo 281599" width="44.572" height="8.175" transform="translate(166.785 117.65)" fill="#664249"/>
        <rect id="Rectángulo_281600" data-name="Rectángulo 281600" width="10.617" height="8.175" transform="translate(165.855 117.65)" fill="#3f262c"/>
        <rect id="Rectángulo_281601" data-name="Rectángulo 281601" width="112.306" height="8.175" transform="translate(103.094 123.879)" fill="#664249"/>
        <rect id="Rectángulo_281602" data-name="Rectángulo 281602" width="3.504" height="8.175" transform="translate(103.094 123.879)" fill="#3f262c"/>
        <rect id="Rectángulo_281603" data-name="Rectángulo 281603" width="52.976" height="1.913" transform="translate(213.354 169.392)" fill="#ff5050"/>
        <g id="Grupo_848580" data-name="Grupo 848580" transform="translate(210.434 169.392)" opacity="0.7" style="mix-blend-mode: multiply;isolation: isolate">
          <g id="Grupo_848579" data-name="Grupo 848579">
            <g id="Grupo_848578" data-name="Grupo 848578" clip-path="url(#clip-path-9)">
              <rect id="Rectángulo_281604" data-name="Rectángulo 281604" width="13.14" height="1.913" fill="#7a5353"/>
            </g>
          </g>
        </g>
        <rect id="Rectángulo_281606" data-name="Rectángulo 281606" width="120.833" height="91.425" transform="translate(98.664 127.11)" fill="#fff5e3"/>
        <path id="Trazado_590505" data-name="Trazado 590505" d="M180.409,87.758h-69.8l-34.6,91.425h69.8Z" transform="translate(34.086 39.352)" fill="#fffbee"/>
        <rect id="Rectángulo_281607" data-name="Rectángulo 281607" width="116.929" height="9.226" transform="translate(102.568 212.232)" fill="#c4b09d"/>
        <rect id="Rectángulo_281608" data-name="Rectángulo 281608" width="9.49" height="91.425" transform="translate(98.665 127.11)" fill="#c4b09d"/>
        <rect id="Rectángulo_281609" data-name="Rectángulo 281609" width="73.81" height="8.735" transform="translate(9.277 230.327)" fill="#492e34"/>
        <rect id="Rectángulo_281610" data-name="Rectángulo 281610" width="29.714" height="8.735" transform="translate(21.8 230.327)" fill="#664249"/>
        <path id="Trazado_590506" data-name="Trazado 590506" d="M172.822,133.951l-10.843-.043v24.458h10.712Z" transform="translate(72.634 60.046)" fill="#eddcc0"/>
        <rect id="Rectángulo_281611" data-name="Rectángulo 281611" width="11.127" height="3.856" transform="translate(234.207 193.578)" fill="#c62b1a"/>
        <path id="Trazado_590507" data-name="Trazado 590507" d="M192.072,133.951l-10.843-.043v24.458h10.712Z" transform="translate(81.266 60.046)" fill="#eddcc0"/>
        <rect id="Rectángulo_281612" data-name="Rectángulo 281612" width="11.127" height="3.856" transform="translate(262.089 193.578)" fill="#c62b1a"/>
        <rect id="Rectángulo_281613" data-name="Rectángulo 281613" width="172.078" height="24.458" transform="translate(74.789 214.605)" fill="#fff5e3"/>
        <rect id="Rectángulo_281614" data-name="Rectángulo 281614" width="5.45" height="24.458" transform="translate(242.649 214.604)" fill="#eddcc0"/>
        <rect id="Rectángulo_281615" data-name="Rectángulo 281615" width="16.106" height="24.458" transform="translate(74.789 214.604)" fill="#c4b09d"/>
        <rect id="Rectángulo_281616" data-name="Rectángulo 281616" width="131.024" height="6.77" transform="translate(104.925 232.293)" fill="#c4b09d"/>
        <rect id="Rectángulo_281617" data-name="Rectángulo 281617" width="120.986" height="3.395" transform="translate(106.18 235.667)" fill="#eddcc0"/>
        <rect id="Rectángulo_281618" data-name="Rectángulo 281618" width="30.353" height="3.276" transform="translate(101.588 222.029)" fill="#6a5472"/>
        <rect id="Rectángulo_281619" data-name="Rectángulo 281619" width="9.486" height="3.276" transform="translate(77.324 222.029)" fill="#48344c"/>
        <rect id="Rectángulo_281620" data-name="Rectángulo 281620" width="30.353" height="3.276" transform="translate(136.965 222.029)" fill="#6a5472"/>
        <rect id="Rectángulo_281621" data-name="Rectángulo 281621" width="8.363" height="3.276" transform="translate(223.575 222.029)" fill="#6a5472"/>
        <rect id="Rectángulo_281622" data-name="Rectángulo 281622" width="8.363" height="3.276" transform="translate(211.247 222.029)" fill="#6a5472"/>
        <rect id="Rectángulo_281623" data-name="Rectángulo 281623" width="4.606" height="4.531" transform="translate(197.558 234.532)" fill="#6a5472"/>
        <rect id="Rectángulo_281624" data-name="Rectángulo 281624" width="4.606" height="4.531" transform="translate(187.826 234.532)" fill="#6a5472"/>
        <rect id="Rectángulo_281625" data-name="Rectángulo 281625" width="4.606" height="4.531" transform="translate(164.73 234.532)" fill="#6a5472"/>
        <rect id="Rectángulo_281626" data-name="Rectángulo 281626" width="4.606" height="4.531" transform="translate(141.632 234.532)" fill="#6a5472"/>
        <path id="Trazado_590508" data-name="Trazado 590508" d="M150,36.68H121.378a2.33,2.33,0,0,0-2.331,2.331v.983a2.33,2.33,0,0,0,2.331,2.331H150a2.33,2.33,0,0,0,2.33-2.331v-.983A2.33,2.33,0,0,0,150,36.68" transform="translate(53.383 16.448)" fill="#ff5050"/>
        <g id="Grupo_848583" data-name="Grupo 848583" transform="translate(172.43 53.128)" opacity="0.7" style="mix-blend-mode: multiply;isolation: isolate">
          <g id="Grupo_848582" data-name="Grupo 848582">
            <g id="Grupo_848581" data-name="Grupo 848581" clip-path="url(#clip-path-10)">
              <path id="Trazado_590509" data-name="Trazado 590509" d="M129.9,40.108V38.9a2.216,2.216,0,0,1,2.216-2.216H121.262a2.216,2.216,0,0,0-2.216,2.216v1.212a2.216,2.216,0,0,0,2.216,2.216h10.856a2.216,2.216,0,0,1-2.216-2.216" transform="translate(-119.047 -36.68)" fill="#7a5353"/>
            </g>
          </g>
        </g>
        <path id="Trazado_590510" data-name="Trazado 590510" d="M173.5,11.417H161.177a2.33,2.33,0,0,0-2.331,2.33v.983a2.33,2.33,0,0,0,2.331,2.331H173.5a2.33,2.33,0,0,0,2.33-2.331v-.983a2.33,2.33,0,0,0-2.33-2.33" transform="translate(71.229 5.12)" fill="#ff5050"/>
        <g id="Grupo_848586" data-name="Grupo 848586" transform="translate(230.075 16.537)" opacity="0.7" style="mix-blend-mode: multiply;isolation: isolate">
          <g id="Grupo_848585" data-name="Grupo 848585">
            <g id="Grupo_848584" data-name="Grupo 848584" clip-path="url(#clip-path-11)">
              <path id="Trazado_590511" data-name="Trazado 590511" d="M165.872,14.845V13.633a2.142,2.142,0,0,1,2.06-2.216h-7.026a2.142,2.142,0,0,0-2.06,2.216v1.212a2.142,2.142,0,0,0,2.06,2.216h7.026a2.142,2.142,0,0,1-2.06-2.216" transform="translate(-158.846 -11.417)" fill="#7a5353"/>
            </g>
          </g>
        </g>
        <rect id="Rectángulo_281629" data-name="Rectángulo 281629" width="104.309" height="32.67" transform="translate(111.684 152.572)" fill="#6a5472"/>
        <rect id="Rectángulo_281630" data-name="Rectángulo 281630" width="104.044" height="16.797" transform="translate(111.949 167.068)" fill="#906f93"/>
        <rect id="Rectángulo_281631" data-name="Rectángulo 281631" width="104.309" height="1.737" transform="translate(111.684 183.496)" fill="#48344c"/>
        <rect id="Rectángulo_281632" data-name="Rectángulo 281632" width="104.309" height="4.132" transform="translate(111.684 152.572)" fill="#48344c"/>
        <rect id="Rectángulo_281633" data-name="Rectángulo 281633" width="2.076" height="36.203" transform="translate(125.431 150.934)" fill="#fff5e3"/>
        <rect id="Rectángulo_281634" data-name="Rectángulo 281634" width="2.076" height="36.203" transform="translate(144.116 150.934)" fill="#fffbee"/>
        <rect id="Rectángulo_281635" data-name="Rectángulo 281635" width="2.076" height="36.203" transform="translate(162.801 150.934)" fill="#fffbee"/>
        <rect id="Rectángulo_281636" data-name="Rectángulo 281636" width="2.076" height="36.203" transform="translate(181.487 150.934)" fill="#fffbee"/>
        <rect id="Rectángulo_281637" data-name="Rectángulo 281637" width="2.076" height="36.203" transform="translate(200.172 150.934)" fill="#fff5e3"/>
        <rect id="Rectángulo_281638" data-name="Rectángulo 281638" width="0.633" height="32.67" transform="translate(111.567 152.572)" fill="#48344c"/>
        <rect id="Rectángulo_281639" data-name="Rectángulo 281639" width="3.172" height="32.67" transform="translate(212.821 152.572)" fill="#48344c"/>
        <path id="Trazado_590512" data-name="Trazado 590512" d="M197.773,153.772l-28.389-19.326v44.33h28.389Z" transform="translate(75.954 60.287)" fill="#fff5e3"/>
        <rect id="Rectángulo_281640" data-name="Rectángulo 281640" width="13.141" height="13.685" transform="translate(252.962 225.378)" fill="#664249"/>
        <rect id="Rectángulo_281641" data-name="Rectángulo 281641" width="11.779" height="12.823" transform="translate(253.644 226.24)" fill="#ffae39"/>
        <rect id="Rectángulo_281642" data-name="Rectángulo 281642" width="11.779" height="9.738" transform="translate(253.644 229.325)" fill="#ffda64"/>
        <rect id="Rectángulo_281643" data-name="Rectángulo 281643" width="11.779" height="0.736" transform="translate(253.644 237.062)" fill="#ffae39"/>
        <rect id="Rectángulo_281644" data-name="Rectángulo 281644" width="11.779" height="0.736" transform="translate(253.644 235.066)" fill="#ffae39"/>
        <rect id="Rectángulo_281645" data-name="Rectángulo 281645" width="11.779" height="0.736" transform="translate(253.644 233.072)" fill="#ffae39"/>
        <rect id="Rectángulo_281646" data-name="Rectángulo 281646" width="11.779" height="0.736" transform="translate(253.644 231.076)" fill="#ffae39"/>
        <rect id="Rectángulo_281647" data-name="Rectángulo 281647" width="132.488" height="1.947" transform="translate(104.192 231.125)" fill="#ff5050"/>
        <rect id="Rectángulo_281648" data-name="Rectángulo 281648" width="3.049" height="25.065" transform="translate(270.873 213.996)" fill="#eddcc0"/>
        <path id="Trazado_590513" data-name="Trazado 590513" d="M197.819,158.47v-3.893L169.43,135.252l-.149,3.863Z" transform="translate(75.908 60.649)" fill="#eddcc0"/>
        <path id="Trazado_590514" data-name="Trazado 590514" d="M197.811,156.858v-3.893L169.422,133.64l-.125,3.838Z" transform="translate(75.916 59.926)" fill="#ff5050"/>
        <path id="Trazado_590515" data-name="Trazado 590515" d="M217.02,153.772l-28.389-19.326v44.33H217.02Z" transform="translate(84.585 60.287)" fill="#fff5e3"/>
        <path id="Trazado_590516" data-name="Trazado 590516" d="M217.085,158.739v-3.893L188.7,135.521l-.21,3.806Z" transform="translate(84.52 60.77)" fill="#eddcc0"/>
        <path id="Trazado_590517" data-name="Trazado 590517" d="M217.06,156.858v-3.893L188.671,133.64l-.129,3.854Z" transform="translate(84.545 59.926)" fill="#ff5050"/>
        <rect id="Rectángulo_281649" data-name="Rectángulo 281649" width="13.141" height="13.685" transform="translate(280.839 225.378)" fill="#664249"/>
        <rect id="Rectángulo_281650" data-name="Rectángulo 281650" width="11.779" height="12.823" transform="translate(281.521 226.24)" fill="#ffae39"/>
        <rect id="Rectángulo_281651" data-name="Rectángulo 281651" width="11.779" height="9.738" transform="translate(281.521 229.325)" fill="#ffda64"/>
        <rect id="Rectángulo_281652" data-name="Rectángulo 281652" width="11.779" height="0.736" transform="translate(281.521 237.062)" fill="#ffae39"/>
        <rect id="Rectángulo_281653" data-name="Rectángulo 281653" width="11.779" height="0.736" transform="translate(281.521 235.067)" fill="#ffae39"/>
        <rect id="Rectángulo_281654" data-name="Rectángulo 281654" width="11.779" height="0.736" transform="translate(281.521 233.072)" fill="#ffae39"/>
        <rect id="Rectángulo_281655" data-name="Rectángulo 281655" width="11.779" height="0.736" transform="translate(281.521 231.076)" fill="#ffae39"/>
        <path id="Trazado_590518" data-name="Trazado 590518" d="M78.9,97.409a6.91,6.91,0,1,0,6.91-6.91,6.909,6.909,0,0,0-6.91,6.91" transform="translate(35.382 40.581)" fill="#664249"/>
        <path id="Trazado_590519" data-name="Trazado 590519" d="M80.886,96.52a4.039,4.039,0,1,0,4.038-4.038,4.038,4.038,0,0,0-4.038,4.038" transform="translate(36.271 41.47)" fill="#fff5e3"/>
        <path id="Trazado_590520" data-name="Trazado 590520" d="M84.359,96.591l4.652-3.158a6.53,6.53,0,0,0-1.926-1.926l-3.158,4.652Z" transform="translate(37.634 41.033)" fill="#fff5e3"/>
        <path id="Trazado_590521" data-name="Trazado 590521" d="M84.563,95.523l-4.652,3.158a6.53,6.53,0,0,0,1.926,1.926l3.158-4.652Z" transform="translate(35.833 42.834)" fill="#fff5e3"/>
        <path id="Trazado_590522" data-name="Trazado 590522" d="M83.927,95.955l3.158,4.652a6.53,6.53,0,0,0,1.926-1.926l-4.652-3.158Z" transform="translate(37.634 42.834)" fill="#fff5e3"/>
        <path id="Trazado_590523" data-name="Trazado 590523" d="M84.995,96.159l-3.158-4.652a6.53,6.53,0,0,0-1.926,1.926l4.652,3.158Z" transform="translate(35.833 41.033)" fill="#fff5e3"/>
        <path id="Trazado_590524" data-name="Trazado 590524" d="M93.375,94.384a6.91,6.91,0,1,0,9.238-3.188,6.911,6.911,0,0,0-9.238,3.188" transform="translate(41.557 40.581)" fill="#664249"/>
        <path id="Trazado_590525" data-name="Trazado 590525" d="M95.3,94.8a3.642,3.642,0,1,0,4.868-1.68A3.641,3.641,0,0,0,95.3,94.8" transform="translate(42.57 41.593)" fill="#fff5e3"/>
        <path id="Trazado_590526" data-name="Trazado 590526" d="M98.111,96.321l5.526-.8a6.467,6.467,0,0,0-.882-2.558l-4.841,2.781Z" transform="translate(43.906 41.688)" fill="#fff5e3"/>
        <path id="Trazado_590527" data-name="Trazado 590527" d="M98.557,95.256l-5.526.8a6.467,6.467,0,0,0,.882,2.558l4.841-2.781Z" transform="translate(41.717 42.714)" fill="#fff5e3"/>
        <path id="Trazado_590528" data-name="Trazado 590528" d="M97.435,95.933l.8,5.526a6.468,6.468,0,0,0,2.556-.882l-2.781-4.841Z" transform="translate(43.691 42.929)" fill="#fff5e3"/>
        <path id="Trazado_590529" data-name="Trazado 590529" d="M98.5,96.379l-.8-5.526a6.476,6.476,0,0,0-2.556.882l2.781,4.841Z" transform="translate(42.665 40.74)" fill="#fff5e3"/>
        <rect id="Rectángulo_281656" data-name="Rectángulo 281656" width="29.989" height="10.122" transform="translate(18.159 203.617)" fill="#ff5050"/>
        <rect id="Rectángulo_281657" data-name="Rectángulo 281657" width="29.989" height="6.487" transform="translate(18.159 194.663)" fill="#ff5050"/>
        <g id="Grupo_848589" data-name="Grupo 848589" transform="translate(18.158 174.037)" opacity="0.7" style="mix-blend-mode: multiply;isolation: isolate">
          <g id="Grupo_848588" data-name="Grupo 848588">
            <g id="Grupo_848587" data-name="Grupo 848587" clip-path="url(#clip-path-12)">
              <path id="Trazado_590530" data-name="Trazado 590530" d="M20.44,164.064V120.157c-4.506.817-7.9,2.475-7.9,4.975v43.477c0,6.495,29.989,6.495,29.989,0V142.225Z" transform="translate(-12.536 -120.156)" fill="#7a5353"/>
            </g>
          </g>
        </g>
        <rect id="Rectángulo_281659" data-name="Rectángulo 281659" width="312.719" height="3.893" transform="translate(0 238.521)" fill="#ff5050"/>
        <rect id="Rectángulo_281660" data-name="Rectángulo 281660" width="8.078" height="3.017" transform="translate(255.493 217.89)" fill="#6a5472"/>
        <rect id="Rectángulo_281661" data-name="Rectángulo 281661" width="8.078" height="3.017" transform="translate(283.371 217.89)" fill="#6a5472"/>
      </g>
    </g>
  </g>
</svg>
