<svg id="Grupo_848748" data-name="Grupo 848748" xmlns="http://www.w3.org/2000/svg" xmlns:xlink="http://www.w3.org/1999/xlink" width="312.719" height="210.311" viewBox="0 0 312.719 210.311">
  <defs>
    <clipPath id="clip-path">
      <rect id="Rectángulo_281769" data-name="Rectángulo 281769" width="312.719" height="210.311" fill="none"/>
    </clipPath>
    <clipPath id="clip-path-3">
      <rect id="Rectángulo_281735" data-name="Rectángulo 281735" width="67.642" height="68.45" fill="none"/>
    </clipPath>
  </defs>
  <g id="Grupo_848632" data-name="Grupo 848632" clip-path="url(#clip-path)">
    <g id="Grupo_848631" data-name="Grupo 848631">
      <g id="Grupo_848630" data-name="Grupo 848630" clip-path="url(#clip-path)">
        <path id="Trazado_590559" data-name="Trazado 590559" d="M207.193,154.488h-2.839V88.827c0-2.941-1.991-5.332-4.439-5.332H182.761c-2.448,0-4.439,2.391-4.439,5.332v5.442h-2.839V88.827c0-4.821,3.266-8.743,7.278-8.743h17.154c4.013,0,7.278,3.922,7.278,8.743Z" transform="translate(91.476 41.746)" fill="#ff5050"/>
        <rect id="Rectángulo_281733" data-name="Rectángulo 281733" width="1.208" height="116.376" transform="translate(28.871 78.408)" fill="#664249"/>
        <rect id="Rectángulo_281734" data-name="Rectángulo 281734" width="4.439" height="13.93" transform="translate(27.21 175.376)" fill="#442a30"/>
        <path id="Trazado_590560" data-name="Trazado 590560" d="M192.283,86.863a111.146,111.146,0,0,0-33.5,0v14.931h33.5Z" transform="translate(82.77 44.618)" fill="#c4b09d"/>
        <path id="Trazado_590561" data-name="Trazado 590561" d="M215.2,93.145c-22.237-7.354-44.8-6.949-67.642,0v63.1H215.2Z" transform="translate(76.921 45.758)" fill="#eddcc0"/>
        <path id="Trazado_590562" data-name="Trazado 590562" d="M215.2,103.721V97.8a208.543,208.543,0,0,0-67.641,0v5.942a218.212,218.212,0,0,1,67.641-.018" transform="translate(76.921 49.54)" fill="#95cbdb"/>
        <path id="Trazado_590563" data-name="Trazado 590563" d="M215.2,115.188V104.236a208.543,208.543,0,0,0-67.641,0l0,10.97a218.222,218.222,0,0,1,67.642-.018" transform="translate(76.921 52.897)" fill="#95cbdb"/>
        <g id="Grupo_848629" data-name="Grupo 848629" transform="translate(224.482 133.549)" opacity="0.3" style="mix-blend-mode: multiply;isolation: isolate">
          <g id="Grupo_848628" data-name="Grupo 848628">
            <g id="Grupo_848627" data-name="Grupo 848627" clip-path="url(#clip-path-3)">
              <path id="Trazado_590564" data-name="Trazado 590564" d="M190.765,88.146a114.91,114.91,0,0,0-43.2,5v63.1H215.2V145.524Z" transform="translate(-147.56 -87.787)" fill="#7a5353"/>
            </g>
          </g>
        </g>
        <path id="Trazado_590565" data-name="Trazado 590565" d="M184.607,123.9,144.789,84.353l-.006,2.7L184.6,126.6Z" transform="translate(75.472 43.972)" fill="#3f262c"/>
        <rect id="Rectángulo_281736" data-name="Rectángulo 281736" width="24.99" height="2.694" transform="translate(224.984 88.014)" fill="#3f262c"/>
        <rect id="Rectángulo_281737" data-name="Rectángulo 281737" width="35.047" height="2.694" transform="translate(220 127.193)" fill="#3f262c"/>
        <path id="Trazado_590566" data-name="Trazado 590566" d="M141.705,123.9l38.958-39.549,0,2.7L141.7,126.6Z" transform="translate(73.866 43.972)" fill="#3f262c"/>
        <path id="Trazado_590567" data-name="Trazado 590567" d="M177.011,95.676,148.864,57.495l0,2.6,28.147,38.181Z" transform="translate(77.597 29.971)" fill="#3f262c"/>
        <path id="Trazado_590568" data-name="Trazado 590568" d="M145.275,95.644l28.542-38.076,0,2.6L145.271,98.24Z" transform="translate(75.727 30.009)" fill="#3f262c"/>
        <path id="Trazado_590569" data-name="Trazado 590569" d="M169.508,73.108l-16.13-47.052-.006,3.208L169.5,76.317Z" transform="translate(79.949 13.583)" fill="#3f262c"/>
        <path id="Trazado_590570" data-name="Trazado 590570" d="M148.885,73.07,165.07,26.148l-.006,3.2L148.879,76.269Z" transform="translate(77.608 13.63)" fill="#3f262c"/>
        <path id="Trazado_590571" data-name="Trazado 590571" d="M161.07,24.876h-2.74L139.4,163.144h2.74Z" transform="translate(72.664 12.967)" fill="#3f262c"/>
        <path id="Trazado_590572" data-name="Trazado 590572" d="M104.037,56.107l-3.047.018L95.1,64.469l-15.22,49.01.091,11.1,2.95-.012s16.863-12.61,20.23-18.178c2.734-4.523,6.093-15.494,6.42-21.068.4-6.788-5.534-29.215-5.534-29.215m-17.3,61.414L84.154,114.5,89,98.583l11.9,5.449c-3.44,4.692-14.162,13.489-14.162,13.489m8-37.751,4.511-14.8,3.776-.3s3.169,14.012,3.449,20.478Z" transform="translate(41.64 29.247)" fill="#c4b09d"/>
        <rect id="Rectángulo_281738" data-name="Rectángulo 281738" width="23.73" height="11.448" transform="translate(70.583 164.065)" fill="#c62b1a"/>
        <path id="Trazado_590573" data-name="Trazado 590573" d="M66.942,73.911H55.357l-3.925,30.3H66.942Z" transform="translate(26.81 38.528)" fill="#c62b1a"/>
        <path id="Trazado_590574" data-name="Trazado 590574" d="M54.269,62.845H74.324v103.7H59Z" transform="translate(28.289 32.76)" fill="#c62b1a"/>
        <path id="Trazado_590575" data-name="Trazado 590575" d="M75.478,62.845H65.819l-32.2,103.7H54.55Z" transform="translate(17.527 32.76)" fill="#c62b1a"/>
        <path id="Trazado_590576" data-name="Trazado 590576" d="M52.108,67.3c0,8.369,5.647,15.152,12.613,15.152S77.334,75.667,77.334,67.3s-5.647-15.15-12.613-15.15S52.108,58.931,52.108,67.3" transform="translate(27.163 27.184)" fill="#c62b1a"/>
        <rect id="Rectángulo_281739" data-name="Rectángulo 281739" width="18.662" height="5.836" transform="translate(85.344 187.184)" fill="#c62b1a"/>
        <rect id="Rectángulo_281740" data-name="Rectángulo 281740" width="23.735" height="5.836" transform="translate(51.763 187.184)" fill="#c62b1a"/>
        <rect id="Rectángulo_281741" data-name="Rectángulo 281741" width="1.246" height="45.667" transform="translate(145.46 123.288)" fill="#442a30"/>
        <rect id="Rectángulo_281742" data-name="Rectángulo 281742" width="1.246" height="48.089" transform="translate(145.46 151.107)" fill="#664249"/>
        <path id="Trazado_590577" data-name="Trazado 590577" d="M102.739,80.137l-7.915-3.625,2.431,16.644,1.608-.733Z" transform="translate(49.429 39.884)" fill="#442a30"/>
        <path id="Trazado_590578" data-name="Trazado 590578" d="M103.24,80.137l-7.915-3.625-4.127,13,7.915,3.627Z" transform="translate(47.539 39.884)" fill="#664249"/>
        <path id="Trazado_590579" data-name="Trazado 590579" d="M133.392,94.791,27.975,42.661c-3.656-1.8-7.822.414-9.179,4.87s.636,9.376,4.393,10.839l108.522,42.705Z" transform="translate(9.575 21.913)" fill="#442a30"/>
        <path id="Trazado_590580" data-name="Trazado 590580" d="M129.421,94.791,24.005,42.661c-3.656-1.8-7.822.414-9.181,4.87s.636,9.376,4.393,10.839L127.74,101.075Z" transform="translate(7.505 21.913)" fill="#664249"/>
        <path id="Trazado_590581" data-name="Trazado 590581" d="M83,81.477l14.918,5.871.02-7.908L83,72.825Z" transform="translate(43.265 37.962)" fill="#442a30"/>
        <path id="Trazado_590582" data-name="Trazado 590582" d="M49.945,70l22.589,8.889.029-11.974L49.945,56.9Z" transform="translate(26.035 29.663)" fill="#442a30"/>
        <rect id="Rectángulo_281743" data-name="Rectángulo 281743" width="23.73" height="11.448" transform="translate(58.26 164.065)" fill="#ff5050"/>
        <path id="Trazado_590583" data-name="Trazado 590583" d="M58.842,73.911H47.258l-3.925,30.3H58.842Z" transform="translate(22.589 38.528)" fill="#ff5050"/>
        <path id="Trazado_590584" data-name="Trazado 590584" d="M46.272,67.3c0,8.369,5.647,15.152,12.613,15.152S71.5,75.667,71.5,67.3s-5.647-15.15-12.613-15.15S46.272,58.931,46.272,67.3" transform="translate(24.121 27.184)" fill="#c62b1a"/>
        <path id="Trazado_590585" data-name="Trazado 590585" d="M46.169,62.845H66.224v103.7H50.9Z" transform="translate(24.067 32.76)" fill="#ff5050"/>
        <path id="Trazado_590586" data-name="Trazado 590586" d="M67.379,62.845H57.72l-32.2,103.7H46.45Z" transform="translate(13.305 32.76)" fill="#ff5050"/>
        <rect id="Rectángulo_281744" data-name="Rectángulo 281744" width="4.057" height="145.307" transform="translate(231.204 27.89)" fill="#442a30"/>
        <rect id="Rectángulo_281745" data-name="Rectángulo 281745" width="9.739" height="15.846" transform="translate(228.362 32.155)" fill="#442a30"/>
        <rect id="Rectángulo_281746" data-name="Rectángulo 281746" width="8.128" height="12.907" transform="translate(229.169 162.045)" fill="#442a30"/>
        <path id="Trazado_590587" data-name="Trazado 590587" d="M158.925,24.876h2.741L180.6,163.144h-2.74Z" transform="translate(82.844 12.967)" fill="#3f262c"/>
        <path id="Trazado_590588" data-name="Trazado 590588" d="M152.731,24.876h2.74l18.935,138.268h-2.74Z" transform="translate(79.616 12.967)" fill="#664249"/>
        <path id="Trazado_590589" data-name="Trazado 590589" d="M154.877,24.876h-2.74L133.2,163.144h2.74Z" transform="translate(69.435 12.967)" fill="#664249"/>
        <rect id="Rectángulo_281747" data-name="Rectángulo 281747" width="36.374" height="2.694" transform="translate(209.614 126.43)" fill="#664249"/>
        <path id="Trazado_590590" data-name="Trazado 590590" d="M179.767,123.793l-41.98-39.5v2.693l41.98,39.506Z" transform="translate(71.826 43.938)" fill="#664249"/>
        <path id="Trazado_590591" data-name="Trazado 590591" d="M134.594,123.793l40.921-39.5v2.693l-40.921,39.506Z" transform="translate(70.161 43.938)" fill="#664249"/>
        <path id="Trazado_590592" data-name="Trazado 590592" d="M171.081,95.6l-29.056-38.14v2.6L171.081,98.2Z" transform="translate(74.034 29.952)" fill="#664249"/>
        <path id="Trazado_590593" data-name="Trazado 590593" d="M138.852,95.567l29.119-38.034v2.592L138.852,98.161Z" transform="translate(72.381 29.991)" fill="#664249"/>
        <path id="Trazado_590594" data-name="Trazado 590594" d="M163.779,73.056l-17.066-47v3.205l17.066,47Z" transform="translate(76.478 13.583)" fill="#664249"/>
        <path id="Trazado_590595" data-name="Trazado 590595" d="M142.045,73.018l16.941-46.871v3.2L142.045,76.214Z" transform="translate(74.045 13.63)" fill="#664249"/>
        <rect id="Rectángulo_281748" data-name="Rectángulo 281748" width="25.288" height="2.694" transform="translate(215.156 87.375)" fill="#664249"/>
        <rect id="Rectángulo_281749" data-name="Rectángulo 281749" width="15.509" height="4.713" transform="translate(220.512 36.795)" fill="#ff5050"/>
        <rect id="Rectángulo_281750" data-name="Rectángulo 281750" width="10.993" height="4.713" transform="translate(234.466 36.795)" fill="#c62b1a"/>
        <rect id="Rectángulo_281751" data-name="Rectángulo 281751" width="65.026" height="9.427" transform="translate(195.411 169.677)" fill="#ff5050"/>
        <rect id="Rectángulo_281752" data-name="Rectángulo 281752" width="15.342" height="9.427" transform="translate(253.43 169.677)" fill="#c62b1a"/>
        <path id="Trazado_590596" data-name="Trazado 590596" d="M219.206,116.257H117.558L114.941,140.5H221.823Z" transform="translate(59.916 60.602)" fill="#664249"/>
        <path id="Trazado_590597" data-name="Trazado 590597" d="M196.267,116.257H157.986l3.157,24.242h40.252Z" transform="translate(82.355 60.602)" fill="#3f262c"/>
        <path id="Trazado_590598" data-name="Trazado 590598" d="M56.622,76.67c-6.64,0-12.068-6.167-12.564-13.99-.024.383-.049.768-.049,1.161,0,8.367,5.647,15.15,12.613,15.15s12.613-6.783,12.613-15.15c0-.392-.024-.777-.049-1.161-.5,7.822-5.925,13.99-12.564,13.99" transform="translate(22.941 32.674)" fill="#c62b1a"/>
        <path id="Trazado_590599" data-name="Trazado 590599" d="M44.009,67.3c0,8.369,5.647,15.152,12.613,15.152S69.235,75.667,69.235,67.3s-5.647-15.15-12.613-15.15S44.009,58.931,44.009,67.3" transform="translate(22.941 27.184)" fill="#ff5050"/>
        <path id="Trazado_590600" data-name="Trazado 590600" d="M48.124,64.722c0,4.215,2.843,7.632,6.351,7.632s6.353-3.417,6.353-7.632-2.845-7.632-6.353-7.632-6.351,3.417-6.351,7.632" transform="translate(25.086 29.76)" fill="#442a30"/>
        <path id="Trazado_590601" data-name="Trazado 590601" d="M50.369,63.726c0,2.609,1.762,4.725,3.934,4.725s3.933-2.116,3.933-4.725S56.475,59,54.3,59s-3.934,2.116-3.934,4.725" transform="translate(26.256 30.756)" fill="#eddcc0"/>
        <rect id="Rectángulo_281753" data-name="Rectángulo 281753" width="3.99" height="5.836" transform="translate(148.968 187.184)" fill="#c62b1a"/>
        <rect id="Rectángulo_281754" data-name="Rectángulo 281754" width="7.611" height="5.836" transform="translate(141.814 187.184)" fill="#ff5050"/>
        <path id="Trazado_590602" data-name="Trazado 590602" d="M50.542,121.22H28.949l-1.177,3.713H49.364Z" transform="translate(14.477 63.189)" fill="#c62b1a"/>
        <rect id="Rectángulo_281755" data-name="Rectángulo 281755" width="18.452" height="3.713" transform="translate(73.233 184.409)" fill="#c62b1a"/>
        <rect id="Rectángulo_281756" data-name="Rectángulo 281756" width="18.662" height="5.836" transform="translate(73.023 187.184)" fill="#ff5050"/>
        <rect id="Rectángulo_281757" data-name="Rectángulo 281757" width="23.735" height="5.836" transform="translate(39.442 187.184)" fill="#ff5050"/>
        <rect id="Rectángulo_281758" data-name="Rectángulo 281758" width="9.782" height="5.836" transform="translate(23.767 187.184)" fill="#ff5050"/>
        <rect id="Rectángulo_281759" data-name="Rectángulo 281759" width="3.624" height="5.836" transform="translate(31.83 187.184)" fill="#c62b1a"/>
        <rect id="Rectángulo_281760" data-name="Rectángulo 281760" width="138.56" height="6.706" transform="translate(18.36 191.706)" fill="#664249"/>
        <rect id="Rectángulo_281761" data-name="Rectángulo 281761" width="37.21" height="6.706" transform="translate(127.319 191.706)" fill="#3f262c"/>
        <rect id="Rectángulo_281762" data-name="Rectángulo 281762" width="302.33" height="7.681" transform="translate(5.195 195.664)" fill="#664249"/>
        <rect id="Rectángulo_281763" data-name="Rectángulo 281763" width="312.719" height="7.681" transform="translate(0 202.629)" fill="#ffc043"/>
        <path id="Trazado_590603" data-name="Trazado 590603" d="M102.284,56.107,97,56.325,77.451,120.489l3.718,4.079s16.863-12.61,20.23-18.178c2.734-4.523,6.093-15.494,6.42-21.068.4-6.788-5.534-29.215-5.534-29.215m-17.3,61.414L82.4,114.5l4.85-15.917,11.9,5.449c-3.44,4.692-14.162,13.489-14.162,13.489m8-37.751,4.511-14.8,3.776-.3s3.169,14.012,3.449,20.478Z" transform="translate(40.374 29.247)" fill="#eddcc0"/>
        <rect id="Rectángulo_281764" data-name="Rectángulo 281764" width="3.923" height="7.258" transform="translate(144.121 165.076)" fill="#664249"/>
        <path id="Trazado_590604" data-name="Trazado 590604" d="M87.06,81.238c0,2.851,1.924,5.163,4.3,5.163s4.3-2.312,4.3-5.163-1.924-5.163-4.3-5.163-4.3,2.312-4.3,5.163" transform="translate(45.383 39.656)" fill="#442a30"/>
        <path id="Trazado_590605" data-name="Trazado 590605" d="M89.069,80.714a2.368,2.368,0,1,0,2.329-2.8,2.595,2.595,0,0,0-2.329,2.8" transform="translate(46.43 40.616)" fill="#c4b09d"/>
        <path id="Trazado_590606" data-name="Trazado 590606" d="M16.324,49.734c0,2.81,1.9,5.087,4.235,5.087S24.8,52.543,24.8,49.734s-1.9-5.089-4.237-5.089-4.235,2.279-4.235,5.089" transform="translate(8.509 23.273)" fill="#442a30"/>
        <path id="Trazado_590607" data-name="Trazado 590607" d="M18.042,49.031a2.817,2.817,0,0,0,2.528,3.038,3.089,3.089,0,0,0,0-6.076,2.817,2.817,0,0,0-2.528,3.038" transform="translate(9.405 23.975)" fill="#ff5050"/>
        <path id="Trazado_590608" data-name="Trazado 590608" d="M17.712,76.121a2.818,2.818,0,0,0,2.53,3.038,3.089,3.089,0,0,0,0-6.076,2.818,2.818,0,0,0-2.53,3.038" transform="translate(9.233 38.097)" fill="#442a30"/>
        <path id="Trazado_590609" data-name="Trazado 590609" d="M95.222,111.4a1.244,1.244,0,1,0,1.223-1.47,1.364,1.364,0,0,0-1.223,1.47" transform="translate(49.637 57.304)" fill="#442a30"/>
        <rect id="Rectángulo_281765" data-name="Rectángulo 281765" width="3.02" height="71.394" transform="translate(94.1 112.654)" fill="#442a30"/>
        <rect id="Rectángulo_281766" data-name="Rectángulo 281766" width="7.339" height="3.592" transform="translate(92.53 164.065)" fill="#c62b1a"/>
        <rect id="Rectángulo_281767" data-name="Rectángulo 281767" width="7.339" height="3.592" transform="translate(92.53 139.15)" fill="#c62b1a"/>
        <path id="Trazado_590610" data-name="Trazado 590610" d="M162.487,15.279a6.589,6.589,0,1,0-6.589,6.589,6.589,6.589,0,0,0,6.589-6.589" transform="translate(77.832 4.53)" fill="#ffc043"/>
        <path id="Trazado_590611" data-name="Trazado 590611" d="M126.349,4.277c14.42,11.312,36.112-2.408,45.87,8.329l-8.545,10.069c-14.358-11.375-29.743-8.951-37.325-18.4" transform="translate(65.863 2.23)" fill="#ffc043"/>
        <path id="Trazado_590612" data-name="Trazado 590612" d="M161.6,6.292c-6.154-2.363-17.279.683-22.624-3.853,6.278,7.054,22.081,3.7,21.94,10.815l5.471,9.322c4.226-5.22,1.368-13.921-4.786-16.284" transform="translate(72.444 1.271)" fill="#ffc043"/>
        <path id="Trazado_590613" data-name="Trazado 590613" d="M157.237,8.976c-4.2-.385-10.632,2.352-12.727.86,2.363,2.6,12.319-.867,11.944,3.3l4.517,6c4.387-4.051,1.433-9.686-3.733-10.159" transform="translate(75.33 4.659)" fill="#ff8a33"/>
        <path id="Trazado_590614" data-name="Trazado 590614" d="M119.076,3.461S125.54-1.635,132,.54s8.826,7.955,14.235,7.52c-7.351.887-12.009-5.317-17.746-6.292-4.661-.793-9.417,1.693-9.417,1.693" transform="translate(62.072 0)" fill="#ffc043"/>
        <path id="Trazado_590615" data-name="Trazado 590615" d="M160.091,14.667a4.8,4.8,0,1,0-4.8,4.8,4.8,4.8,0,0,0,4.8-4.8" transform="translate(78.444 5.141)" fill="#ff8a33"/>
      </g>
    </g>
  </g>
</svg>
