<svg xmlns="http://www.w3.org/2000/svg" xmlns:xlink="http://www.w3.org/1999/xlink" width="1052" height="523.504" viewBox="0 0 1052 523.504">
  <defs>
    <clipPath id="clip-path">
      <rect id="Rectángulo_281410" data-name="Rectángulo 281410" width="1030" height="514.158" fill="none"/>
    </clipPath>
    <clipPath id="clip-path-2">
      <rect id="Rectángulo_281411" data-name="Rectángulo 281411" width="905.519" height="451.918" fill="none"/>
    </clipPath>
    <clipPath id="clip-path-3">
      <rect id="Rectángulo_281412" data-name="Rectángulo 281412" width="781.039" height="389.678" fill="none"/>
    </clipPath>
    <clipPath id="clip-path-4">
      <rect id="Rectángulo_281413" data-name="Rectángulo 281413" width="656.557" height="327.438" fill="none"/>
    </clipPath>
    <clipPath id="clip-path-5">
      <rect id="Rectángulo_281414" data-name="Rectángulo 281414" width="532.076" height="265.196" fill="none"/>
    </clipPath>
    <clipPath id="clip-path-6">
      <rect id="Rectángulo_281415" data-name="Rectángulo 281415" width="407.595" height="202.956" fill="none"/>
    </clipPath>
    <clipPath id="clip-path-7">
      <path id="Trazado_590315" data-name="Trazado 590315" d="M171.521,537.082H858.513c-.7-189.122-154.212-342.22-343.5-342.22s-342.8,153.1-343.5,342.22" transform="translate(-171.521 -194.862)" fill="none"/>
    </clipPath>
    <clipPath id="clip-path-8">
      <rect id="Rectángulo_281418" data-name="Rectángulo 281418" width="480.581" height="207.206" fill="none"/>
    </clipPath>
    <clipPath id="clip-path-9">
      <rect id="Rectángulo_281426" data-name="Rectángulo 281426" width="717.682" height="545.494" fill="none"/>
    </clipPath>
    <clipPath id="clip-path-11">
      <rect id="Rectángulo_281420" data-name="Rectángulo 281420" width="639.637" height="486.176" fill="none"/>
    </clipPath>
    <clipPath id="clip-path-12">
      <rect id="Rectángulo_281421" data-name="Rectángulo 281421" width="561.593" height="426.855" fill="none"/>
    </clipPath>
    <clipPath id="clip-path-13">
      <rect id="Rectángulo_281422" data-name="Rectángulo 281422" width="483.55" height="367.538" fill="none"/>
    </clipPath>
    <clipPath id="clip-path-14">
      <rect id="Rectángulo_281423" data-name="Rectángulo 281423" width="405.506" height="308.217" fill="none"/>
    </clipPath>
    <clipPath id="clip-path-15">
      <rect id="Rectángulo_281424" data-name="Rectángulo 281424" width="327.461" height="248.897" fill="none"/>
    </clipPath>
    <clipPath id="clip-path-16">
      <rect id="Rectángulo_281425" data-name="Rectángulo 281425" width="249.418" height="189.578" fill="none"/>
    </clipPath>
    <clipPath id="clip-path-17">
      <rect id="Rectángulo_281427" data-name="Rectángulo 281427" width="240.693" height="50.227" fill="none"/>
    </clipPath>
  </defs>
  <g id="Grupo_852465" data-name="Grupo 852465" transform="translate(-263.093 -512)">
    <g id="Grupo_848467" data-name="Grupo 848467" transform="translate(-141.315 -149.126)">
      <g id="Grupo_848417" data-name="Grupo 848417" transform="translate(426.408 661.126)" opacity="0">
        <g id="Grupo_848416" data-name="Grupo 848416" transform="translate(0 0)">
          <g id="Grupo_848415" data-name="Grupo 848415" clip-path="url(#clip-path)">
            <path id="Trazado_590292" data-name="Trazado 590292" d="M1094.7,603.284c-.462-284.04-230.852-514.158-515-514.158s-514.539,230.118-515,514.158Z" transform="translate(-64.705 -89.126)" fill="#cceff4"/>
          </g>
        </g>
      </g>
      <g id="Grupo_848420" data-name="Grupo 848420" transform="translate(488.649 723.366)" opacity="0.167">
        <g id="Grupo_848419" data-name="Grupo 848419" transform="translate(0 0)">
          <g id="Grupo_848418" data-name="Grupo 848418" clip-path="url(#clip-path-2)">
            <path id="Trazado_590293" data-name="Trazado 590293" d="M1010.607,581.426c-.462-249.665-202.987-451.917-452.76-451.917s-452.3,202.252-452.76,451.917Z" transform="translate(-105.087 -129.507)" fill="#cceff4"/>
          </g>
        </g>
      </g>
      <g id="Grupo_848423" data-name="Grupo 848423" transform="translate(550.889 785.606)" opacity="0.333">
        <g id="Grupo_848422" data-name="Grupo 848422" transform="translate(0 0)">
          <g id="Grupo_848421" data-name="Grupo 848421" clip-path="url(#clip-path-3)">
            <path id="Trazado_590294" data-name="Trazado 590294" d="M926.508,559.568c-.461-215.291-175.121-389.677-390.52-389.677S145.931,344.276,145.469,559.568Z" transform="translate(-145.469 -169.889)" fill="#cceff4"/>
          </g>
        </g>
      </g>
      <g id="Grupo_848426" data-name="Grupo 848426" transform="translate(613.129 847.846)" opacity="0.5">
        <g id="Grupo_848425" data-name="Grupo 848425" transform="translate(0 0)">
          <g id="Grupo_848424" data-name="Grupo 848424" clip-path="url(#clip-path-4)">
            <path id="Trazado_590295" data-name="Trazado 590295" d="M842.41,537.709c-.461-180.916-147.256-327.436-328.28-327.436S186.313,356.794,185.852,537.709Z" transform="translate(-185.85 -210.271)" fill="#cceff4"/>
          </g>
        </g>
      </g>
      <g id="Grupo_848429" data-name="Grupo 848429" transform="translate(675.37 910.088)" opacity="0.667">
        <g id="Grupo_848428" data-name="Grupo 848428" transform="translate(0)">
          <g id="Grupo_848427" data-name="Grupo 848427" clip-path="url(#clip-path-5)">
            <path id="Trazado_590296" data-name="Trazado 590296" d="M758.31,515.851c-.461-146.541-119.389-265.2-266.038-265.2s-265.577,118.656-266.038,265.2Z" transform="translate(-226.234 -250.655)" fill="#cceff4"/>
          </g>
        </g>
      </g>
      <g id="Grupo_848432" data-name="Grupo 848432" transform="translate(737.61 972.328)" opacity="0.833">
        <g id="Grupo_848431" data-name="Grupo 848431" transform="translate(0)">
          <g id="Grupo_848430" data-name="Grupo 848430" clip-path="url(#clip-path-6)">
            <path id="Trazado_590297" data-name="Trazado 590297" d="M674.212,493.993c-.461-112.167-91.523-202.955-203.8-202.955s-203.337,90.788-203.8,202.955Z" transform="translate(-266.616 -291.037)" fill="#cceff4"/>
          </g>
        </g>
      </g>
      <path id="Trazado_590298" data-name="Trazado 590298" d="M590.1,472.135a141.549,141.549,0,0,0-283.094,0Z" transform="translate(492.856 703.15)" fill="#cceff4"/>
      <rect id="Rectángulo_281416" data-name="Rectángulo 281416" width="1030" height="18.693" transform="translate(426.409 1165.937)" fill="#25333e"/>
      <path id="Trazado_590299" data-name="Trazado 590299" d="M351.11,463.084a133.155,133.155,0,0,0-266.291,0Z" transform="translate(372.591 703.23)" fill="#cceff4"/>
      <path id="Trazado_590300" data-name="Trazado 590300" d="M789.331,463.084a133.155,133.155,0,0,0-266.291,0Z" transform="translate(609.793 703.23)" fill="#cceff4"/>
      <g id="Grupo_848463" data-name="Grupo 848463" transform="translate(591.042 824.095)">
        <g id="Grupo_848462" data-name="Grupo 848462" transform="translate(0 0)" clip-path="url(#clip-path-7)">
          <path id="Trazado_590301" data-name="Trazado 590301" d="M858.513,537.081c-.7-189.12-154.212-342.22-343.5-342.22s-342.8,153.1-343.5,342.22Z" transform="translate(-171.521 -194.863)" fill="#6fb9c6"/>
          <path id="Trazado_590302" data-name="Trazado 590302" d="M359.071,745.365c7.1,8.477,12.141,7.332,14.433,11.227,1.125,1.91,1.242,21.965.949,42.347H476.136c.723-4.8.378-12,2.071-16.228,2.406-6.014,12.716-6.071,20.046-5.843s9.279-4.582,9.393-8.248,2.979-5.957,5.156-6.988,3.781-16.381,4.01-20.505,1.259-8.133,3.436-15.693,5.615-6.644,11.8-14.778-.8-15.35-6.071-18.9-4.924-3.551-8.363-9.508-16.265-3.321-21.419-2.634-4.353-1.833-5.727-4.81-14.893-4.7-18.674-7.676-8.935,7.1-13.859,7.33-2.064-4.467,3.55-10.08,3.207-5.613,1.147-8.707a129.023,129.023,0,0,0-9.852-13.287c-4.126-4.7-14.206-4.01-17.643-5.5s-10.2-5.957-15.807-8.935-6.187-14.434-10.767-12.716-22.11,3.665-24.4,1.719-8.361-3.895-8.591-3.551-9.964,1.031-9.852-.917,1.6-4.468-.917-5.384-7.215,3.551-7.673,3.781-4.01,4.924-9.739,6.987-6.873,8.821-6.873,8.821a47.972,47.972,0,0,1-5.04-4.353c-2.52-2.52.459-3.665-3.437-5.27s-7.332,3.665-12.6,4.125-5.959-2.52-7.79-4.582-1.6-10.31.456-14.2,0-6.187-1.373-10.081-12.6-2.52-22.453-2.062-4.81-5.727.231-11,4.353-5.04,8.933-10.767-1.831-9.852-6.644-9.622-4.351,3.436-9.393,11.225-14.2,5.5-22.452,3.895-7.332-6.185-8.935-8.935-2.292-20.619-1.147-22.911,5.268-13.287,6.416-14.892,6.415-6.873,11.225-8.019,12.6.687,16.954,2.521,3.667-5.5,12.6-6.644,19.244,3.895,20.162,5.957,5.957,11.685,5.5,15.12a4.394,4.394,0,0,0,7.332,3.667c3.437-2.979,1.375-8.477,1.6-14.664s3.667-11.225,4.812-16.724,9.624-10.08,17.413-14.892,1.6-15.809,1.6-15.809a50.656,50.656,0,0,1,20.849-19.244c13.976-6.645,5.727-.23,9.394-1.6s7.1-4.353,3.9-4.124-7.791-3.665-6.876-7.1,9.394-5.956,20.391-8.705,8.019,3.665,8.935,3.207,12.6-5.5,16.039-9.165-1.834-1.375-6.416-2.062-4.353-6.873-3.206-11.685-.458-3.207-3.209-3.665-21.993,11-34.6,16.495-27.262,14.2-35.28,17.413-2.751-7.562,4.121-10.082,14.892-8.707,25.2-14.662,18.329-12.144,29.784-19.933,14.2-2.748,23.6,0a17.226,17.226,0,0,0,18.787-6.415c2.29-3.437,14.434-4.983,14.434-4.983s-1.03-12.372-1.2-13.059-8.078-3.952-13.748-9.966-4.81-15.98-4.983-21.136-2.062-8.591-4.639-6.7-9.621,8.076-17.184,2.921-2.4-6.185-1.719-11-6.013-10.31-6.7-16.839-16.84-6.645-19.246-6.3-5.038,9.736-5.268,12.142-2.864,6.187-4.354,8.133-2.518,10.883-2.518,14.32-.345,10.883-4.354,14.319-5.957,3.895-8.249,7.1-2.52,23.485-5.726,25.431-6.188-2.29-8.365-4.926,1.719-19.015,1.492-22.566-9.052.8-18.329-9.852-17.529-9.624-17.529-9.624-4.123-7.216-5.152-7.56-3.782-13.747-1.033-25.087,13.058-6.529,23.714-12.716,11-4.467,12.714-5.841,6.185-10.655,11-11,9.966-6.873,5.84-13.4,3.439-17.871,2.062-21.652-5.5-6.185-7.56-4.81-13.745,12.372-14.778,14.09-12.028-4.812-15.465-6.187-10.394-4.726-11.6-4.983-8.593.687-9.109,1.719-15.807,3.437-18.9,2.406-.689-5.67-.689-5.67-18.472-4.211-22.338-7.3,1.461-4.639,3.178-5.584,1.2-3.093-1.544-3.264S248.3,211.771,247.035,211.2s-10.194-6.071-12.256-7.332-15.122-2.52-16.954-2.29-13.862,5.957-16.954,6.644-7.33-3.667-8.361-4.926-11.455-12.258-16.153-15.923-21.193-17.642-24.628-21.536-10.539-8.935-13.519-12.486-15.177-.059-19.559,1.145a41.414,41.414,0,0,0-11.771,5.841c-1.8,1.461-10.74,6.96-15.723,7.045s-6.1-2.921-8.247-2.921-5.843,4.038-4.9,6.444,2.492,16.839,2.575,17.269,1.376,3.867,2.751,8.334-2.751,3.867-5.584,4.9-7.216-3.781-10.311-6.016-8.161-.515-9.45.086a16.492,16.492,0,0,0-4.9,4.124c-1.117,1.546-.6,1.632-.687,4.124s-.687,4.724-2.32,5.928-2.406,1.719-2.836,3.866,11.427,8.42,14.433,8.334,3.7-.945,5.328-4.81,4.382.257,5.24.772-3.436,8.163-3.952,9.023-8.334,5.327-12.028,5.755-5.928-1.632-6.358-1.289S32.648,243.76,33.68,247.111s-1.8,10.052-3.952,10.567-2.32-1.289-3.18-.428,1.632,7.788,1.746,8.247,4.182,1.776,6.587,2.176,2.978-3.437,3.264-4.411,3.895-5.384,4.869-4.924-1.947,5.9-3.15,10.08-6.128,3.264-6.472,4.411,2.75,4.123,4.239,5.268,2.634,2.178,7.676,3.209,7.79-5.385,10.08-2.979-7.676,8.363-7.676,8.363S36.944,298.946,36.6,299.176s-16.61,6.988-20.047,9.852S0,312.064,0,312.064s7.216,2.921,12.2,2.577,7.733-2.577,8.935-3.952,12.2-6.874,20.963-10.311,24.573-13.918,24.229-14.433-.687-4.639,1.2-6.7,3.266-.516,6.7-2.579a28.9,28.9,0,0,0,8.25-8.419c1.031-1.891,8.076-3.093,7.9-.173s-5.5,5.5-6.529,6.358-7.905,8.591-4.124,7.56,3.093-1.89,7.733-2.406,11.942-6.959,14.348-7.474,4.983,1.719,6.1,6.014,6.014,5.584,7.045,5.67,9.793,2.32,11.082,7.132,4.382,5.5,4.382,6.529,3.437,11.17,3.437,11.17S143.65,323.061,144,325.122s3.264,7.905,3.264,7.905.859,7.045.171,7.389-5.841,4.983-5.5,6.014,7.9-.173,9.622,2.75-4.682,6.786-4.382,8.291,6.7-1.547,7.3.687-4.239,3.335-4.239,3.335,1.834,8.593,2.062,10.082-1.833,3.551-1.833,7.332,5.384,6.758,9.508,14.089-1.261,13.519-2.75,15.581-4.584,2.176-4.584,4.467-2.518,8.935-5.038,11.111-3.895,25.087-4.7,25.891.458,8.821,1.719,12.142,3.551,10.082,3.207,13.517.57,7.1,1.259,10.425,6.988,1.833,9.738,2.978,4.81,1.261,5.727,3.323.143,13.374.4,14.662,5.584,7.819,7.132,12.8-1.375,3.264-1.288,5.069,2.921,2.147,7.045,7.9a114.152,114.152,0,0,1,9.536,16.239c2.921,5.755,4.9,6.1,6.185,5.411s-.772-3.608-2.4-5.928-4.3-10.826-5.327-13.747-3.093-7.733-4.3-11.168-3.866-7.218-5.841-12.458.086-8.506,1.546-8.506,10.653,13.059,12.975,17.184,3.952,9.88,2.32,12.973,1.717,5.156,4.209,7.045,12.629,15.035,14,19.932-.86,4.726-1.634,6.271,4.126,4.3,10.225,10.569,6.187,7.3,15.894,11.427,22.567,1.919,26.119,1.919,8.361,6.987,9.736,9.278,5.156,2.978,14.55,4.009,4.239,1.031,8.363,4.01,4.581,5.727,9.049,10.653A140.13,140.13,0,0,0,313.934,628.4c3.209,2.979,6.415,4.926,8.594,2.979a42.671,42.671,0,0,1,6.873-4.354s6.185,2.864,8.819,2.75-1.831,18.559-.917,21.766-3.321,5.841-9.507,8.018-6.073,9.738-5.843,10.883,1.375,8.247-.23,9.852-2.059,4.812-2.059,7.332,3.206,4.81,12.37,25.431,19.933,23.827,27.036,32.3" transform="translate(-264.362 -218.172)" fill="#cddb7e"/>
          <path id="Trazado_590303" data-name="Trazado 590303" d="M1098.139,156.542c-.316-1.258-3.3-7.864-3.3-7.864a21.8,21.8,0,0,0-.472-3.776,32.846,32.846,0,0,1-1.258-7.865c-.157-3.617-1.573-2.36-2.36-2.2s-5.977,2.36-5.977,2.36l-.473,7.236a10.437,10.437,0,0,1-4.4,1.1c-2.36,0-1.888-.472-1.888-2.358s-.629-3.147-2.517-4.878-6.45-.156-6.45-.156-8.494,1.1-11.954,1.572-12.27-2.36-20.607-6.134-14.314-.157-17.3,2.2,10.225,11.64,9.282,14-8.5,3.146-12.113,2.517-4.561-2.674-8.651-3.46a40.11,40.11,0,0,0-13.371-.473c-5.977.63-3.933,2.518-6.763,4.4s-4.248,2.045-10.226,1.574-8.7-6.293-8.7-6.293a68.256,68.256,0,0,0-5.977-3.355c-.84-.21-8.705,3.041-11.432,4.3s-11.325,1.678-12.585,1.363-15.31-4.613-16.988-3.67-4.929,1.888-9.963,1.677-3.775-1.991-4.929-3.041-7.13-5.139-8.389-5.034-2.622,4.51-2.622,5.979,2.307,4.927,4.719,6.816-3.146,7.236-3.146,7.236-5.243.419-10.068,1.259-3.565,2.515-11.116,10.9-7.551-.208-11.327-1.048a15.545,15.545,0,0,1-10.277-8.389c-1.887-4.4-3.984-9.806-3.984-9.806s-8.024.473-8.81,1.574-3.932,5.82-6.763,7.551-2.36,0-3.933-.157a60.548,60.548,0,0,1-9.123-2.045c-5.191-1.416-2.2,0-2.831.314s-2.2.945-5.348,2.36-5.505,0-8.022-.314-4.562-.472-6.293-.788a7.542,7.542,0,0,0-3.932.473c-1.1.314-5.034,3.146-5.979,4.875s-7.549,12.113-8.808,12.27-1.572-3.146-1.572-8.651,1.1-6.607,2.831-13.371,1.729-2.674,3.3-4.719.472-1.1.786-2.831,0-3.617-.157-6.291,0-2.045-.472-2.99-2.2-2.2-4.877-3.46-2.045-1.415-2.517-2.831-2.988-3.3-4.248-3.932a5.9,5.9,0,0,0-5.19,0c-2.2.943-.63,2.515-.63,3.932s-1.888,3.776-3.46,4.877-4.405-.472-5.348-2.2-.157-1.888-.788-2.831-2.989-.943-4.089-1.574-1.416-4.561-1.731-5.348-3.932-3.617-4.718-3.46a9.909,9.909,0,0,0-3.3,2.045c-1.1.943-1.729,2.517-2.517,4.718s1.574,1.416,2.045,2.2.472,6.134,0,7.078-1.94,4.772-1.94,4.772-.419,1.362-.524,1.888a9.776,9.776,0,0,1-1.467,3.041c-.735.943-1.993,1.048-3.147,1.469s-1.258-.106-3.146-.106-2.936.21-3.355.945-4.929,4.823-8.808,7.025-7.027,4.2-9.124,5.664-3.041,2.411-3.567,3.879.106,5.453,2.2,6.607,4.875,4.3,4.875,4.772-1.572,3.46-2.674,4.089-6.763,1.1-8.494,2.517-2.2,5.663-2.2,5.663,2.045,2.2,12.585,8.81c3.69,2.312,5.505,3.4,6.338,3.847,1.47,2.238,7.013,10.863,6.876,13.455-.157,2.989-5.034.157-8.022-.157s-7.865-4.877-8.808-7.865-5.034-5.191-5.506-6.134-3.147-3.933-3.933-3.933a4.192,4.192,0,0,0-3.3,4.248c.157,2.831,2.674,6.291,2.044,7.551s-4.718,0-5.347-.157-8.181-4.248-8.181-2.833,1.416,1.574,4.091,4.878.157,9.123.629,10.854,2.674,3.3,8.18,4.875,8.022,1.574,10.539,2.99,2.517,7.394,1.259,10.066-2.674-.943-3.147-1.572-3.146-4.4-4.4-5.348-2.674-.472-2.674,2.2,1.258,5.663,1.572,9.28-8.337,10.539-11.325,11.641-7.865,0-8.494-2.833,2.045-3.617,5.82-5.191,2.2-5.348,2.36-9.909-.786-4.248-2.36-7.236-9.911-17.933-10.7-19.819-2.36-10.7-2.517-13.844-4.719-6.134-4.562-4.562S670.9,202,670.272,206.88s.472,13.685.629,15.573,7.079,11.8,6.922,13.842-2.674,3.462-6.608,2.36-14.944-7.865-15.573-3.932-5.348,8.021-6.449,7.549-3.776,2.989-7.236,5.191-8.808,2.36-11.8-.314-15.152,6.4-15.152,6.4-5.559,5.663-6.4,6.292-7.025,5.453-7.97,6.292-3.251,1.678-5.767,2.833a21.7,21.7,0,0,0-5.663,3.775c-.945.943-.524,5.663-.735,7.132s-3.775,5.767-6.187,8.913-8.6-.419-13.213-3.251-5.872-11.116-7.76-13.633-3.879-6.188-1.783-8.18,3.567-.1,5.874.943,6.082,3.776,9.542,3.776,6.922-2.1,9.229-3.881,1.467-2.307,1.678-4.51-7.236-4.929-8.076-5.663-17.617-9.437-18.562-9.753-7.025.21-10.382,1.259-3.879-.943-4.718-5.139-9.858-2.936-11.536-2.727-7.865,1.993-8.808,2.307-11.851,4.3-12.48,8.6-5.979,7.551-11.011,11.011-3.986,5.663-3.986,7.865-4.929,12.165-4.929,12.165-3.879,1.887-4.508,2.622a35.472,35.472,0,0,0-3.776,5.977c-1.993,3.671-.629,1.574-1.677,3.355s-3.776,2.517-8.18,4.615-4.51,2.517-6.188,4.929a10.343,10.343,0,0,0-2.2,6.5c0,2.307.21,2.2,1.574,5.663s1.258,2.307,1.782,2.831.1,5.977.1,9.752,1.888,3.043,3.986,4.3,3.881-1.572,4.4-2.726a58.972,58.972,0,0,1,3.565-5.243c1.154-1.677,4.929-2.622,4.824-2.1s.629,3.986,2.412,4.091,2.2-1.469,3.879-2.2,3.252-1.678,5.034-1.153,2.307,3.251-.314,5.767-6.5-.419-5.872,1.363,1.782,10.8,3.251,14.577,5.558,2.727,9.229,1.678,3.25-4.2,3.984-7.341a27.163,27.163,0,0,1,3.252-8.284c1.153-1.574,1.782-3.567,2.515-6.4a12.2,12.2,0,0,0-.21-6.4c-.314-1.259-4.718-4.615-5.034-6.5a23.113,23.113,0,0,1,1.259-9.753c1.362-4.3,3.879-4.613,5.977-6.5s5.348-3.776,5.663-4.824.63-7.655,1.574-9.963,6.817-3.775,8.284-3.565,4.51,4.719,4.51,4.719,0,3.879-5.348,10.592-2.936,4.824-3.986,6.082a39.512,39.512,0,0,0-3.775,4.4c-.945,1.572.734,2.412,2.727,5.139a13.914,13.914,0,0,1,3.041,6.292c.629,2.622,6.922,2.831,8.494,2.2s3.671-1.363,7.97-2.622a37.568,37.568,0,0,0,8.391-3.879s.314,2.936,1.153,3.879.943,3.565.315,3.986-3.041.943-3.355,1.258,0,6.5,0,7.027-.735,6.92-.735,6.92-2.1-.734-2.83-1.048-.84-3.671-.84-5.243-6.292-4.4-7.551-5.034-5.977,1.574-6.711,2.412.734,1.678,2.622,3.251,2.307,2.727,4.508,4.4,1.993,5.663,1.154,8.389-5.979,1.783-8.075-1.677-4.588-2.676-5.61-1.5-.395,5.977-.079,7.079,4.875,8.73,4.168,9.2-7.787.945-9.437.945-2.833-1.5-4.169-2.283-4.091-.236-6.056.237-6.686,4.325-7.158,4.562a55.334,55.334,0,0,1-16.359-.63c-6.608-1.5-2.281-4.169-4.169-4.877s-2.6,5.427-2.6,5.427l-.079,1.888-1.731,1.5a89.284,89.284,0,0,0-12.19,1.415c-8.731,1.416-.63,1.181-.395,3.462s-3.46,5.505-5.741,6.527-2.674,3.7-4.168,7.708-6.057,1.731-6.686,3.067-2.753,5.586-7.708,5.034-9.989,1.259-8.651,1.967,2.2,2.753,3.067,2.989a6.466,6.466,0,0,1,2.6,2.438c.393.707,2.36,3.855,5.112,5.191s1.338,14.315,1.1,14.393a70.1,70.1,0,0,1-15.887,0c-8.415-.943-8.1-.629-11.876-.943s-4.091,1.338-5.584,3.776.865.943,1.729,1.651-1.362,18.352-1.887,19.664.472,4.561.629,4.613,8.075,2.36,8.284,4.091,2.726,3.827,3.093,3.724,6.031-2.412,8.915-2.1,8.127.838,10.487-1.207,2.936-4.194,4.3-5.715,1.94-8.756,2.255-9.7,2.255-2.253,4.772-3.355,2.464-3.355,3.3-5.243,1.888-8.284,5.663-9.332,3.881,1.205,8.127,1,3.095-3.724,5.453-5.348,11.222,2.307,11.222,2.936,8.18,10.172,9.753,11.325,9.961,6.817,12.48,9.648,1.362,10.068,4.718,6.92.735-7.654,1.364-8.808,4.089,1.783,4.3-.314-5.453-3.565-7.549-4.615-6.293-4.823-7.867-6.187a128.788,128.788,0,0,1-9.018-10.068c-1.783-2.307.734-6.711,2.412-7.236s1.469.1,2.1.314a44.972,44.972,0,0,1,4.927,3.776c1.678,1.363,11.851,7.76,16.046,11.011s5.348,10.487,5.768,12.9a55.069,55.069,0,0,0,4.2,11.327c1.362,2.411,4.508,7.759,6.606,7.444s3.357-3.879,4.615-5.767,1.258-2.2.315-3.776-6.082-7.97-5.663-9.752,4.51-2.307,6.711-3.146,6.5-1.154,9.02.419.943,2.306,1.467,4.508,1.888,4.51.735,7.867,10.277,9.961,14.262,9.542,4.2-2.936,7.446-3.355.943,3.355,2.622,7.132,3.251,2.622,5.872-1.259,6.607-3.984,9.858-3.984,1.048,15.414,1.048,15.73-8.389,8.389-11.221,8.808-6.5.838-15.626,1.364-25.9-5.769-28.21-7.341-8.284,1.467-9.333,8.284-6.5,2.936-15-2.1-10.906-4.3-16.885-6.187-8.7-5.243-9.333-9.334,3.565-11.43.524-11.43-12.689.943-20.239,1.153-24.645,9.229-28.893,10.33-10.854-1.258-14.786-.157-14.63,12.585-14.63,12.585.629,7.865.314,8.966-5.82,6.922-10.854,10.382-17.776,17.147-20.921,21.866,1.1,6.606,1.1,7.551-1.572,14.314-3.146,19.505-1.1,5.977-3.146,8.808,5.3,11.013,5.3,11.013,6.083,2.936,7.551,4.2,1.993,3.565,2.622,5.347a101.087,101.087,0,0,0,7.027,13.739c2.412,3.565,3.565,3.041,13.318,8.494s11.954,1.887,17.3.734,4.091-1.362,21.079-4.824,20.031,1.731,20.188,2.2,4.248,6.922,6.45,5.663,6.134-3.46,7.865-3.46,4.089,1.259,5.348,4.248.786,7.551,0,10.381-1.1,4.248-3.3,7.079-.629,6.45,2.2,11.641,12.427,14.787,12.427,14.787.157,4.561.157,5.5a32.874,32.874,0,0,0,1.888,6.765,37.7,37.7,0,0,1,1.887,8.337c.473,3.3-.157,2.99-1.729,6.608s-4.4,4.719-4.877,5.977-2.36,13.685-1.572,16.359,2.989,6.607,5.191,10.7,2.044,9.281,2.987,13.529,2.36,9.28,2.676,13.213,5.82,7.551,8.651,11.011,6.763,11.8,5.82,21.708,2.2,8.337,4.4,8.179,17.776-1.886,24.382-2.988,8.653-4.246,10.068-6.134,9.6-8.651,10.854-9.753,5.663-7.394,8.966-11.8-1.258-10.382.788-11.327,4.877-3.46,8.18-5.82,3.3-4.562,3.146-5.82-1.415-8.808,1.259-16.2,5.191-3.932,13.371-8.966,10.068-11.011,11.64-13.842,0-8.81-.629-11.956-4.719-23.438-3.3-29.887,5.348-7.236,7.708-10.068,9.437-11.011,16.516-16.2,4.719-2.99,7.236-8.337,14-18.878,16.988-23.438,1.731-11.011,1.416-13.844-2.674,2.2-6.134,3.933-25.012,5.82-25.955,5.034-2.674-6.922-3.933-8.81-12.427-13.212-13.056-16.2-6.134-10.225-8.966-13.842-2.2-3.776-2.2-6.45-10.382-15.1-10.382-15.73-10.7-16.2-12.27-17.931-.472-5.034.945-6.136,4.877,3.776,6.92,4.562,4.405-1.415,4.405-1.415c.943.156,10.382,15.729,10.382,15.729s6.92,5.664,8.808,13.058,13.842,19.033,15.259,20.605,3.146,16.675,4.877,18.878,5.82,0,7.551-.473,19.348-7.235,21.078-7.864,10.539-3.3,14.314-8.653,9.91-8.022,17.776-12.9,6.134-13.685,4.405-13.056-4.877-1.416-11.325-5.663-4.248-3.3-8.181-3.3-9.594,4.719-13.685,4.089-5.348-3.617-6.92-9.28-8.5-8.5-13.372-13.213,1.574-6.45,2.045-7.708,3.933.157,7.236-.316,5.348,5.664,7.393,7.079,4.562,5.663,4.562,5.663a12.011,12.011,0,0,0,10.539,2.36c6.606-1.415,5.348.629,6.134,1.416s3.46,2.989,5.82,5.505,6.765.629,6.765.629,22.967-.786,27.37-.157,1.417,2.2,3.146,4.719,3.3,1.731,6.922,1.731,5.82,2.674,7.394,6.292,5.663,8.861,6.292,8.861,3.357-.419,4.2-4.194,2.936-2.936,4.4-1.469,3.357,16.78,9.02,27.057,4.2,11.325,9.648,23.91.629,9.228,5.453,8.6,2.936-2.307,4.615-4.615a34.062,34.062,0,0,0,3.984-8.389c.839-2.517,0-8.18,0-10.487s1.888-8.6,5.453-9.018,2.1-2.728,2.307-3.986,4.824-8.389,10.906-10.068,4.4-6.5,5.874-9.018,2.306-4.615,8.389-5.034,9.123-4.353,11.483-6.4,2.674.159,2.674.945-.314,4.877-.472,6.134.472,1.888,6.291,8.337,3.776,2.989,5.348,3.933,2.2,6.292,1.731,8.966.786,6.607,2.989,6.45,2.517-1.888,6.607-5.663,4.089.157,4.718,1.1.159,1.572.63,2.831a58.045,58.045,0,0,0,3.146,6.136c1.417,2.515,1.731,6.763,1.888,7.864s-1.259,10.855-1.731,14.944.788,5.191,1.259,5.505a89.95,89.95,0,0,1,7.235,10.854c1.731,3.3-.786,5.663,4.248,10.855s8.808,7.235,11.483,5.663-1.258-3.3-1.258-4.877.943-7.236.943-7.236-6.292-4.089-7.236-4.719-4.719-4.719-5.663-5.505-4.877-14.944-4.877-14.944V551.375c0-2.831,3.933-.472,5.507,1.258a49.7,49.7,0,0,0,4.875,5.034c1.574,1.259,9.282,4.877,12.585,7.394s-7.236,5.034-3.932,6.922,2.831.472,3.46-.788,3.775-2.989,5.663-4.089.945-.629,6.607-3.776,2.989-7.865,3.46-10.225.943-4.875.472-6.449-10.854-10.7-12.427-12.27-5.82-6.292-5.032-12.585,4.561-5.663,7.708-6.134a5.222,5.222,0,0,1,5.19,1.731c.473.629,1.416,2.831,3.933,3.146s.314-2.045,1.1-4.405,1.259-1.415,2.674-2.36a24.124,24.124,0,0,1,5.35-2.831c2.2-.786,8.337-2.517,12.583-3.775s4.248-3.462,8.653-6.607,2.831-3.617,6.449-9.594,1.415-2.99,3.933-12.27.472-4.877.629-11.011-6.293-15.1-8.653-16.046-2.674-12.269-.786-14.628,3.3-2.674,6.607-3.932.157-1.731-.316-4.248-1.729-2.2-5.347.786-6.922-.786-11.8-2.2-3.46-3.775-1.574-8.494,1.417-2.989,2.676-5.977a10.217,10.217,0,0,1,10.538-5.663c5.035.786.316,4.089.159,5.663s1.572,4.877,1.572,4.877,5.979-5.348,9.439-6.765,4.719,1.574,2.989,10.539,5.663,2.36,7.708,2.831,5.505,5.034,7.079,13.056,1.258,5.505,3.146,5.191a8.718,8.718,0,0,0,5.663-5.191c.786-2.517-7.708-11.168-8.966-13.213s-4.719-6.606.157-16.516,1.1-3.776,1.415-10.068,5.979-8.808,8.022-9.282,1.574,3.462,5.977,2.045,2.833-5.663,6.293-15.259,1.258-8.651,5.663-18.562-4.089-37.752-5.977-41.057-14.158.473-17.776-2.674-2.36-2.674-8.494-2.987-2.36-3.619-2.2-5.035,1.729-14.786,5.977-22.965,8.653-11.8,13.687-14.473a74.912,74.912,0,0,0,10.066-6.134c2.833-2.045,13.687-4.877,14.316-1.888s5.034,4.4,9.6,3.3.313-2.989.313-2.989-1.258-5.348-1.415-6.765a14.656,14.656,0,0,0-1.258-4.4c-.787-1.888-.63-4.877-.63-8.022s.788-4.091,2.36-5.82,5.191-2.676,8.022-3.619,3.776,5.348,9.6,5.348.629-4.719,0-8.18a10.6,10.6,0,0,1,2.2-8.337c1.415-1.731,3.932-1.259,5.348-1.1s.786,5.507,2.045,14.315-.629,6.607-.629,6.607-2.99,4.561-3.3,14.314-.786,12.9-.786,12.9a29.1,29.1,0,0,1-1.1,7.078c-1.1,3.933-1.1,4.248-1.729,6.608s.314,4.248,1.572,8.494,2.045,2.989,4.248,6.607,1.415,3.932,5.977,10.225,5.348,10.854,6.765,13.528,4.719.472,4.248-3.46.313-5.821.629-12.585,2.2-13.371,2.2-14.944.629-10.382.629-11.325-.472-7.708-3.933-10.855-8.022-10.539-8.651-11.64-.314-4.091-.157-5.82.472-5.034,1.415-6.922,4.877-3.146,6.45-3.775,6.292-5.348,7.079-4.091,7.865,4.4,7.865,3.462v-7.394a44.626,44.626,0,0,1,1.572-11.327c1.416-5.82,14.157-14.314,14.157-14.314s-1.572-4.091-2.2-5.505a25.387,25.387,0,0,0-4.091-6.45,12.144,12.144,0,0,0-7.865-4.718c-2.832-.63-7.237-1.574-8.651-2.045s-.472-5.034-.472-7.394,1.415-.472,3.46-.157,4.091,2.831,5.663,2.517.471-1.731.471-2.831,0-3.462-.157-4.877-2.989-2.831-4.246-3.3-2.831-4.248-2.831-6.293a5.81,5.81,0,0,1,2.359-4.719c1.415-1.1,2.36,2.989,2.36,2.989s1.572.945,5.82,1.259,1.415-.943,2.36-2.045,5.034-1.415,6.763-.786,4.405,2.2,6.45,2.2,2.831-2.36,2.831-3.776a4.324,4.324,0,0,0-.314-2.045M616.055,423.121c1.678,5.453-8.808.21-15.311,2.517s-18.876-8.81-18.876-8.81c-.839-1.467-7.551,3.146-8.809,6.082s-5.243.421-9.648-.838-3.986-7.341-1.888-9.228,2.727-11.117,4.824-15.311,4.2-4.405,7.132-1.469,5.872,6.712,8.809,7.97,3.986-1.258,4.615-2.517-1.469-5.663-.838-8.6,3.775-2.727,8.389-5.453,6.711.419,6.711,1.048-2.727,8.391-2.517,10.908,3.986,7.76,12.585,11.116,3.146,7.132,4.824,12.585m44.255,24.748c-7.551-2.517-13-4.4-13.423-8.6s1.048-4.615,1.048-8.389a14.672,14.672,0,0,0-5.034-10.487c-3.146-2.936-5.872-6.293-5.872-8.391s-2.307-6.5-2.307-6.5-3.565-3.146,0-6.5,7.132-4.615,10.068-9.229,7.341-5.034,9.439-2.307,6.292,6.922,0,10.906-6.922,6.5-.63,13,9.858,11.116,10.068,18.666,6.712,14.892,6.712,14.892-2.517,5.453-10.068,2.936" transform="translate(-61.058 -233.403)" fill="#cddb7e"/>
          <path id="Trazado_590304" data-name="Trazado 590304" d="M686.467,425.466s11.325,14.892,17.618,28.105,12.584,17.2,16.149,16.359,17.409-4.4,11.116-7.551-7.551-6.92-13-13.423-9.858-11.325-15.311-13.842-16.149-12.165-16.569-9.648" transform="translate(107.211 -70.265)" fill="#cddb7e"/>
          <path id="Trazado_590305" data-name="Trazado 590305" d="M727.124,449.706s-2.1-5.663,1.048-6.082,1.259,6.292,7.97.629,9.648-11.956,11.117-13.214,8.808-7.76,8.808-7.76,10.487.21,5.872,5.243a17.812,17.812,0,0,0-3.984,16.359c1.258,4.615-3.986,14.473-7.132,17.409s-6.082.419-13.633-2.307-10.068-10.277-10.068-10.277" transform="translate(128.847 -71.224)" fill="#cddb7e"/>
          <path id="Trazado_590306" data-name="Trazado 590306" d="M291.553,232.948a12.026,12.026,0,0,1,12.414,1.535,16.311,16.311,0,0,1,6.014,11.025c1.6,11.684,2.062,15.809,1.376,21.536a100.458,100.458,0,0,0-.459,13.289c0,2.062,2.062,5.727.917,11.225s-2.062,10.769-2.522,12.372-.228,5.27,1.6,4.124,5.727-6.187,5.727-6.187,6.644-1.6,5.5,4.582-8.705,10.769-10.538,13.519-4.582,8.247-4.812,9.622a75.682,75.682,0,0,0-.227,11.227c.227,4.81,2.976,12.372,3.434,13.059s-1.6,6.415-.687,13.058,8.249,12.831,9.394,12.831a10.289,10.289,0,0,1,6.873,4.353c1.834,2.979,13.289-9.852,16.267-16.267s8.477-19.474,12.373-22.224,14.2-5.27,17.64-6.873,13.747-7.562,14.2-9.622.689-6.874,1.606-7.1,6.413,1.6,7.788,1.833,13.517.228,17.643-2.062,8.016-10.31,8.016-10.31-7.33-2.52-8.477-4.582a14.275,14.275,0,0,1-1.831-5.27c0-.917.917-4.353,1.831-3.207s3.209,6.645,5.042,7.332a39.566,39.566,0,0,0,8.018,1.145c.917,0,.23-6.874.23-9.164s-.23-14.2.23-15.579a26.609,26.609,0,0,1,3.207-6.187c1.147-1.375,6.645-4.81,6.645-4.81a46.62,46.62,0,0,0,1.6-6.187c0-1.145,0-7.1.686-8.935s-3.436-12.144-2.75-16.954a19.755,19.755,0,0,1,3.667-8.707c.689-1.145.916.917,1.6-4.81s0-4.354,1.147-6.415,3.207-5.729,4.353-7.332,3.207-3.667,4.124-5.27,8.477-9.394,8.705-10.082,0,.917-1.6-1.145-1.145-6.644-.458-7.33a14.7,14.7,0,0,1,4.126-2.979c1.375-.458,6.871-2.062,6.871-2.062s-.056-3.952-2.805-6.185-10.826-2.922-12.543-2.406-10.311,6.529-11.686,8.247a19.043,19.043,0,0,1-5.67,4.3,13.144,13.144,0,0,1-6.014.687c-.858-.171-.344-4.123.859-4.983s3.608-1.719,5.843-3.264a38.788,38.788,0,0,0,5.5-5.5s.344-4.123-.515-4.3a20.831,20.831,0,0,0-4.81-.171c-1.547.171-2.922,1.031-2.922,3.437s1.89,5.154-2.233,4.3-5.156-.687-5.156-1.718a8.762,8.762,0,0,1,2.062-4.468c1.031-1.031,2.921-1.719.171-3.608s-2.061-3.093-2.061-3.093,3.781-1.2,6.358-1.89,12.028-2.062,12.716-2.233,3.608-1.375,3.781-3.093-5.5-4.3-6.874-4.3a30.862,30.862,0,0,1-10.139-3.266c-2.75-1.717-7.9-4.3-8.419-4.81s2.75,4.983-2.407-1.719-7.387-8.076-12.716-6.014-5.841,2.75-7.045,3.952-.513,1.2-3.09,2.577a26.386,26.386,0,0,1-7.219,2.579c-1.89.344-4.81.859-6.871,1.2s-2.235-4.81-5.5.687a18.236,18.236,0,0,0-2.748,10.31s1.2,2.75,1.546,3.952.173,3.437-1.89,3.437-3.093,1.89-3.953-.344-2.748-5.154-1.89-7.9.515-5.327-1.031-6.014-4.123-.86-4.123,0,.344,3.436.516,4.81-.173,11.341-4.126,11.17-8.42-3.093-7.045-4.639,3.437-2.233,4.124-3.437,1.546-9.451.516-9.966-4.81,2.921-10.826,4.468a22.472,22.472,0,0,1-10.139.515s-2.577.687-3.264,1.719-2.75,7.56-2.75,7.56l-3.09,3.781s-2.751-3.781-3.782-2.062-11.685,5.327-12.372,5.843a57.767,57.767,0,0,0-5.5,8.762c-.171.86,6.7-1.546,7.045,1.719s-7.56,12.888-9.966,10.653-14.09,1.2-15.465,1.719a40.8,40.8,0,0,1-6.358.86s-5.327,1.031-5.154,2.921,6.529,5.327,7.047,8.247,2.4,6.187,4.294,6.53,2.921.515,2.921,1.546-7.56,1.546-7.56,1.546-2.235,5.672-1.719,6.53,5.327,4.983,6.358,6.185-.173,4.984,1.891,4.984a3.659,3.659,0,0,0,1.389-.361" transform="translate(-114.466 -226.708)" fill="#cddb7e"/>
          <g id="Grupo_848437" data-name="Grupo 848437" transform="translate(37.173)" opacity="0.45" style="mix-blend-mode: overlay;isolation: isolate">
            <g id="Grupo_848436" data-name="Grupo 848436">
              <g id="Grupo_848435" data-name="Grupo 848435" clip-path="url(#clip-path-8)">
                <path id="Trazado_590307" data-name="Trazado 590307" d="M676.221,242.311a341.86,341.86,0,0,0-174.259-47.45c-133.72,0-249.575,76.418-306.324,187.956.518.331,1.03.672,1.549,1,337.313,64.156,418.2-54.766,479.034-141.508" transform="translate(-195.64 -194.863)" fill="#fff"/>
              </g>
            </g>
          </g>
          <g id="Grupo_848461" data-name="Grupo 848461" transform="translate(-12.696 -300.338)">
            <g id="Grupo_848460" data-name="Grupo 848460">
              <g id="Grupo_848459" data-name="Grupo 848459" clip-path="url(#clip-path-9)">
                <g id="Grupo_848440" data-name="Grupo 848440" opacity="0">
                  <g id="Grupo_848439" data-name="Grupo 848439">
                    <g id="Grupo_848438" data-name="Grupo 848438" clip-path="url(#clip-path-9)">
                      <path id="Trazado_590308" data-name="Trazado 590308" d="M163.285,272.747c-.527,150.634,159.7,272.747,357.886,272.747S880.439,423.381,880.964,272.747,721.259,0,523.078,0,163.811,122.113,163.285,272.747" transform="translate(-163.284)" fill="#da6f3d"/>
                    </g>
                  </g>
                </g>
                <g id="Grupo_848443" data-name="Grupo 848443" transform="translate(39.022 29.659)" opacity="0.167">
                  <g id="Grupo_848442" data-name="Grupo 848442">
                    <g id="Grupo_848441" data-name="Grupo 848441" clip-path="url(#clip-path-11)">
                      <path id="Trazado_590309" data-name="Trazado 590309" d="M188.6,262.331c-.469,134.253,142.338,243.088,318.969,243.088s320.2-108.835,320.666-243.088S685.9,19.243,509.271,19.243,189.072,128.078,188.6,262.331" transform="translate(-188.602 -19.243)" fill="#da6f3d"/>
                    </g>
                  </g>
                </g>
                <g id="Grupo_848446" data-name="Grupo 848446" transform="translate(78.044 59.319)" opacity="0.333">
                  <g id="Grupo_848445" data-name="Grupo 848445">
                    <g id="Grupo_848444" data-name="Grupo 848444" clip-path="url(#clip-path-12)">
                      <path id="Trazado_590310" data-name="Trazado 590310" d="M213.921,251.915c-.411,117.873,124.97,213.428,280.05,213.428S775.1,369.787,775.513,251.915,650.542,38.487,495.463,38.487s-281.13,95.555-281.542,213.428" transform="translate(-213.92 -38.487)" fill="#da6f3d"/>
                    </g>
                  </g>
                </g>
                <g id="Grupo_848449" data-name="Grupo 848449" transform="translate(117.067 88.978)" opacity="0.5">
                  <g id="Grupo_848448" data-name="Grupo 848448">
                    <g id="Grupo_848447" data-name="Grupo 848447" clip-path="url(#clip-path-13)">
                      <path id="Trazado_590311" data-name="Trazado 590311" d="M239.238,241.5c-.355,101.492,107.6,183.769,241.132,183.769S722.432,342.991,722.787,241.5,615.182,57.73,481.654,57.73,239.593,140.007,239.238,241.5" transform="translate(-239.238 -57.73)" fill="#da6f3d"/>
                    </g>
                  </g>
                </g>
                <g id="Grupo_848452" data-name="Grupo 848452" transform="translate(156.089 118.639)" opacity="0.667">
                  <g id="Grupo_848451" data-name="Grupo 848451">
                    <g id="Grupo_848450" data-name="Grupo 848450" clip-path="url(#clip-path-14)">
                      <path id="Trazado_590312" data-name="Trazado 590312" d="M264.556,231.082c-.3,85.111,90.238,154.108,202.213,154.108s202.993-69,203.291-154.108S579.824,76.974,467.847,76.974s-202.993,69-203.291,154.108" transform="translate(-264.556 -76.974)" fill="#da6f3d"/>
                    </g>
                  </g>
                </g>
                <g id="Grupo_848455" data-name="Grupo 848455" transform="translate(195.111 148.298)" opacity="0.833">
                  <g id="Grupo_848454" data-name="Grupo 848454">
                    <g id="Grupo_848453" data-name="Grupo 848453" clip-path="url(#clip-path-15)">
                      <path id="Trazado_590313" data-name="Trazado 590313" d="M289.874,220.666c-.24,68.73,72.87,124.448,163.3,124.448S617.095,289.4,617.335,220.666s-72.87-124.449-163.3-124.449S290.115,151.934,289.874,220.666" transform="translate(-289.874 -96.217)" fill="#da6f3d"/>
                    </g>
                  </g>
                </g>
                <g id="Grupo_848458" data-name="Grupo 848458" transform="translate(234.132 177.958)">
                  <g id="Grupo_848457" data-name="Grupo 848457">
                    <g id="Grupo_848456" data-name="Grupo 848456" clip-path="url(#clip-path-16)">
                      <path id="Trazado_590314" data-name="Trazado 590314" d="M315.192,210.25c-.183,52.35,55.5,94.789,124.377,94.789S564.427,262.6,564.609,210.25s-55.5-94.789-124.377-94.789S315.376,157.9,315.192,210.25" transform="translate(-315.191 -115.461)" fill="#da6f3d"/>
                    </g>
                  </g>
                </g>
              </g>
            </g>
          </g>
        </g>
      </g>
      <path id="Trazado_590316" data-name="Trazado 590316" d="M739.952,448.19a90.217,90.217,0,0,0-180.421,0Z" transform="translate(629.545 718.124)" fill="#84cad5"/>
      <path id="Trazado_590317" data-name="Trazado 590317" d="M653.233,448.19a90.217,90.217,0,0,0-180.421,0Z" transform="translate(582.605 718.124)" fill="#84cad5"/>
      <path id="Trazado_590318" data-name="Trazado 590318" d="M396.12,444.373a79.213,79.213,0,0,0-158.413,0Z" transform="translate(455.347 721.941)" fill="#75933e"/>
      <path id="Trazado_590319" data-name="Trazado 590319" d="M306.781,444.373a79.213,79.213,0,0,0-158.413,0Z" transform="translate(406.989 721.941)" fill="#75933e"/>
      <path id="Trazado_590320" data-name="Trazado 590320" d="M197.321,427.375a30.208,30.208,0,0,0-60.412,0Z" transform="translate(400.786 738.939)" fill="#9eba67"/>
      <path id="Trazado_590321" data-name="Trazado 590321" d="M163.251,427.375a30.208,30.208,0,0,0-60.412,0Z" transform="translate(382.345 738.939)" fill="#9eba67"/>
      <path id="Trazado_590322" data-name="Trazado 590322" d="M309,427.375a30.208,30.208,0,0,0-60.412,0Z" transform="translate(461.235 738.939)" fill="#9eba67"/>
      <path id="Trazado_590323" data-name="Trazado 590323" d="M274.927,427.375a30.208,30.208,0,0,0-60.412,0Z" transform="translate(442.793 738.939)" fill="#9eba67"/>
      <path id="Trazado_590324" data-name="Trazado 590324" d="M422.2,427.375a30.208,30.208,0,0,0-60.412,0Z" transform="translate(522.507 738.939)" fill="#9eba67"/>
      <path id="Trazado_590325" data-name="Trazado 590325" d="M388.126,427.375a30.208,30.208,0,0,0-60.412,0Z" transform="translate(504.066 738.939)" fill="#9eba67"/>
      <path id="Trazado_590326" data-name="Trazado 590326" d="M530.174,427.375a30.208,30.208,0,0,0-60.412,0Z" transform="translate(580.954 738.939)" fill="#75933e"/>
      <path id="Trazado_590327" data-name="Trazado 590327" d="M496.1,427.375a30.208,30.208,0,0,0-60.412,0Z" transform="translate(562.513 738.939)" fill="#75933e"/>
      <g id="Grupo_848466" data-name="Grupo 848466" transform="translate(1092.752 1116.087)" opacity="0.4">
        <g id="Grupo_848465" data-name="Grupo 848465" transform="translate(0 0)">
          <g id="Grupo_848464" data-name="Grupo 848464" clip-path="url(#clip-path-17)">
            <path id="Trazado_590328" data-name="Trazado 590328" d="M688.915,434.536a50.854,50.854,0,0,0-101.7,0Z" transform="translate(-448.222 -384.309)" fill="#b6f1f6"/>
            <path id="Trazado_590329" data-name="Trazado 590329" d="M598.736,434.536a50.854,50.854,0,0,0-101.7,0Z" transform="translate(-497.035 -384.309)" fill="#b6f1f6"/>
          </g>
        </g>
      </g>
      <path id="Trazado_590330" data-name="Trazado 590330" d="M238.808,348.827H227.584l-13.841,58.51H252.65Z" transform="translate(442.376 712.572)" fill="#adf5fb"/>
      <path id="Trazado_590331" data-name="Trazado 590331" d="M264.051,348.827H252.827l-13.841,58.51h38.907Z" transform="translate(456.039 712.572)" fill="#adf5fb"/>
      <path id="Trazado_590332" data-name="Trazado 590332" d="M238.11,356.287l-1.765-7.46H225.122l-6.828,28.862c8.155-4.542,14.5-12.762,19.816-21.4" transform="translate(444.839 712.572)" fill="#d6ffff"/>
      <path id="Trazado_590333" data-name="Trazado 590333" d="M262.585,352.284l-.818-3.457H250.545l-7.34,31.026c10.675-3.608,16.775-15.31,19.38-27.569" transform="translate(458.323 712.572)" fill="#d6ffff"/>
      <path id="Trazado_590334" data-name="Trazado 590334" d="M236.547,350.693h-14.61a1.482,1.482,0,1,1,0-2.964h14.61a1.482,1.482,0,1,1,0,2.964" transform="translate(446.008 711.978)" fill="#adf5fb"/>
      <path id="Trazado_590335" data-name="Trazado 590335" d="M262,350.693h-14.61a1.482,1.482,0,1,1,0-2.964H262a1.482,1.482,0,1,1,0,2.964" transform="translate(459.785 711.978)" fill="#adf5fb"/>
      <path id="Trazado_590336" data-name="Trazado 590336" d="M355.075,441a44.718,44.718,0,0,0,11.609-18.559,40.411,40.411,0,0,0-5.763-35.824c-6.446-9.128-12.918-23.58-3.85-37.788,0,0-34.865.156-45.87,33.316,0,0-11.344-7.907-4.2-24.582,0,0-31.633,32.94-28.426,60.458,1.4,12.01,6.042,18.816,14.92,25.488,18.613,13.99,44.77,13.6,61.579-2.511" transform="translate(477.345 712.572)" fill="#e4b63c"/>
      <path id="Trazado_590337" data-name="Trazado 590337" d="M339.205,430.871a28.75,28.75,0,0,0,7.464-11.933,25.983,25.983,0,0,0-3.705-23.034c-4.145-5.869-17.225-18.03-11.395-27.165,0,0-39.371,4.9-40.328,43.3-.194,7.773,2.66,16.16,8.369,20.451,11.968,8.995,28.787,8.745,39.594-1.615" transform="translate(484.319 723.35)" fill="#f6dfa6"/>
      <path id="Trazado_590338" data-name="Trazado 590338" d="M275.067,413.194v4.921s6.826,5.441,25.4,5.441,24.44-5.485,24.44-5.485l.253-4.877s-5.149,3.884-23.8,3.884-23.717-3.884-23.717-3.884Z" transform="translate(475.569 747.413)"/>
      <path id="Trazado_590339" data-name="Trazado 590339" d="M282.673,415.967s6.9-2.17,26.683,0l1.638-3.493s-10.24-4.779-28.79,0Z" transform="translate(479.432 745.873)"/>
      <path id="Trazado_590340" data-name="Trazado 590340" d="M299.984,412.172c-13.762,0-24.918,2.888-24.918,6.452s11.156,6.452,24.918,6.452,24.918-2.888,24.918-6.452-11.156-6.452-24.918-6.452m0,9.678c-6.88,0-12.458-1.444-12.458-3.226s5.578-3.226,12.458-3.226,12.458,1.444,12.458,3.226-5.578,3.226-12.458,3.226" transform="translate(475.568 746.859)"/>
      <path id="Trazado_590341" data-name="Trazado 590341" d="M300.111,409.736c-13.832,0-25.044,2.386-25.044,5.33s11.213,5.33,25.044,5.33,25.044-2.386,25.044-5.33-11.213-5.33-25.044-5.33m0,7.995c-6.916,0-12.523-1.193-12.523-2.665s5.607-2.665,12.523-2.665,12.521,1.193,12.521,2.665-5.606,2.665-12.521,2.665" transform="translate(475.569 745.541)" fill="#25385f"/>
      <path id="Trazado_590342" data-name="Trazado 590342" d="M304.341,412.977V417.9s6.826,5.441,25.4,5.441,24.44-5.485,24.44-5.485l.253-4.877s-5.149,3.884-23.8,3.884-23.717-3.884-23.717-3.884Z" transform="translate(491.414 747.295)"/>
      <path id="Trazado_590343" data-name="Trazado 590343" d="M311.947,415.75s6.9-2.17,26.683,0l1.638-3.493s-10.24-4.779-28.79,0Z" transform="translate(495.278 745.756)"/>
      <path id="Trazado_590344" data-name="Trazado 590344" d="M329.259,411.955c-13.762,0-24.918,2.888-24.918,6.452s11.156,6.452,24.918,6.452,24.918-2.888,24.918-6.452-11.156-6.452-24.918-6.452m0,9.678c-6.88,0-12.458-1.444-12.458-3.226s5.578-3.226,12.458-3.226,12.458,1.444,12.458,3.226-5.578,3.226-12.458,3.226" transform="translate(491.414 746.742)"/>
      <path id="Trazado_590345" data-name="Trazado 590345" d="M329.385,409.519c-13.832,0-25.044,2.387-25.044,5.33s11.213,5.33,25.044,5.33,25.044-2.386,25.044-5.33-11.213-5.33-25.044-5.33m0,7.995c-6.916,0-12.523-1.193-12.523-2.665s5.607-2.665,12.523-2.665,12.521,1.193,12.521,2.665-5.606,2.665-12.521,2.665" transform="translate(491.414 745.423)" fill="#25385f"/>
      <path id="Trazado_590346" data-name="Trazado 590346" d="M288.95,410.395v4.921s6.826,5.441,25.4,5.441,24.44-5.485,24.44-5.485l.253-4.877s-5.149,3.884-23.8,3.884-23.717-3.884-23.717-3.884Z" transform="translate(483.084 745.898)"/>
      <path id="Trazado_590347" data-name="Trazado 590347" d="M296.556,413.168s6.9-2.17,26.683,0l1.638-3.493s-10.24-4.779-28.79,0Z" transform="translate(486.947 744.358)"/>
      <path id="Trazado_590348" data-name="Trazado 590348" d="M313.867,409.372c-13.762,0-24.918,2.888-24.918,6.452s11.156,6.452,24.918,6.452,24.918-2.888,24.918-6.452-11.156-6.452-24.918-6.452m0,9.678c-6.88,0-12.458-1.444-12.458-3.226s5.578-3.226,12.458-3.226,12.458,1.444,12.458,3.226-5.578,3.226-12.458,3.226" transform="translate(483.083 745.344)"/>
      <path id="Trazado_590349" data-name="Trazado 590349" d="M313.994,406.937c-13.831,0-25.044,2.386-25.044,5.33s11.213,5.33,25.044,5.33,25.044-2.386,25.044-5.33-11.213-5.33-25.044-5.33m0,7.995c-6.916,0-12.523-1.193-12.523-2.665s5.607-2.665,12.523-2.665,12.521,1.193,12.521,2.665-5.606,2.665-12.521,2.665" transform="translate(483.084 744.026)" fill="#25385f"/>
      <path id="Trazado_590350" data-name="Trazado 590350" d="M299.317,405.6v4.921s6.826,5.441,25.4,5.441,24.44-5.487,24.44-5.487l.253-4.875s-5.149,3.884-23.8,3.884-23.717-3.884-23.717-3.884Z" transform="translate(488.695 743.305)"/>
      <path id="Trazado_590351" data-name="Trazado 590351" d="M306.923,408.377s6.9-2.17,26.683,0l1.638-3.492s-10.24-4.78-28.79,0Z" transform="translate(492.558 741.765)"/>
      <path id="Trazado_590352" data-name="Trazado 590352" d="M324.235,404.582c-13.762,0-24.918,2.888-24.918,6.452s11.156,6.452,24.918,6.452,24.918-2.888,24.918-6.452-11.156-6.452-24.918-6.452m0,9.678c-6.88,0-12.458-1.444-12.458-3.226s5.578-3.226,12.458-3.226,12.458,1.444,12.458,3.226-5.578,3.226-12.458,3.226" transform="translate(488.695 742.751)"/>
      <path id="Trazado_590353" data-name="Trazado 590353" d="M324.361,402.146c-13.831,0-25.044,2.386-25.044,5.33s11.213,5.33,25.044,5.33,25.044-2.386,25.044-5.33-11.213-5.33-25.044-5.33m0,7.995c-6.916,0-12.523-1.193-12.523-2.665s5.607-2.665,12.523-2.665,12.523,1.193,12.523,2.665-5.607,2.665-12.523,2.665" transform="translate(488.695 741.432)" fill="#25385f"/>
      <path id="Trazado_590354" data-name="Trazado 590354" d="M288.092,400.814v4.921s6.826,5.441,25.4,5.441,24.44-5.485,24.44-5.485l.253-4.877s-5.149,3.884-23.8,3.884-23.717-3.884-23.717-3.884Z" transform="translate(482.619 740.711)"/>
      <path id="Trazado_590355" data-name="Trazado 590355" d="M295.7,403.587s6.9-2.17,26.683,0l1.638-3.493s-10.24-4.779-28.79,0Z" transform="translate(486.482 739.172)"/>
      <path id="Trazado_590356" data-name="Trazado 590356" d="M313.01,399.792c-13.762,0-24.918,2.888-24.918,6.452s11.156,6.452,24.918,6.452,24.918-2.888,24.918-6.452-11.156-6.452-24.918-6.452m0,9.678c-6.88,0-12.458-1.444-12.458-3.226s5.578-3.226,12.458-3.226,12.458,1.444,12.458,3.226-5.578,3.226-12.458,3.226" transform="translate(482.619 740.158)"/>
      <path id="Trazado_590357" data-name="Trazado 590357" d="M313.136,397.356c-13.832,0-25.044,2.387-25.044,5.33s11.213,5.33,25.044,5.33,25.044-2.386,25.044-5.33-11.213-5.33-25.044-5.33m0,7.995c-6.916,0-12.521-1.193-12.521-2.665s5.606-2.665,12.521-2.665,12.523,1.193,12.523,2.665-5.607,2.665-12.523,2.665" transform="translate(482.619 738.84)" fill="#25385f"/>
      <path id="Trazado_590358" data-name="Trazado 590358" d="M294.008,396.826v4.921s6.826,5.441,25.4,5.441,24.44-5.485,24.44-5.485l.253-4.877s-5.149,3.884-23.8,3.884-23.719-3.884-23.719-3.884Z" transform="translate(485.821 738.553)"/>
      <path id="Trazado_590359" data-name="Trazado 590359" d="M301.614,399.6s6.9-2.17,26.683,0l1.638-3.493s-10.24-4.78-28.79,0Z" transform="translate(489.685 737.013)"/>
      <path id="Trazado_590360" data-name="Trazado 590360" d="M318.926,395.8c-13.762,0-24.918,2.888-24.918,6.452s11.156,6.452,24.918,6.452,24.918-2.888,24.918-6.452-11.156-6.452-24.918-6.452m0,9.678c-6.88,0-12.458-1.444-12.458-3.226s5.578-3.226,12.458-3.226,12.458,1.444,12.458,3.226-5.578,3.226-12.458,3.226" transform="translate(485.821 738)"/>
      <path id="Trazado_590361" data-name="Trazado 590361" d="M319.052,393.368c-13.831,0-25.044,2.386-25.044,5.33s11.213,5.33,25.044,5.33,25.044-2.386,25.044-5.33-11.213-5.33-25.044-5.33m0,7.995c-6.916,0-12.521-1.193-12.521-2.665s5.606-2.665,12.521-2.665,12.523,1.193,12.523,2.665-5.607,2.665-12.523,2.665" transform="translate(485.821 736.681)" fill="#25385f"/>
      <path id="Trazado_590362" data-name="Trazado 590362" d="M283.191,392.442v4.921s6.826,5.441,25.4,5.441,24.44-5.485,24.44-5.485l.253-4.877s-5.149,3.884-23.8,3.884-23.719-3.884-23.719-3.884Z" transform="translate(479.966 736.18)"/>
      <path id="Trazado_590363" data-name="Trazado 590363" d="M290.8,395.215s6.9-2.17,26.683,0l1.638-3.493s-10.24-4.78-28.79,0Z" transform="translate(483.829 734.64)"/>
      <path id="Trazado_590364" data-name="Trazado 590364" d="M308.109,391.42c-13.762,0-24.918,2.888-24.918,6.452s11.156,6.452,24.918,6.452,24.918-2.888,24.918-6.452-11.156-6.452-24.918-6.452m0,9.678c-6.88,0-12.458-1.444-12.458-3.226s5.578-3.226,12.458-3.226,12.458,1.444,12.458,3.226-5.578,3.226-12.458,3.226" transform="translate(479.966 735.627)"/>
      <path id="Trazado_590365" data-name="Trazado 590365" d="M308.235,388.984c-13.831,0-25.044,2.386-25.044,5.33s11.213,5.33,25.044,5.33,25.044-2.386,25.044-5.33-11.213-5.33-25.044-5.33m0,7.995c-6.916,0-12.521-1.193-12.521-2.665s5.606-2.665,12.521-2.665,12.523,1.193,12.523,2.665-5.607,2.665-12.523,2.665" transform="translate(479.966 734.308)" fill="#25385f"/>
      <path id="Trazado_590366" data-name="Trazado 590366" d="M295.239,387.366l-.991,4.821s5.592,6.7,23.781,10.442,25.043-.453,25.043-.453l1.232-4.724s-5.826,2.767-24.092-.988-22.45-8.58-22.45-8.58Z" transform="translate(485.951 733.432)"/>
      <path id="Trazado_590367" data-name="Trazado 590367" d="M302.019,390.915s7.2-.735,26.136,5.373l2.309-3.092s-9.067-6.743-28.2-5.8Z" transform="translate(490.158 733.401)"/>
      <path id="Trazado_590368" data-name="Trazado 590368" d="M319.972,390.235c-13.48-2.771-24.989-2.189-25.706,1.3s9.628,8.565,23.109,11.336,24.989,2.187,25.705-1.3-9.628-8.566-23.108-11.336m-1.948,9.479c-6.74-1.386-11.913-3.924-11.554-5.669s6.113-2.036,12.853-.65,11.913,3.923,11.554,5.667-6.113,2.038-12.853.652" transform="translate(485.942 734.038)"/>
      <path id="Trazado_590369" data-name="Trazado 590369" d="M320.5,387.967c-13.548-2.785-25.012-2.707-25.6.177s9.91,7.478,23.458,10.263,25.012,2.7,25.6-.179-9.909-7.477-23.458-10.262m-1.609,7.83c-6.774-1.392-12.025-3.69-11.729-5.131s6.028-1.481,12.8-.089,12.025,3.69,11.729,5.131-6.028,1.481-12.8.089" transform="translate(486.291 732.654)" fill="#25385f"/>
      <rect id="Rectángulo_281428" data-name="Rectángulo 281428" width="1030" height="7.047" transform="translate(426.409 1165.938)" fill="#9eba67"/>
      <rect id="Rectángulo_281429" data-name="Rectángulo 281429" width="329.337" height="7.047" transform="translate(1127.071 1165.938)" fill="#b6f1f6"/>
      <rect id="Rectángulo_281430" data-name="Rectángulo 281430" width="60.979" height="108.408" transform="translate(849.529 1056.741)" fill="#d0565b"/>
      <rect id="Rectángulo_281431" data-name="Rectángulo 281431" width="16.549" height="108.408" transform="translate(849.529 1056.741)" fill="#e48b92"/>
      <rect id="Rectángulo_281432" data-name="Rectángulo 281432" width="16.549" height="108.408" transform="translate(894.186 1056.741)" fill="#ae323c"/>
      <rect id="Rectángulo_281433" data-name="Rectángulo 281433" width="68.114" height="6.382" transform="translate(846.246 1056.741)" fill="#831926"/>
      <rect id="Rectángulo_281434" data-name="Rectángulo 281434" width="68.114" height="1.376" transform="translate(846.246 1056.741)" fill="#ab6773"/>
      <rect id="Rectángulo_281435" data-name="Rectángulo 281435" width="68.114" height="6.382" transform="translate(846.246 1089.234)" fill="#831926"/>
      <rect id="Rectángulo_281436" data-name="Rectángulo 281436" width="68.114" height="1.376" transform="translate(846.246 1089.234)" fill="#ab6773"/>
      <rect id="Rectángulo_281437" data-name="Rectángulo 281437" width="19.832" height="76.344" transform="translate(952.089 1063.576)" fill="#b9693c"/>
      <rect id="Rectángulo_281438" data-name="Rectángulo 281438" width="6.94" height="76.344" transform="translate(952.089 1063.576)" fill="#e6946e"/>
      <path id="Trazado_590370" data-name="Trazado 590370" d="M427.107,352.546H405.67a1.628,1.628,0,0,1,0-3.255h21.438a1.628,1.628,0,0,1,0,3.255" transform="translate(545.381 712.823)" fill="#8b4324"/>
      <path id="Trazado_590371" data-name="Trazado 590371" d="M427.107,361.149H405.67a1.628,1.628,0,1,1,0-3.255h21.438a1.628,1.628,0,0,1,0,3.255" transform="translate(545.381 717.48)" fill="#8b4324"/>
      <path id="Trazado_590372" data-name="Trazado 590372" d="M427.107,369.753H405.67a1.628,1.628,0,1,1,0-3.255h21.438a1.628,1.628,0,0,1,0,3.255" transform="translate(545.381 722.137)" fill="#8b4324"/>
      <rect id="Rectángulo_281439" data-name="Rectángulo 281439" width="19.832" height="76.344" transform="translate(920.33 1063.576)" fill="#b9693c"/>
      <rect id="Rectángulo_281440" data-name="Rectángulo 281440" width="6.94" height="76.344" transform="translate(920.33 1063.576)" fill="#e6946e"/>
      <path id="Trazado_590373" data-name="Trazado 590373" d="M406.5,352.546H385.064a1.628,1.628,0,1,1,0-3.255H406.5a1.628,1.628,0,0,1,0,3.255" transform="translate(534.227 712.823)" fill="#8b4324"/>
      <path id="Trazado_590374" data-name="Trazado 590374" d="M406.5,361.149H385.064a1.628,1.628,0,1,1,0-3.255H406.5a1.628,1.628,0,0,1,0,3.255" transform="translate(534.227 717.48)" fill="#8b4324"/>
      <path id="Trazado_590375" data-name="Trazado 590375" d="M406.5,369.753H385.064a1.628,1.628,0,1,1,0-3.255H406.5a1.628,1.628,0,0,1,0,3.255" transform="translate(534.227 722.137)" fill="#8b4324"/>
      <rect id="Rectángulo_281441" data-name="Rectángulo 281441" width="161.742" height="63.837" transform="translate(901.207 1101.311)" fill="#ecc984"/>
      <rect id="Rectángulo_281442" data-name="Rectángulo 281442" width="59.136" height="63.837" transform="translate(1003.813 1101.181)" fill="#cc9d52"/>
      <rect id="Rectángulo_281443" data-name="Rectángulo 281443" width="161.742" height="8.283" transform="translate(901.207 1101.311)" fill="#cc9d52"/>
      <rect id="Rectángulo_281444" data-name="Rectángulo 281444" width="59.136" height="8.283" transform="translate(1003.813 1101.311)" fill="#af7c35"/>
      <rect id="Rectángulo_281445" data-name="Rectángulo 281445" width="186.978" height="4.254" transform="translate(888.589 1160.895)" fill="#20305a"/>
      <rect id="Rectángulo_281446" data-name="Rectángulo 281446" width="176.987" height="4.254" transform="translate(893.584 1099.621)" fill="#20305a"/>
      <rect id="Rectángulo_281447" data-name="Rectángulo 281447" width="176.987" height="1.561" transform="translate(893.584 1099.62)" fill="#5877bc"/>
      <rect id="Rectángulo_281448" data-name="Rectángulo 281448" width="15.49" height="42.382" transform="translate(910.509 1112.334)" fill="#20305a"/>
      <rect id="Rectángulo_281449" data-name="Rectángulo 281449" width="13.022" height="39.324" transform="translate(912.976 1115.392)" fill="#0b1321"/>
      <rect id="Rectángulo_281450" data-name="Rectángulo 281450" width="15.49" height="42.382" transform="translate(940.161 1112.334)" fill="#20305a"/>
      <rect id="Rectángulo_281451" data-name="Rectángulo 281451" width="13.022" height="39.324" transform="translate(942.629 1115.392)" fill="#0b1321"/>
      <rect id="Rectángulo_281452" data-name="Rectángulo 281452" width="15.49" height="42.382" transform="translate(969.813 1112.334)" fill="#20305a"/>
      <rect id="Rectángulo_281453" data-name="Rectángulo 281453" width="13.022" height="39.324" transform="translate(972.28 1115.392)" fill="#0b1321"/>
      <rect id="Rectángulo_281454" data-name="Rectángulo 281454" width="0.595" height="55.098" transform="translate(932.352 1105.797)" fill="#cc9d52"/>
      <rect id="Rectángulo_281455" data-name="Rectángulo 281455" width="0.595" height="55.098" transform="translate(962.721 1105.797)" fill="#cc9d52"/>
      <path id="Trazado_590376" data-name="Trazado 590376" d="M576,442.948l38.338-37.22L625.627,422.1l27.424-53.9,27.783,56.144,10.459-15.53,20.986,34.446Z" transform="translate(638.457 723.057)" fill="#fff"/>
      <path id="Trazado_590377" data-name="Trazado 590377" d="M691.294,408.812l20.985,34.446L576,442.948l40.16-16.912-7.622-5.116,5.8-15.192,18.921,27.341,23.132-14.924-7.834-12.417,15.457-5.558L653.052,368.2l28.036,56.661,5.763,11.188-1.033-10.892,9.741,4.447Z" transform="translate(638.457 723.057)" fill="#bdcfd1"/>
      <path id="Trazado_590378" data-name="Trazado 590378" d="M527.778,424.365l27-21.96,6.034,9.528,6.034-6.353,14.292,18.785Z" transform="translate(612.357 741.572)" fill="#fff"/>
      <path id="Trazado_590379" data-name="Trazado 590379" d="M527.778,424.365l23.432-6.239-2.222-4.741,5.787-10.98,6.034,9.528,3.741,7.389,4.53-5.937-2.236-7.8,14.292,18.785Z" transform="translate(612.357 741.572)" fill="#bdcfd1"/>
      <path id="Trazado_590380" data-name="Trazado 590380" d="M592.028,421.212H522.9a2.28,2.28,0,0,1,0-4.559h69.125a2.28,2.28,0,0,1,0,4.559" transform="translate(608.484 749.285)" fill="#fff"/>
      <path id="Trazado_590381" data-name="Trazado 590381" d="M770.123,421.212H576.45a2.28,2.28,0,1,1,0-4.559H770.123a2.28,2.28,0,0,1,0,4.559" transform="translate(637.468 749.285)" fill="#fff"/>
      <path id="Trazado_590382" data-name="Trazado 590382" d="M175.676,347.254a24.138,24.138,0,1,0,24.138-24.138,24.139,24.139,0,0,0-24.138,24.138" transform="translate(421.77 698.655)" fill="#e8e8e8"/>
      <path id="Trazado_590383" data-name="Trazado 590383" d="M172.636,322.938A24.138,24.138,0,1,0,196.774,298.8a24.139,24.139,0,0,0-24.138,24.138" transform="translate(420.125 685.493)" fill="#e8e8e8"/>
      <path id="Trazado_590384" data-name="Trazado 590384" d="M197.21,327.833A24.138,24.138,0,1,0,221.348,303.7a24.139,24.139,0,0,0-24.138,24.138" transform="translate(433.426 688.143)" fill="#e8e8e8"/>
      <path id="Trazado_590385" data-name="Trazado 590385" d="M232.864,285.015a24.138,24.138,0,1,0,16.415-29.932,24.139,24.139,0,0,0-16.415,29.932" transform="translate(452.199 661.304)" fill="#e8e8e8"/>
      <path id="Trazado_590386" data-name="Trazado 590386" d="M211.431,283.162a24.138,24.138,0,1,0,16.415-29.93,24.138,24.138,0,0,0-16.415,29.93" transform="translate(440.598 660.301)" fill="#e8e8e8"/>
      <path id="Trazado_590387" data-name="Trazado 590387" d="M235.821,264.3a24.138,24.138,0,1,0,16.415-29.93,24.139,24.139,0,0,0-16.415,29.93" transform="translate(453.8 650.093)" fill="#e8e8e8"/>
      <path id="Trazado_590388" data-name="Trazado 590388" d="M284.007,290.4a24.138,24.138,0,1,0,24.138-24.138A24.139,24.139,0,0,0,284.007,290.4" transform="translate(480.408 667.883)" fill="#e8e8e8"/>
      <path id="Trazado_590389" data-name="Trazado 590389" d="M268.346,310.7a24.138,24.138,0,1,0,24.138-24.138A24.139,24.139,0,0,0,268.346,310.7" transform="translate(471.931 678.869)" fill="#e8e8e8"/>
      <path id="Trazado_590390" data-name="Trazado 590390" d="M289.455,310.7a24.138,24.138,0,1,0,24.138-24.138A24.139,24.139,0,0,0,289.455,310.7" transform="translate(483.357 678.869)" fill="#e8e8e8"/>
      <path id="Trazado_590391" data-name="Trazado 590391" d="M267.53,295.04A24.138,24.138,0,1,0,291.668,270.9,24.139,24.139,0,0,0,267.53,295.04" transform="translate(471.489 670.392)" fill="#e8e8e8"/>
      <path id="Trazado_590392" data-name="Trazado 590392" d="M195.449,307.2a14.17,14.17,0,1,0,14.169-14.169A14.171,14.171,0,0,0,195.449,307.2" transform="translate(432.473 682.37)" fill="#e8e8e8"/>
      <path id="Trazado_590393" data-name="Trazado 590393" d="M168.22,332.175a11.493,11.493,0,1,0,11.492-11.492,11.492,11.492,0,0,0-11.492,11.492" transform="translate(417.734 697.338)" fill="#e8e8e8"/>
      <path id="Trazado_590394" data-name="Trazado 590394" d="M238.32,321.921a11.493,11.493,0,1,0,11.493-11.492,11.492,11.492,0,0,0-11.493,11.492" transform="translate(455.678 691.788)" fill="#e8e8e8"/>
      <path id="Trazado_590395" data-name="Trazado 590395" d="M165.18,271.96a11.493,11.493,0,1,0,11.492-11.493A11.493,11.493,0,0,0,165.18,271.96" transform="translate(416.089 664.744)" fill="#e8e8e8"/>
      <path id="Trazado_590396" data-name="Trazado 590396" d="M287.773,318.5A11.493,11.493,0,1,0,299.265,307,11.491,11.491,0,0,0,287.773,318.5" transform="translate(482.447 689.934)" fill="#e8e8e8"/>
      <path id="Trazado_590397" data-name="Trazado 590397" d="M283.859,346.047a11.493,11.493,0,1,0,11.493-11.492,11.492,11.492,0,0,0-11.493,11.492" transform="translate(480.328 704.847)" fill="#e8e8e8"/>
      <path id="Trazado_590398" data-name="Trazado 590398" d="M348.28,317.653a11.493,11.493,0,1,0,11.493-11.493,11.492,11.492,0,0,0-11.493,11.493" transform="translate(515.198 689.477)" fill="#e8e8e8"/>
      <path id="Trazado_590399" data-name="Trazado 590399" d="M358.659,315.453a11.493,11.493,0,1,0,11.492-11.493,11.491,11.491,0,0,0-11.492,11.493" transform="translate(520.816 688.286)" fill="#e8e8e8"/>
      <path id="Trazado_590400" data-name="Trazado 590400" d="M355.737,325.11a11.493,11.493,0,1,0,11.492-11.492,11.492,11.492,0,0,0-11.492,11.492" transform="translate(519.234 693.514)" fill="#e8e8e8"/>
      <path id="Trazado_590401" data-name="Trazado 590401" d="M223.332,253.661a11.493,11.493,0,1,0,7.816-14.251,11.494,11.494,0,0,0-7.816,14.251" transform="translate(447.315 653.096)" fill="#e8e8e8"/>
      <path id="Trazado_590402" data-name="Trazado 590402" d="M231.032,261.9a11.492,11.492,0,1,0,7.814-14.251,11.494,11.494,0,0,0-7.814,14.251" transform="translate(451.483 657.555)" fill="#e8e8e8"/>
      <path id="Trazado_590403" data-name="Trazado 590403" d="M197.186,337.121a11.492,11.492,0,1,0,11.492-11.492,11.492,11.492,0,0,0-11.492,11.492" transform="translate(433.413 700.015)" fill="#e8e8e8"/>
      <path id="Trazado_590404" data-name="Trazado 590404" d="M183.133,332.756a9.392,9.392,0,1,0,9.393-9.393,9.393,9.393,0,0,0-9.393,9.393" transform="translate(425.807 698.789)" fill="#bdbdbd"/>
      <path id="Trazado_590405" data-name="Trazado 590405" d="M281.264,297.884a9.392,9.392,0,1,0,9.393-9.393,9.393,9.393,0,0,0-9.393,9.393" transform="translate(478.923 679.913)" fill="#bdbdbd"/>
      <path id="Trazado_590406" data-name="Trazado 590406" d="M298.475,306.577a9.392,9.392,0,1,0,9.393-9.393,9.393,9.393,0,0,0-9.393,9.393" transform="translate(488.239 684.618)" fill="#bdbdbd"/>
      <path id="Trazado_590407" data-name="Trazado 590407" d="M190.169,325.263a5.408,5.408,0,1,0,5.407-5.407,5.407,5.407,0,0,0-5.407,5.407" transform="translate(429.615 696.89)" fill="#bdbdbd"/>
      <path id="Trazado_590408" data-name="Trazado 590408" d="M184.552,315.373a3.328,3.328,0,1,0,3.328-3.328,3.328,3.328,0,0,0-3.328,3.328" transform="translate(426.575 692.662)" fill="#bdbdbd"/>
      <path id="Trazado_590409" data-name="Trazado 590409" d="M202.908,306.606a3.328,3.328,0,1,0,3.328-3.328,3.328,3.328,0,0,0-3.328,3.328" transform="translate(436.51 687.917)" fill="#bdbdbd"/>
      <path id="Trazado_590410" data-name="Trazado 590410" d="M232.691,298.757a3.328,3.328,0,1,0,3.328-3.328,3.328,3.328,0,0,0-3.328,3.328" transform="translate(452.631 683.668)" fill="#595959"/>
      <path id="Trazado_590411" data-name="Trazado 590411" d="M246.858,272.071a3.328,3.328,0,1,0,3.328-3.328,3.328,3.328,0,0,0-3.328,3.328" transform="translate(460.3 669.224)" fill="#bdbdbd"/>
      <path id="Trazado_590412" data-name="Trazado 590412" d="M212.871,316.945a3.328,3.328,0,1,0,3.328-3.328,3.328,3.328,0,0,0-3.328,3.328" transform="translate(441.903 693.513)" fill="#bdbdbd"/>
      <path id="Trazado_590413" data-name="Trazado 590413" d="M287.3,288.77a3.328,3.328,0,1,0,3.328-3.328,3.328,3.328,0,0,0-3.328,3.328" transform="translate(482.188 678.263)" fill="#bdbdbd"/>
      <path id="Trazado_590414" data-name="Trazado 590414" d="M362.414,314.786a3.328,3.328,0,1,0,3.328-3.328,3.326,3.326,0,0,0-3.328,3.328" transform="translate(522.848 692.345)" fill="#bdbdbd"/>
      <path id="Trazado_590415" data-name="Trazado 590415" d="M383.237,313.471a3.328,3.328,0,1,0,3.328-3.328,3.328,3.328,0,0,0-3.328,3.328" transform="translate(534.12 691.633)" fill="#595959"/>
      <path id="Trazado_590416" data-name="Trazado 590416" d="M416.48,334.254a3.328,3.328,0,1,0,3.328-3.328,3.327,3.327,0,0,0-3.328,3.328" transform="translate(552.113 702.882)" fill="#595959"/>
      <path id="Trazado_590417" data-name="Trazado 590417" d="M276.189,326.8a3.328,3.328,0,1,0,3.328-3.328,3.327,3.327,0,0,0-3.328,3.328" transform="translate(476.176 698.846)" fill="#595959"/>
      <path id="Trazado_590418" data-name="Trazado 590418" d="M197.6,247.575a3.328,3.328,0,1,0,3.328-3.328,3.328,3.328,0,0,0-3.328,3.328" transform="translate(433.637 655.964)" fill="#595959"/>
      <rect id="Rectángulo_281456" data-name="Rectángulo 281456" width="93.463" height="62.713" transform="translate(650.984 1103.224)" fill="#1b294c"/>
      <rect id="Rectángulo_281457" data-name="Rectángulo 281457" width="93.463" height="9.12" transform="translate(650.984 1103.224)" fill="#0f1727"/>
      <rect id="Rectángulo_281458" data-name="Rectángulo 281458" width="0.926" height="62.713" transform="translate(664.08 1103.224)"/>
      <rect id="Rectángulo_281459" data-name="Rectángulo 281459" width="0.926" height="62.713" transform="translate(687.052 1103.224)"/>
      <rect id="Rectángulo_281460" data-name="Rectángulo 281460" width="0.926" height="62.713" transform="translate(710.022 1103.224)"/>
      <rect id="Rectángulo_281461" data-name="Rectángulo 281461" width="0.926" height="62.713" transform="translate(732.993 1103.224)"/>
      <rect id="Rectángulo_281462" data-name="Rectángulo 281462" width="58.99" height="62.713" transform="translate(533.771 1103.224)" fill="#20305a"/>
      <rect id="Rectángulo_281463" data-name="Rectángulo 281463" width="58.99" height="9.12" transform="translate(533.771 1103.224)" fill="#15203c"/>
      <rect id="Rectángulo_281464" data-name="Rectángulo 281464" width="227.788" height="4.929" transform="translate(525.525 1098.793)" fill="#b9693c"/>
      <rect id="Rectángulo_281465" data-name="Rectángulo 281465" width="58.224" height="114.573" transform="translate(592.761 1051.366)" fill="#324375"/>
      <rect id="Rectángulo_281466" data-name="Rectángulo 281466" width="11.492" height="114.573" transform="translate(592.762 1051.366)" fill="#687eb1"/>
      <rect id="Rectángulo_281467" data-name="Rectángulo 281467" width="18.135" height="114.573" transform="translate(632.849 1051.366)" fill="#21325f"/>
      <rect id="Rectángulo_281468" data-name="Rectángulo 281468" width="58.224" height="12.21" transform="translate(592.761 1051.366)" fill="#20305a"/>
      <rect id="Rectángulo_281469" data-name="Rectángulo 281469" width="227.788" height="6.164" transform="translate(525.525 1159.775)" fill="#121d37"/>
      <rect id="Rectángulo_281470" data-name="Rectángulo 281470" width="227.788" height="1.641" transform="translate(525.525 1159.773)" fill="#516692"/>
      <rect id="Rectángulo_281471" data-name="Rectángulo 281471" width="66.38" height="3.682" transform="translate(588.394 1051.366)" fill="#b9693c"/>
      <rect id="Rectángulo_281472" data-name="Rectángulo 281472" width="17.008" height="30.892" transform="translate(597.446 1072.632)" fill="#20305a"/>
      <rect id="Rectángulo_281473" data-name="Rectángulo 281473" width="14.286" height="28.161" transform="translate(600.168 1075.362)"/>
      <rect id="Rectángulo_281474" data-name="Rectángulo 281474" width="17.008" height="30.892" transform="translate(626.783 1072.632)" fill="#20305a"/>
      <rect id="Rectángulo_281475" data-name="Rectángulo 281475" width="14.286" height="28.161" transform="translate(629.505 1075.362)"/>
      <rect id="Rectángulo_281476" data-name="Rectángulo 281476" width="17.008" height="30.892" transform="translate(597.446 1114.826)" fill="#20305a"/>
      <rect id="Rectángulo_281477" data-name="Rectángulo 281477" width="14.286" height="28.161" transform="translate(600.168 1117.557)"/>
      <rect id="Rectángulo_281478" data-name="Rectángulo 281478" width="22.868" height="42.687" transform="translate(551.573 1117.085)" fill="#0f1727"/>
      <rect id="Rectángulo_281479" data-name="Rectángulo 281479" width="19.207" height="38.914" transform="translate(555.234 1120.859)"/>
      <rect id="Rectángulo_281480" data-name="Rectángulo 281480" width="17.008" height="30.892" transform="translate(626.783 1114.826)" fill="#20305a"/>
      <rect id="Rectángulo_281481" data-name="Rectángulo 281481" width="14.286" height="28.161" transform="translate(629.505 1117.557)"/>
      <rect id="Rectángulo_281482" data-name="Rectángulo 281482" width="66.38" height="1.353" transform="translate(588.394 1051.366)" fill="#da8d6a"/>
      <path id="Trazado_590419" data-name="Trazado 590419" d="M458.389,372.581a14.929,14.929,0,0,0,1.907-7.4c0-7.3-4.988-12.238-11.139-12.238s-11.139,4.938-11.139,12.238a14.929,14.929,0,0,0,1.907,7.4Z" transform="translate(563.772 714.802)" fill="#727b7e"/>
      <path id="Trazado_590420" data-name="Trazado 590420" d="M449.443,371.156a14.121,14.121,0,0,0,.45-3.55c0-6.643-4.538-12.027-10.137-12.027s-10.135,5.384-10.135,12.027a14.124,14.124,0,0,0,.45,3.55Z" transform="translate(559.227 716.227)" fill="#727b7e"/>
      <path id="Trazado_590421" data-name="Trazado 590421" d="M438.261,367.916c-1.06-3.69-4-6.349-7.469-6.349-.174,0-.345.008-.516.02-3.986.305-3.634,6.329.362,6.329Z" transform="translate(558.055 719.468)" fill="#727b7e"/>
      <path id="Trazado_590422" data-name="Trazado 590422" d="M468.709,371.156a14.118,14.118,0,0,0,.45-3.55c0-6.643-4.539-12.027-10.137-12.027s-10.136,5.384-10.136,12.027a14.121,14.121,0,0,0,.45,3.55Z" transform="translate(569.655 716.227)" fill="#727b7e"/>
      <path id="Trazado_590423" data-name="Trazado 590423" d="M464.816,367.916c4,0,4.348-6.023.364-6.329-.171-.012-.344-.02-.516-.02-3.469,0-6.409,2.659-7.469,6.349Z" transform="translate(574.151 719.468)" fill="#727b7e"/>
      <path id="Trazado_590424" data-name="Trazado 590424" d="M159.457,373.761a13.2,13.2,0,0,0,1.683-6.53c0-6.446-4.4-10.806-9.836-10.806s-9.835,4.36-9.835,10.806a13.179,13.179,0,0,0,1.683,6.53Z" transform="translate(403.255 716.684)" fill="#727b7e"/>
      <path id="Trazado_590425" data-name="Trazado 590425" d="M151.558,372.5a12.469,12.469,0,0,0,.4-3.135c0-5.866-4.007-10.621-8.952-10.621s-8.95,4.755-8.95,10.621a12.471,12.471,0,0,0,.4,3.135Z" transform="translate(399.241 717.942)" fill="#727b7e"/>
      <path id="Trazado_590426" data-name="Trazado 590426" d="M141.683,369.642c-.937-3.258-3.533-5.606-6.6-5.606-.154,0-.305.006-.456.017-3.519.27-3.209,5.589.321,5.589Z" transform="translate(398.207 720.804)" fill="#727b7e"/>
      <path id="Trazado_590427" data-name="Trazado 590427" d="M168.572,372.5a12.47,12.47,0,0,0,.4-3.135c0-5.866-4.007-10.621-8.952-10.621s-8.95,4.755-8.95,10.621a12.469,12.469,0,0,0,.4,3.135Z" transform="translate(408.45 717.942)" fill="#727b7e"/>
      <path id="Trazado_590428" data-name="Trazado 590428" d="M165.134,369.642c3.53,0,3.839-5.319.321-5.589-.151-.011-.3-.017-.456-.017-3.063,0-5.66,2.347-6.6,5.606Z" transform="translate(412.421 720.804)" fill="#727b7e"/>
      <path id="Trazado_590429" data-name="Trazado 590429" d="M313.908,363.3a3.448,3.448,0,1,0,3.448-3.448,3.448,3.448,0,0,0-3.448,3.448" transform="translate(496.593 718.539)" fill="#f6dfa6"/>
      <path id="Trazado_590430" data-name="Trazado 590430" d="M319.136,355.967a1.781,1.781,0,1,0,1.782-1.782,1.782,1.782,0,0,0-1.782,1.782" transform="translate(499.423 715.472)" fill="#f6dfa6"/>
      <path id="Trazado_590431" data-name="Trazado 590431" d="M311.246,347.25a3.266,3.266,0,1,0,3.266-3.266,3.266,3.266,0,0,0-3.266,3.266" transform="translate(495.152 709.95)" fill="#f6dfa6"/>
      <path id="Trazado_590432" data-name="Trazado 590432" d="M319.824,340.643a2.532,2.532,0,1,0,2.532-2.532,2.533,2.533,0,0,0-2.532,2.532" transform="translate(499.795 706.771)" fill="#f6dfa6"/>
      <path id="Trazado_590433" data-name="Trazado 590433" d="M297.642,362.551a2.7,2.7,0,1,0,2.7-2.7,2.7,2.7,0,0,0-2.7,2.7" transform="translate(487.788 718.539)" fill="#f6dfa6"/>
      <path id="Trazado_590434" data-name="Trazado 590434" d="M284.678,359.237a2.065,2.065,0,1,0,2.064-2.065,2.064,2.064,0,0,0-2.064,2.065" transform="translate(480.771 717.089)" fill="#f6dfa6"/>
      <path id="Trazado_590435" data-name="Trazado 590435" d="M332.721,361.575a1.724,1.724,0,1,0,1.723-1.723,1.723,1.723,0,0,0-1.723,1.723" transform="translate(506.776 718.539)" fill="#f6dfa6"/>
      <path id="Trazado_590436" data-name="Trazado 590436" d="M333.84,349.689a.862.862,0,1,0,.862-.862.861.861,0,0,0-.862.862" transform="translate(507.382 712.572)" fill="#f6dfa6"/>
      <path id="Trazado_590437" data-name="Trazado 590437" d="M330.157,380.9a3.269,3.269,0,1,0,3.269-3.269,3.27,3.27,0,0,0-3.269,3.269" transform="translate(505.388 728.164)" fill="#999"/>
      <path id="Trazado_590438" data-name="Trazado 590438" d="M321.467,371.564a2.825,2.825,0,1,0,2.825-2.825,2.826,2.826,0,0,0-2.825,2.825" transform="translate(500.685 723.35)" fill="#999"/>
      <path id="Trazado_590439" data-name="Trazado 590439" d="M291.543,379.532a1.9,1.9,0,1,0,1.9-1.9,1.9,1.9,0,0,0-1.9,1.9" transform="translate(484.487 728.164)" fill="#999"/>
      <path id="Trazado_590440" data-name="Trazado 590440" d="M307.4,351.477a1.238,1.238,0,1,0,1.239-1.239,1.239,1.239,0,0,0-1.239,1.239" transform="translate(493.07 713.336)" fill="#999"/>
      <path id="Trazado_590441" data-name="Trazado 590441" d="M364.418,353.659a2.617,2.617,0,1,0,2.617-2.617,2.617,2.617,0,0,0-2.617,2.617" transform="translate(523.933 713.771)" fill="#999"/>
      <path id="Trazado_590442" data-name="Trazado 590442" d="M376.682,331.085a1.628,1.628,0,1,0,1.628-1.628,1.628,1.628,0,0,0-1.628,1.628" transform="translate(530.571 702.087)" fill="#999"/>
      <path id="Trazado_590443" data-name="Trazado 590443" d="M342.427,329.393a3.765,3.765,0,1,0,3.764-3.765,3.763,3.763,0,0,0-3.764,3.765" transform="translate(512.03 700.015)" fill="#999"/>
      <path id="Trazado_590444" data-name="Trazado 590444" d="M392.966,339.261a6.176,6.176,0,1,0,6.176-6.176,6.176,6.176,0,0,0-6.176,6.176" transform="translate(539.386 704.051)" fill="#999"/>
      <path id="Trazado_590446" data-name="Trazado 590446" d="M312.607,377.555a3.328,3.328,0,1,0,3.328-3.328,3.328,3.328,0,0,0-3.328,3.328" transform="translate(495.889 726.32)" fill="#595959"/>
      <path id="Trazado_590447" data-name="Trazado 590447" d="M306.166,359.18a1.9,1.9,0,1,0,1.9-1.9,1.9,1.9,0,0,0-1.9,1.9" transform="translate(492.402 717.146)" fill="#595959"/>
      <path id="Trazado_590448" data-name="Trazado 590448" d="M331.487,342.679a1.9,1.9,0,1,0,1.9-1.9,1.9,1.9,0,0,0-1.9,1.9" transform="translate(506.108 708.214)" fill="#595959"/>
      <path id="Trazado_590449" data-name="Trazado 590449" d="M355.737,339.445a1.9,1.9,0,1,0,1.9-1.9,1.9,1.9,0,0,0-1.9,1.9" transform="translate(519.234 706.464)" fill="#595959"/>
      <path id="Trazado_590450" data-name="Trazado 590450" d="M333.724,324.753a1.9,1.9,0,1,0,1.9-1.9,1.9,1.9,0,0,0-1.9,1.9" transform="translate(507.319 698.511)" fill="#595959"/>
    </g>
    <g id="Grupo_848514" data-name="Grupo 848514" transform="translate(-91.907 32)">
      <rect id="Rectángulo_281513" data-name="Rectángulo 281513" width="182" height="48" transform="translate(1168 874)" fill="#fcfd86"/>
      <text id="Vapor_de_agua_H2O_" data-name="Vapor de agua (H2O)" transform="translate(1184 904.752)" fill="#12263f" font-size="16" font-family="Roboto-Regular, Roboto"><tspan x="0" y="0">Vapor de agua (H2O)</tspan></text>
    </g>
    <g id="Grupo_848513" data-name="Grupo 848513" transform="translate(-104.907 -49)">
      <rect id="Rectángulo_281514" data-name="Rectángulo 281514" width="211" height="48" transform="translate(1076 795)" fill="#fcfd86"/>
      <text id="Dióxido_de_carbono_CO2_" data-name="Dióxido de carbono (CO2)" transform="translate(1093 826)" fill="#12263f" font-size="16" font-family="Roboto-Regular, Roboto"><tspan x="0" y="0">Dióxido de carbono (CO2)</tspan></text>
    </g>
    <g id="Grupo_848515" data-name="Grupo 848515" transform="translate(3.093 -16)">
      <rect id="Rectángulo_281518" data-name="Rectángulo 281518" width="169" height="48" transform="translate(260 874)" fill="#fcfd86"/>
      <text id="Óxido_nitroso_N2O_" data-name="Óxido nitroso (N2O)" transform="translate(272.5 904.752)" fill="#12263f" font-size="16" font-family="Roboto-Regular, Roboto"><tspan x="0" y="0">Óxido nitroso (N2O)</tspan></text>
    </g>
    <g id="Grupo_848511" data-name="Grupo 848511" transform="translate(-40.907 190)">
      <rect id="Rectángulo_281517" data-name="Rectángulo 281517" width="129" height="48" transform="translate(656 611)" fill="#fcfd86"/>
      <text id="Metano_CH4_" data-name="Metano (CH4)" transform="translate(670 641.752)" fill="#12263f" font-size="16" font-family="Roboto-Regular, Roboto"><tspan x="0" y="0">Metano (CH4)</tspan></text>
    </g>
    <g id="Grupo_848512" data-name="Grupo 848512" transform="translate(42.093 -49)">
      <rect id="Rectángulo_281515" data-name="Rectángulo 281515" width="109" height="48" transform="translate(875 646)" fill="#fcfd86"/>
      <text id="Ozono_O3_" data-name="Ozono (O3)" transform="translate(889 676.752)" fill="#12263f" font-size="16" font-family="Roboto-Regular, Roboto"><tspan x="0" y="0">Ozono (O3)</tspan></text>
    </g>
    <g id="Grupo_848510" data-name="Grupo 848510" transform="translate(19.093 -21)">
      <rect id="Rectángulo_281519" data-name="Rectángulo 281519" width="319" height="131" transform="translate(329 636)" fill="#fcfd86"/>
      <text id="Sustancias_reguladas_por_el_protocolo_de_Montreal_como_hexafluoruro_de_azufre_SF6_hidrofluorocarbonos_HFC_y_los_perfluorocarbonos_PFC_" data-name="Sustancias reguladas por el protocolo de Montreal, como hexafluoruro de azufre (SF6), hidrofluorocarbonos (HFC) y los perfluorocarbonos (PFC)" transform="translate(345 654)" fill="#12263f" font-size="16" font-family="Roboto-Regular, Roboto"><tspan x="0" y="17">Sustancias reguladas por el protocolo </tspan><tspan x="0" y="42">de Montreal, como hexafluoruro de </tspan><tspan x="0" y="67">azufre (SF6), hidrofluorocarbonos (HFC) </tspan><tspan x="0" y="92">y los perfluorocarbonos (PFC)</tspan></text>
    </g>
  </g>
</svg>
