<svg id="Grupo_848473" data-name="Grupo 848473" xmlns="http://www.w3.org/2000/svg" xmlns:xlink="http://www.w3.org/1999/xlink" width="48.5" height="48.613" viewBox="0 0 48.5 48.613">
  <defs>
    <clipPath id="clip-path">
      <rect id="Rectángulo_281489" data-name="Rectángulo 281489" width="48.5" height="48.613" fill="#fc5a2a"/>
    </clipPath>
  </defs>
  <g id="Grupo_848472" data-name="Grupo 848472" clip-path="url(#clip-path)">
    <path id="Trazado_590454" data-name="Trazado 590454" d="M22.448,0a11.034,11.034,0,0,1,1.106.4,3.8,3.8,0,0,1-.787,7.1c-.136.033-.27.071-.427.113a3.989,3.989,0,0,1,.414,2.642,3.771,3.771,0,0,1-3.524,3.05A2.9,2.9,0,0,0,16.19,16.5q0,2.112.01,4.224a.471.471,0,0,0,.044.117c.215.029.45.042.675.095a2.819,2.819,0,0,1,2.214,2.584q.576,7.761,1.145,15.522c.188,2.538.381,5.075.574,7.644h6.794c.069-.877.142-1.769.208-2.661q.416-5.608.828-11.215c.226-3.06.447-6.121.68-9.18a2.8,2.8,0,0,1,2.724-2.755,1.675,1.675,0,0,0,.172-.034c.184-1.089-.335-1.71-1.5-1.819A3.079,3.079,0,0,1,27.9,16.535a3.462,3.462,0,0,1-.036-.944,8.128,8.128,0,0,1,.189-.951c-.093-.038-.19-.082-.29-.119a3.119,3.119,0,0,1,1.054-6.064q6.79-.013,13.579,0a3.117,3.117,0,0,1,1.027,6.08c-.074.027-.146.058-.186.074a8.482,8.482,0,0,1,.15,1.591A3.047,3.047,0,0,1,40.5,19.018c-1.182.112-1.685.719-1.487,1.822a7.339,7.339,0,0,1,.736.092A2.864,2.864,0,0,1,42,23.644q.587,8.021,1.168,16.043.236,3.242.478,6.483c.013.171.041.34.067.546,1.226,0,2.427-.005,3.628,0a1.606,1.606,0,0,1,.645.108.862.862,0,0,1,.506.976.894.894,0,0,1-.772.789,2.05,2.05,0,0,1-.426.017H1.236c-.095,0-.19,0-.285,0A.937.937,0,0,1,0,47.639a.919.919,0,0,1,.952-.917c1.092-.015,2.184-.005,3.276-.006H4.8c.051-.6.106-1.176.148-1.753q.447-6.129.89-12.258.331-4.543.67-9.086A2.843,2.843,0,0,1,9.3,20.871c.061,0,.122-.016.213-.028a3.569,3.569,0,0,0,.038-.369c0-1.408.012-2.817,0-4.225A2.732,2.732,0,0,0,6.8,13.343,3.847,3.847,0,0,1,3.374,7.715a.394.394,0,0,0,.014-.108c-.1-.03-.205-.066-.311-.091A3.806,3.806,0,0,1,2.964.109c.1-.028.2-.072.3-.109ZM14.293,20.845v-.532c0-1.3,0-2.594,0-3.891a4.764,4.764,0,0,1,4.641-5,3.141,3.141,0,0,0,.654-.09,1.9,1.9,0,0,0,1.333-2.048A1.923,1.923,0,0,0,19.091,7.6a.966.966,0,0,1-1-.977.98.98,0,0,1,1.064-.917c.854-.009,1.709,0,2.563-.006a2.638,2.638,0,0,0,.656-.069A1.9,1.9,0,0,0,21.8,1.9q-8.875-.007-17.75,0a1.911,1.911,0,1,0-.016,3.811c.87.005,1.74-.01,2.61.005a.935.935,0,0,1,.993,1.1c-.068.463-.4.733-.977.787A1.926,1.926,0,0,0,4.821,9.527a1.9,1.9,0,0,0,1.863,1.89c.189.014.379.03.567.05A4.688,4.688,0,0,1,11.435,16c.035,1.439.011,2.878.014,4.318,0,.168,0,.337,0,.528ZM6.717,46.684H18.94c-.012-.237-.019-.44-.034-.643-.277-3.753-.56-7.506-.822-11.261-.026-.375-.146-.472-.508-.471-3.165.013-6.329.007-9.494.008-.139,0-.279.014-.456.024L6.717,46.684M40.878,34.348c-.133-.014-.211-.03-.288-.03-3.244,0-6.487,0-9.731-.009-.346,0-.413.137-.435.444-.2,2.9-.424,5.8-.637,8.706-.078,1.068-.15,2.136-.225,3.218H41.786l-.908-12.33M37.022,20.842a9.442,9.442,0,0,1,.094-1.078,3.271,3.271,0,0,1,3.172-2.625,1.247,1.247,0,0,0,1.233-1.2,1.225,1.225,0,0,0-1.177-1.24c-.629-.084-1.011-.476-.982-1a.96.96,0,0,1,1.077-.891c.648-.006,1.3.009,1.945-.005a1.231,1.231,0,1,0-.1-2.451q-5.006-.006-10.012,0c-1.139,0-2.278-.009-3.416,0a1.214,1.214,0,0,0-1.277,1.327,1.228,1.228,0,0,0,1.3,1.122c.711.015,1.424-.008,2.135.015a.882.882,0,0,1,.855.8.9.9,0,0,1-.655,1.019,3.774,3.774,0,0,1-.466.079,1.2,1.2,0,0,0-1,1.153A1.174,1.174,0,0,0,30.7,17.1c.186.036.376.047.565.065a3.209,3.209,0,0,1,2.871,2.668c.055.324.071.655.108,1.009Zm-28.9,6.765h9.423c-.109-1.385-.2-2.739-.33-4.088a.872.872,0,0,0-.951-.749q-3.442-.012-6.884,0a.91.91,0,0,0-.971.9c-.107,1.292-.19,2.586-.287,3.935M30.958,27.6h9.421c-.1-1.329-.179-2.623-.285-3.915a.9.9,0,0,0-.913-.91q-3.513-.021-7.026,0a.842.842,0,0,0-.876.776c-.123,1.337-.215,2.676-.322,4.049M7.979,29.551l-.2,2.845H17.9l-.222-2.845Zm32.547.02H30.819c-.071.96-.139,1.884-.208,2.82H40.729c-.069-.966-.136-1.891-.2-2.82" transform="translate(-0.001)" fill="#fc5a2a"/>
  </g>
</svg>
