<svg id="Grupo_848747" data-name="Grupo 848747" xmlns="http://www.w3.org/2000/svg" xmlns:xlink="http://www.w3.org/1999/xlink" width="312.719" height="185.517" viewBox="0 0 312.719 185.517">
  <defs>
    <clipPath id="clip-path">
      <rect id="Rectángulo_281732" data-name="Rectángulo 281732" width="312.719" height="185.516" fill="none"/>
    </clipPath>
    <clipPath id="clip-path-3">
      <rect id="Rectángulo_281673" data-name="Rectángulo 281673" width="7.888" height="81.196" fill="none"/>
    </clipPath>
    <clipPath id="clip-path-5">
      <rect id="Rectángulo_281679" data-name="Rectángulo 281679" width="5.038" height="49.627" fill="none"/>
    </clipPath>
    <clipPath id="clip-path-7">
      <rect id="Rectángulo_281685" data-name="Rectángulo 281685" width="36.891" height="90.81" fill="none"/>
    </clipPath>
    <clipPath id="clip-path-9">
      <rect id="Rectángulo_281720" data-name="Rectángulo 281720" width="32.733" height="27.867" fill="none"/>
    </clipPath>
    <clipPath id="clip-path-10">
      <rect id="Rectángulo_281721" data-name="Rectángulo 281721" width="32.732" height="27.867" fill="none"/>
    </clipPath>
  </defs>
  <g id="Grupo_848625" data-name="Grupo 848625" clip-path="url(#clip-path)">
    <rect id="Rectángulo_281668" data-name="Rectángulo 281668" width="19.363" height="19.487" transform="translate(9.867 119.65)" fill="#ea3f24"/>
    <rect id="Rectángulo_281669" data-name="Rectángulo 281669" width="16.569" height="81.196" transform="translate(49.799)" fill="#ff5050"/>
    <rect id="Rectángulo_281670" data-name="Rectángulo 281670" width="16.569" height="7.785" transform="translate(49.798 4.474)" fill="#fff5e3"/>
    <rect id="Rectángulo_281671" data-name="Rectángulo 281671" width="16.569" height="7.785" transform="translate(49.798 15.829)" fill="#fff5e3"/>
    <g id="Grupo_848606" data-name="Grupo 848606">
      <g id="Grupo_848605" data-name="Grupo 848605" clip-path="url(#clip-path)">
        <g id="Grupo_848604" data-name="Grupo 848604" transform="translate(49.798)" opacity="0.3" style="mix-blend-mode: multiply;isolation: isolate">
          <g id="Grupo_848603" data-name="Grupo 848603">
            <g id="Grupo_848602" data-name="Grupo 848602" clip-path="url(#clip-path-3)">
              <rect id="Rectángulo_281672" data-name="Rectángulo 281672" width="7.889" height="81.196" transform="translate(-0.001 0)" fill="#7a5353"/>
            </g>
          </g>
        </g>
      </g>
    </g>
    <rect id="Rectángulo_281675" data-name="Rectángulo 281675" width="11.928" height="49.628" transform="translate(74.47 31.569)" fill="#ff5050"/>
    <rect id="Rectángulo_281676" data-name="Rectángulo 281676" width="11.928" height="2.998" transform="translate(74.469 33.978)" fill="#fff5e3"/>
    <rect id="Rectángulo_281677" data-name="Rectángulo 281677" width="11.928" height="5.042" transform="translate(74.469 40.358)" fill="#fff5e3"/>
    <g id="Grupo_848611" data-name="Grupo 848611">
      <g id="Grupo_848610" data-name="Grupo 848610" clip-path="url(#clip-path)">
        <g id="Grupo_848609" data-name="Grupo 848609" transform="translate(74.47 31.569)" opacity="0.3" style="mix-blend-mode: multiply;isolation: isolate">
          <g id="Grupo_848608" data-name="Grupo 848608">
            <g id="Grupo_848607" data-name="Grupo 848607" clip-path="url(#clip-path-5)">
              <rect id="Rectángulo_281678" data-name="Rectángulo 281678" width="5.038" height="49.628" transform="translate(0)" fill="#7a5353"/>
            </g>
          </g>
        </g>
      </g>
    </g>
    <rect id="Rectángulo_281681" data-name="Rectángulo 281681" width="11.041" height="7.054" transform="translate(103.762 61.465)" fill="#664249"/>
    <rect id="Rectángulo_281682" data-name="Rectángulo 281682" width="6.298" height="7.054" transform="translate(99.712 61.465)" fill="#3f262c"/>
    <rect id="Rectángulo_281683" data-name="Rectángulo 281683" width="55.02" height="10.637" transform="translate(40.405 61.465)" fill="#664249"/>
    <rect id="Rectángulo_281684" data-name="Rectángulo 281684" width="21.329" height="10.637" transform="translate(34.459 61.465)" fill="#3f262c"/>
    <path id="Trazado_590531" data-name="Trazado 590531" d="M149.23,34.687h-48.1L82.341,125.5h85.682Z" transform="translate(47.185 19.877)" fill="#ff5050"/>
    <path id="Trazado_590532" data-name="Trazado 590532" d="M145.658,40.423H93.826l-1.993,9.635h55.818Z" transform="translate(52.624 23.164)" fill="#fff5e3"/>
    <path id="Trazado_590533" data-name="Trazado 590533" d="M149.833,50.486H91.451l-1.188,5.735h60.757Z" transform="translate(51.725 28.93)" fill="#fff5e3"/>
    <g id="Grupo_848616" data-name="Grupo 848616">
      <g id="Grupo_848615" data-name="Grupo 848615" clip-path="url(#clip-path)">
        <g id="Grupo_848614" data-name="Grupo 848614" transform="translate(129.526 54.563)" opacity="0.3" style="mix-blend-mode: multiply;isolation: isolate">
          <g id="Grupo_848613" data-name="Grupo 848613">
            <g id="Grupo_848612" data-name="Grupo 848612" clip-path="url(#clip-path-7)">
              <path id="Trazado_590534" data-name="Trazado 590534" d="M119.232,34.687h-18.1L82.341,125.5h36.891Z" transform="translate(-82.341 -34.687)" fill="#7a5353"/>
            </g>
          </g>
        </g>
      </g>
    </g>
    <rect id="Rectángulo_281687" data-name="Rectángulo 281687" width="76.225" height="10.134" transform="translate(145.86 130.823)" fill="#664249"/>
    <rect id="Rectángulo_281688" data-name="Rectángulo 281688" width="27.514" height="10.134" transform="translate(165.405 130.823)" fill="#3f262c"/>
    <rect id="Rectángulo_281689" data-name="Rectángulo 281689" width="102.016" height="74.051" transform="translate(25.217 65.606)" fill="#fff5e3"/>
    <rect id="Rectángulo_281690" data-name="Rectángulo 281690" width="67.155" height="24.884" transform="translate(55.978 72.712)" fill="#6a5472"/>
    <rect id="Rectángulo_281691" data-name="Rectángulo 281691" width="65.086" height="22.539" transform="translate(55.978 75.058)" fill="#906f93"/>
    <rect id="Rectángulo_281692" data-name="Rectángulo 281692" width="1.265" height="24.259" transform="translate(60.976 73.337)" fill="#6a5472"/>
    <rect id="Rectángulo_281693" data-name="Rectángulo 281693" width="1.265" height="24.259" transform="translate(67.68 73.337)" fill="#6a5472"/>
    <rect id="Rectángulo_281694" data-name="Rectángulo 281694" width="1.266" height="24.259" transform="translate(74.384 73.337)" fill="#6a5472"/>
    <rect id="Rectángulo_281695" data-name="Rectángulo 281695" width="1.266" height="24.259" transform="translate(81.089 73.337)" fill="#6a5472"/>
    <rect id="Rectángulo_281696" data-name="Rectángulo 281696" width="1.266" height="24.259" transform="translate(87.795 73.337)" fill="#6a5472"/>
    <rect id="Rectángulo_281697" data-name="Rectángulo 281697" width="1.266" height="24.259" transform="translate(94.499 73.337)" fill="#6a5472"/>
    <rect id="Rectángulo_281698" data-name="Rectángulo 281698" width="1.265" height="24.259" transform="translate(101.205 73.337)" fill="#6a5472"/>
    <rect id="Rectángulo_281699" data-name="Rectángulo 281699" width="1.265" height="24.259" transform="translate(107.909 73.337)" fill="#6a5472"/>
    <rect id="Rectángulo_281700" data-name="Rectángulo 281700" width="1.265" height="24.259" transform="translate(114.613 73.337)" fill="#6a5472"/>
    <path id="Trazado_590535" data-name="Trazado 590535" d="M61.526,78.8,56.65,75.433,47.257,95.184H61.526Z" transform="translate(27.08 43.226)" fill="#c4b09d"/>
    <rect id="Rectángulo_281701" data-name="Rectángulo 281701" width="43.52" height="1.348" transform="translate(83.714 118.587)" fill="#eddcc0"/>
    <rect id="Rectángulo_281702" data-name="Rectángulo 281702" width="101.905" height="21.046" transform="translate(87.226 119.91)" fill="#fff5e3"/>
    <path id="Trazado_590536" data-name="Trazado 590536" d="M61.269,76.016l-8.027.333V97.4h8.027Z" transform="translate(30.51 43.56)" fill="#eddcc0"/>
    <rect id="Rectángulo_281703" data-name="Rectángulo 281703" width="26.507" height="74.051" transform="translate(23.784 65.606)" fill="#c4b09d"/>
    <rect id="Rectángulo_281704" data-name="Rectángulo 281704" width="5.314" height="7.573" transform="translate(112.905 127.736)" fill="#6a5472"/>
    <rect id="Rectángulo_281705" data-name="Rectángulo 281705" width="11.069" height="9.207" transform="translate(60.406 126.1)" fill="#6a5472"/>
    <rect id="Rectángulo_281706" data-name="Rectángulo 281706" width="4.776" height="9.207" transform="translate(12.207 126.1)" fill="#3f262c"/>
    <rect id="Rectángulo_281707" data-name="Rectángulo 281707" width="4.744" height="4.159" transform="translate(60.406 111.648)" fill="#c4b09d"/>
    <rect id="Rectángulo_281708" data-name="Rectángulo 281708" width="3.226" height="17.81" transform="translate(29.032 97.998)" fill="#6a5472"/>
    <rect id="Rectángulo_281709" data-name="Rectángulo 281709" width="3.226" height="17.81" transform="translate(34.346 97.997)" fill="#6a5472"/>
    <rect id="Rectángulo_281710" data-name="Rectángulo 281710" width="3.226" height="17.81" transform="translate(39.659 97.997)" fill="#6a5472"/>
    <rect id="Rectángulo_281711" data-name="Rectángulo 281711" width="4.744" height="4.159" transform="translate(68.882 111.648)" fill="#c4b09d"/>
    <rect id="Rectángulo_281712" data-name="Rectángulo 281712" width="4.744" height="4.159" transform="translate(77.357 111.648)" fill="#c4b09d"/>
    <rect id="Rectángulo_281713" data-name="Rectángulo 281713" width="4.744" height="4.159" transform="translate(85.833 111.648)" fill="#c4b09d"/>
    <rect id="Rectángulo_281714" data-name="Rectángulo 281714" width="4.744" height="4.159" transform="translate(94.308 111.648)" fill="#c4b09d"/>
    <rect id="Rectángulo_281715" data-name="Rectángulo 281715" width="4.744" height="4.159" transform="translate(102.784 111.648)" fill="#c4b09d"/>
    <rect id="Rectángulo_281716" data-name="Rectángulo 281716" width="4.744" height="4.159" transform="translate(111.261 111.648)" fill="#c4b09d"/>
    <rect id="Rectángulo_281717" data-name="Rectángulo 281717" width="61.039" height="2.954" transform="translate(122.773 127.736)" fill="#6a5472"/>
    <rect id="Rectángulo_281718" data-name="Rectángulo 281718" width="231.061" height="5.735" transform="translate(3.226 134.015)" fill="#664249"/>
    <rect id="Rectángulo_281719" data-name="Rectángulo 281719" width="41.303" height="5.735" transform="translate(3.226 134.015)" fill="#3f262c"/>
    <path id="Trazado_590537" data-name="Trazado 590537" d="M22.589,86.717v49.107H285.365L224.652,86.717Z" transform="translate(12.944 49.692)" fill="#c4b09d"/>
    <path id="Trazado_590538" data-name="Trazado 590538" d="M165.427,86.717,22.589,135.824H158.976l65.678-49.107Z" transform="translate(12.944 49.692)" fill="#d3bfaf"/>
    <g id="Grupo_848624" data-name="Grupo 848624">
      <g id="Grupo_848623" data-name="Grupo 848623" clip-path="url(#clip-path)">
        <g id="Grupo_848619" data-name="Grupo 848619" transform="translate(122.203 157.65)" opacity="0.3" style="mix-blend-mode: multiply;isolation: isolate">
          <g id="Grupo_848618" data-name="Grupo 848618">
            <g id="Grupo_848617" data-name="Grupo 848617" clip-path="url(#clip-path-9)">
              <path id="Trazado_590539" data-name="Trazado 590539" d="M101.1,100.22l-23.41,4.554,7.167,23.312H110.42Z" transform="translate(-77.686 -100.22)" fill="#7a5353"/>
            </g>
          </g>
        </g>
        <g id="Grupo_848622" data-name="Grupo 848622" transform="translate(185.203 157.65)" opacity="0.3" style="mix-blend-mode: multiply;isolation: isolate">
          <g id="Grupo_848621" data-name="Grupo 848621">
            <g id="Grupo_848620" data-name="Grupo 848620" clip-path="url(#clip-path-10)">
              <path id="Trazado_590540" data-name="Trazado 590540" d="M141.146,100.22l-23.41,4.554,7.167,23.312h25.567Z" transform="translate(-117.736 -100.22)" fill="#7a5353"/>
            </g>
          </g>
        </g>
        <path id="Trazado_590541" data-name="Trazado 590541" d="M122.361,107.278c-2.374-8.071-8.724-14.615-14.184-14.615-.072,0-.142.006-.212.008l0-.008H82.977l0,.009c-5.273.212-7.658,6.667-5.322,14.606,2.279,7.752,8.225,14.09,13.53,14.581l.009.035h25.254l0-.011c.109,0,.217.011.326.011,5.46,0,7.961-6.544,5.587-14.615" transform="translate(43.988 53.1)" fill="#fff5e3"/>
        <path id="Trazado_590542" data-name="Trazado 590542" d="M119.278,99.1c-2.954,4.043-6.83,6.734-10.344,6.734-.072,0-.142-.006-.212-.009l0,.009H83.734l0-.011c-4.376-.173-6.751-4.609-6.1-10.6-1.118,2.663-1.208,6.418.02,10.6,2.279,7.752,8.227,14.09,13.531,14.581l.009.035h25.252l0-.013c.109,0,.219.013.326.013,5.46,0,7.963-6.544,5.589-14.615a26.063,26.063,0,0,0-3.082-6.715" transform="translate(43.989 54.564)" fill="#eddcc0"/>
        <path id="Trazado_590543" data-name="Trazado 590543" d="M110.693,106.176c-1.883-6.4-6.918-11.59-11.249-11.59s-6.313,5.189-4.431,11.59,6.92,11.59,11.249,11.59,6.314-5.189,4.431-11.59" transform="translate(54.039 54.202)" fill="#3f262c"/>
        <path id="Trazado_590544" data-name="Trazado 590544" d="M162.439,107.278c-2.374-8.071-8.724-14.615-14.184-14.615-.072,0-.142.006-.214.008l0-.008H123.055l0,.009c-5.274.212-7.658,6.667-5.323,14.606,2.281,7.752,8.227,14.09,13.531,14.581l.009.035h25.254l0-.011c.109,0,.217.011.326.011,5.46,0,7.961-6.544,5.587-14.615" transform="translate(66.953 53.1)" fill="#fff5e3"/>
        <path id="Trazado_590545" data-name="Trazado 590545" d="M160.064,100.217a12.927,12.927,0,0,1-7.156,2.55c-.08,0-.159,0-.239-.006l0,.006H124.583l0-.009c-4.016-.142-6.533-3.118-6.928-7.459-1.068,2.655-1.134,6.358.076,10.47,2.279,7.752,8.227,14.09,13.53,14.581l.009.035h25.254l0-.011c.109,0,.217.011.326.011,5.46,0,7.963-6.544,5.587-14.615a25.906,25.906,0,0,0-2.372-5.551" transform="translate(66.955 54.61)" fill="#eddcc0"/>
        <path id="Trazado_590546" data-name="Trazado 590546" d="M150.77,106.176c-1.883-6.4-6.918-11.59-11.249-11.59s-6.313,5.189-4.431,11.59,6.92,11.59,11.249,11.59,6.314-5.189,4.431-11.59" transform="translate(77.005 54.202)" fill="#3f262c"/>
        <path id="Trazado_590547" data-name="Trazado 590547" d="M103.677,96.531l-5.952,16.688c2.043,2.117,4.4,3.432,6.575,3.432,4.331,0,6.314-5.189,4.431-11.59a19.941,19.941,0,0,0-5.054-8.531" transform="translate(56 55.316)" fill="#664249"/>
        <path id="Trazado_590548" data-name="Trazado 590548" d="M143.754,96.531,137.8,113.219c2.043,2.117,4.4,3.432,6.575,3.432,4.331,0,6.314-5.189,4.431-11.59a19.94,19.94,0,0,0-5.054-8.531" transform="translate(78.966 55.316)" fill="#664249"/>
        <path id="Trazado_590549" data-name="Trazado 590549" d="M98.622,108.005l3.876,14.5H118l-10.119-14.5c0-.595-9.259-.595-9.259,0" transform="translate(56.514 61.636)" fill="#d0d85b"/>
        <path id="Trazado_590550" data-name="Trazado 590550" d="M101.818,107.573c-1.749.049-3.195.19-3.195.426l3.876,14.5h4.777Z" transform="translate(56.515 61.644)" fill="#aaad3b"/>
        <path id="Trazado_590551" data-name="Trazado 590551" d="M138.358,107.862l4.151,14.374h16.607l-10.84-14.374c0-.982-9.918-.982-9.918,0" transform="translate(79.285 61.387)" fill="#d0d85b"/>
        <path id="Trazado_590552" data-name="Trazado 590552" d="M141.5,107.143c-2.15.028-3.195.143-3.151.768l3.906,14.832h4.777Z" transform="translate(79.28 61.397)" fill="#aaad3b"/>
        <path id="Trazado_590553" data-name="Trazado 590553" d="M286.175,114.581H46.322l4.161,5.276H286.175Z" transform="translate(26.545 65.659)" fill="#d0d85b"/>
        <path id="Trazado_590554" data-name="Trazado 590554" d="M91.9,114.581H37.878l.936,5.276H91.9Z" transform="translate(21.706 65.659)" fill="#aaad3b"/>
        <path id="Trazado_590555" data-name="Trazado 590555" d="M42.734,86.717H0v49.107H81.67Z" transform="translate(0 49.692)" fill="#664249"/>
        <rect id="Rectángulo_281722" data-name="Rectángulo 281722" width="1.265" height="28.102" transform="translate(61.987 71.158)" fill="#fff5e3"/>
        <rect id="Rectángulo_281723" data-name="Rectángulo 281723" width="1.265" height="28.102" transform="translate(68.693 71.158)" fill="#fff5e3"/>
        <rect id="Rectángulo_281724" data-name="Rectángulo 281724" width="1.265" height="28.102" transform="translate(75.397 71.158)" fill="#fff5e3"/>
        <rect id="Rectángulo_281725" data-name="Rectángulo 281725" width="1.265" height="28.102" transform="translate(82.102 71.158)" fill="#fff5e3"/>
        <rect id="Rectángulo_281726" data-name="Rectángulo 281726" width="1.265" height="28.102" transform="translate(88.806 71.158)" fill="#fff5e3"/>
        <rect id="Rectángulo_281727" data-name="Rectángulo 281727" width="1.265" height="28.102" transform="translate(95.512 71.158)" fill="#fff5e3"/>
        <rect id="Rectángulo_281728" data-name="Rectángulo 281728" width="1.265" height="28.102" transform="translate(102.216 71.158)" fill="#fff5e3"/>
        <rect id="Rectángulo_281729" data-name="Rectángulo 281729" width="1.265" height="28.102" transform="translate(108.92 71.158)" fill="#fff5e3"/>
        <rect id="Rectángulo_281730" data-name="Rectángulo 281730" width="1.265" height="28.102" transform="translate(115.626 71.158)" fill="#fff5e3"/>
        <path id="Trazado_590556" data-name="Trazado 590556" d="M27.7,106.958c-.3-7.587-4.708-13.736-9.839-13.736S8.81,99.371,9.112,106.958s4.708,13.736,9.839,13.736S28,114.545,27.7,106.958" transform="translate(5.212 53.42)" fill="#eddcc0"/>
        <path id="Trazado_590557" data-name="Trazado 590557" d="M25.715,106.176c-.256-6.4-3.973-11.59-8.3-11.59s-7.634,5.189-7.379,11.59,3.973,11.59,8.3,11.59,7.632-5.189,7.379-11.59" transform="translate(5.741 54.202)" fill="#aaad3b"/>
        <path id="Trazado_590558" data-name="Trazado 590558" d="M17.412,94.586c-4.331,0-7.632,5.189-7.378,11.59a16.851,16.851,0,0,0,.582,3.767H25.431a16.482,16.482,0,0,0,.283-3.767c-.256-6.4-3.972-11.59-8.3-11.59" transform="translate(5.742 54.202)" fill="#3f262c"/>
      </g>
    </g>
  </g>
</svg>
